<svg xmlns="http://www.w3.org/2000/svg" xml:space="preserve" style="fill-rule:evenodd;clip-rule:evenodd;stroke-linejoin:round;stroke-miterlimit:2" viewBox="0 0 1621 467">
  <path d="M178.3 333.7c-7-6.3-15-10.4-24-12.5 6.7-2.6 12.6-6.7 17.9-12.3 5.2-5.6 9.3-12.1 12.3-19.4 2.9-7.3 4.4-14.8 4.4-22.5 0-12.8-3.8-24.8-11.3-35.9-7.6-11.1-17.9-20-31.1-26.7-13.2-6.7-27.6-10-43.2-10H-.1v268.9h114.8c15.4 0 29.6-3.5 42.8-10.4 13.2-6.9 23.7-16.3 31.5-28 7.8-11.8 11.7-24.8 11.7-39.2 0-10.5-2-20.2-6-29.2-3.9-8.9-9.4-16.5-16.4-22.8Zm-113.1-77h35c4.4 0 8.3 1 11.7 2.9 3.4 1.9 6.3 4.5 8.4 7.7 2.2 3.2 3.3 6.9 3.3 10.9 0 4.1-1.1 7.8-3.3 11.1-2.2 3.3-5 6-8.4 7.9-3.5 1.9-7.4 2.9-11.7 2.9h-35v-43.4Zm66.2 131.6c-2.2 4-5.3 7.1-9.4 9.4-4.1 2.3-8.4 3.5-13.1 3.5H65.1v-51.5h44.6c4.6 0 8.8 1.2 12.7 3.5 3.8 2.3 6.8 5.4 9 9.4s3.3 8.3 3.3 12.9c0 4.5-1.1 8.8-3.3 12.8Zm219.1-92c-4.2-5.6-9-10.3-14.6-14.2-11.3-7.9-24.7-11.9-40.3-11.9-15.6 0-30.1 4.4-43.4 13.3-13.3 8.8-23.8 20.9-31.5 36.1-7.7 15.2-11.5 31.7-11.5 49.4s3.8 34.1 11.5 49.2c7.7 15.1 18.2 27.1 31.5 35.9 13.3 8.8 27.8 13.3 43.4 13.3 15.6 0 29.1-3.9 40.3-11.7 5.5-3.8 10.4-8.6 14.6-14.1v22h61.8V274h-61.8v22.3Zm-5.3 92.3c-3.6 6-8.4 10.8-14.6 14.4-6.1 3.6-12.9 5.4-20.4 5.4-7.4 0-14.2-1.8-20.4-5.4-6.1-3.6-11.1-8.4-14.8-14.4-3.7-6-5.6-12.6-5.6-19.8 0-7.2 1.9-13.8 5.6-20 3.7-6.1 8.6-10.9 14.8-14.4 6.1-3.5 12.9-5.2 20.4-5.2 7.4 0 14.2 1.7 20.4 5.2 6.1 3.5 11 8.2 14.6 14.2 3.6 6 5.4 12.7 5.4 20.2-.1 7.2-1.9 13.8-5.4 19.8Zm209.7 19.6c-3.6.6-6.7 1-9.2 1-7.2 0-13.3-2.4-18.4-7.1-5.1-4.7-7.7-10.7-7.7-17.9v-51.1h44.6V274h-44.6v-48.4h-61.8V274h-34.6v59.1h34.6v54.2c0 24.8 7.2 44.3 21.5 58.4 14.3 14.1 33.3 21.1 56.8 21.1 5.4 0 10.8-.6 16.3-1.7 5.5-1.2 10.2-2.6 14-4.4l-3.1-54.5c-2 .7-4.9 1.4-8.4 2Zm287.801-128.6c-11.7-6.3-24.9-9.4-39.8-9.4-9.5 0-18.4 1.7-26.9 5.2-8.4 3.5-15.7 7.9-21.9 13.4-2.3 2-4.3 4.1-6 6.3-2.4-3.8-4.9-7-7.6-9.7-10.1-10.1-24.3-15.2-42.4-15.2-10.5 0-20.7 2.3-30.7 6.9-8 3.7-15 9.7-21.1 18.1V274h-61.5v189.3h61.5V359.6c0-6.4 1.2-11.8 3.6-16.3 2.4-4.5 5.8-7.9 10.2-10.2 4.4-2.3 9.1-3.5 14.2-3.5 8.4 0 15.1 2.8 20 8.3 4.9 5.5 7.3 12.7 7.3 21.7v103.7h61.8V359.6c0-6.4 1.2-11.8 3.6-16.3 2.4-4.5 5.8-7.9 10.2-10.2 4.3-2.3 9.2-3.5 14.6-3.5 8.2 0 14.7 2.8 19.4 8.3 4.7 5.5 7.1 12.7 7.1 21.7v103.7h62.2V345c0-14.8-3.4-27.9-10.2-39.2-6.7-11.2-15.9-20-27.6-26.2Zm196.899 16.7c-4.2-5.6-9-10.3-14.6-14.2-11.3-7.9-24.7-11.9-40.299-11.9-15.6 0-30.1 4.4-43.4 13.3-13.3 8.8-23.8 20.9-31.5 36.1-7.7 15.2-11.5 31.7-11.5 49.4s3.8 34.1 11.5 49.2c7.7 15.1 18.2 27.1 31.5 35.9 13.3 8.8 27.8 13.3 43.4 13.3 15.599 0 29.099-3.9 40.299-11.7 5.5-3.8 10.4-8.6 14.6-14.1v22h61.8V274h-61.8v22.3Zm-5.4 92.3c-3.6 6-8.4 10.8-14.6 14.4-6.1 3.6-12.9 5.4-20.399 5.4-7.4 0-14.2-1.8-20.4-5.4-6.1-3.6-11.1-8.4-14.8-14.4-3.7-6-5.6-12.6-5.6-19.8 0-7.2 1.9-13.8 5.6-20 3.7-6.1 8.6-10.9 14.8-14.4 6.1-3.5 12.9-5.2 20.4-5.2 7.399 0 14.199 1.7 20.399 5.2 6.1 3.5 11 8.2 14.6 14.2 3.6 6 5.4 12.7 5.4 20.2 0 7.2-1.8 13.8-5.4 19.8Zm122.9-208.7c-10 0-18.6 3.6-25.7 10.8-7.2 7.2-10.8 15.7-10.8 25.7 0 10.2 3.6 19 10.8 26.1 7.2 7.2 15.7 10.8 25.7 10.8s18.6-3.6 25.9-10.8c7.3-7.2 10.9-15.9 10.9-26.1 0-10-3.6-18.6-10.9-25.7-7.3-7.2-15.9-10.8-25.9-10.8Zm30.8 94.1h-61.5v189.3h61.5V274Zm158.9-79.5v101.8c-4.2-5.6-9-10.3-14.6-14.2-11.3-7.9-24.7-11.9-40.3-11.9-15.6 0-30.1 4.4-43.4 13.3-13.3 8.8-23.8 20.9-31.5 36.1-7.7 15.2-11.5 31.7-11.5 49.4s3.8 34.1 11.5 49.2c7.7 15.1 18.2 27.1 31.5 35.9 13.3 8.8 27.8 13.3 43.4 13.3 15.6 0 29.1-3.9 40.3-11.7 5.5-3.8 10.4-8.6 14.6-14.1v22h61.8V194.5h-61.8Zm-5.4 194.1c-3.6 6-8.4 10.8-14.6 14.4-6.1 3.6-12.9 5.4-20.4 5.4-7.4 0-14.2-1.8-20.4-5.4-6.1-3.6-11.1-8.4-14.8-14.4-3.7-6-5.6-12.6-5.6-19.8 0-7.2 1.9-13.8 5.6-20 3.7-6.1 8.6-10.9 14.8-14.4 6.1-3.5 12.9-5.2 20.4-5.2 7.4 0 14.2 1.7 20.4 5.2 6.1 3.5 11 8.2 14.6 14.2 3.6 6 5.4 12.7 5.4 20.2 0 7.2-1.8 13.8-5.4 19.8ZM1621.1 133.3l-76.7 1 30.2-71-107.1 131 51.6-.6-57.1 134.4 159.1-194.8Z"/>
  <path d="m1467.5 194.3-25 .4L1601.6-.1l-26.9 63.3-107.2 131.1Z"/>
</svg>
