<svg xmlns="http://www.w3.org/2000/svg" viewBox="0 0 96 41.6660121">
  <title>Chopin Vodka</title>
  <g>
    <path d="M63.71500687 31.99681224a.2217372.2217372 0 0 0 .0632531-.02108437c.00942422-.00551003.01538642-.01544702.01581328-.02635546a.75727981.75727981 0 0 0-.04216874-.1082331c-.02834676-.064893-.06430732-.15005042-.10788169-.25547226-.04357436-.10542185-.09546533-.2247828-.15567292-.35808287-.05973904-.13353433-.12029804-.27222263-.18167698-.41606488-.06137894-.14384225-.1238121-.2860446-.18729947-.42660706-.06325311-.14056246-.12111799-.2704656-.17359464-.38970942s-.09722237-.22290863-.13423715-.31099444c-.03689764-.08785153-.0625503-.14934761-.07660654-.18448822a.56224983.56224983 0 0 0-.05798201-.11596403c-.0159842-.0186055-.03877819-.0300025-.06325311-.03162656v-.0632531h1.07987109v.0632531c-.02943479-.00014726-.0584349.00710276-.08433747.02108437-.01369368.00959774-.0216224.02545515-.02108437.04216874a.21260069.21260069 0 0 0 .0235442.06571295c.01593042.03326645.049314.10436763.10015076.21330353.05083676.1089359.12463205.26695154.22138587.4740469.09651956.20709535.22735978.48986016.39252067.84829443.15813277-.34765781.2837019-.62421445.37670739-.82966991.09300549-.20545546.16504375-.36265115.21611478-.47158705.05060249-.1089359.08328326-.18343401.0973395-.22419712a.31204868.31204868 0 0 0 .02108437-.08152623c.00099719-.0148427-.00482393-.02933082-.01581327-.03935749-.01913376-.01154018-.04091866-.01795463-.06325311-.01862452v-.06325311h.90487083v.0632531a.27163679.27163679 0 0 0-.04989967.02108438c-.0153859.01138902-.02582352.02824011-.02916671.04708842-.00702813.02108437-.0281125.07203826-.06325311.15286167-.03514062.08082342-.07836357.18097417-.12896606.30045226-.05060248.11947809-.10542184.2519582-.16867495.39744035-.0632531.14548215-.12474918.29447835-.18940791.44523159-.06465873.15075324-.12826324.29869523-.18975932.44242034-.06149608.14372511-.11596403.27233976-.16340386.38478973-.04743983.11244997-.08504029.2055726-.11315278.27936789a.93087616.93087616 0 0 0-.04216874.12123512c0 .03162655.02459843.04743983.07379529.04743983v.07028123h-1.08549358l.00175703-.06465873Zm4.65718567-2.73956233c.21509286-.00147074.42917316.02956913.63499091.09206841.18937043.05676023.36630529.1488045.52148672.27128555.14952261.11977977.27092186.27092903.35562302.44277175.17564192.38846563.17564192.83372494 0 1.22219058-.08467203.17186127-.206076.32301641-.35562302.44277174-.15433026.12195768-.33170665.21148256-.52148672.26320321-.41572064.11259897-.85390978.11259897-1.26963041 0-.18980798-.05164799-.36719836-.14117992-.52148673-.26320321-.14957962-.11972267-.27098991-.27088568-.35562302-.44277174-.17555063-.38848531-.17555063-.83370527 0-1.22219058.08466231-.17186747.20606786-.32302458.35562302-.44277175.15513988-.1225453.33208753-.21459624.52148673-.27128555.20570396-.06246951.41966395-.0935091.6346395-.0920684Zm0 .64272185a1.01591513 1.01591513 0 0 0-.32926756.05271092c-.09965509.03285932-.19243849.08371749-.27374539.15005042-.07998797.06606319-.14472407.14866166-.18975932.24211884-.0946998.20929807-.0946998.44923705 0 .65853512.0450209.0935661.10975528.17628225.18975932.24247024.08136013.06625389.1741283.11710371.27374539.15005043.21403503.07010167.44485149.07010167.65888652 0 .09961709-.03294672.19238526-.08379654.27374539-.15005043.08001204-.0661802.1447479-.14889824.18975932-.24247024.0946541-.20930793.0946541-.4492272 0-.65853512-.04502576-.0934631-.10976334-.17606346-.18975932-.24211884-.0813069-.06633293-.1740903-.1171911-.27374539-.15005042a1.01661797 1.01661797 0 0 0-.32961896-.05271092Zm2.9497032-.45331393c.00075718-.02258856-.00789671-.0444778-.02389562-.06044186-.03716462-.02298147-.07999878-.03515026-.12369496-.03514062v-.0632531H72.923605c.2155663-.00451898.4300826.03123374.632531.10542184.167821.0628481.319207.16293103.4427718.29272132.1171548.1265471.2061436.2764986.2610947.4399605.0590604.17654998.0883919.36168234.0867974.54784218.0004243.17710782-.0307536.35287077-.0920685.51902688-.0607268.16570388-.1559497.31662309-.2793678.44277175-.1319715.13313615-.289679.23799545-.4635048.30818319-.2053218.0812094-.4247838.12063373-.645533.11596403h-1.69096642v-.06325311c.04368845-.0000458.08650777-.01221038.12369496-.03514061.01596294-.01598767.0246104-.03786067.02389562-.06044186l-.00105422-2.45422053Zm1.45903836 1.99141863c.2219234.02104468.4417866-.05717464.6005531-.21365493.2459332-.32578245.2459332-.77517302 0-1.10095546-.1588192-.15639631-.3786419-.23460125-.6005531-.21365494h-.66767172v1.52791393l.66767172.0003514Zm4.7531195.55873578a.26109509.26109509 0 0 0 .0737953-.00808234c.0172189-.0052711.0263555-.02565265.0263555-.06044186a.34648764.34648764 0 0 0-.0474399-.09487966c-.0316265-.05271092-.0719211-.11760392-.1208837-.19467901-.0495482-.07730935-.1054218-.15988979-.1637552-.2459843-.0583335-.08609451-.1159641-.17218901-.168675-.25266102-.0527109-.08047201-.1001507-.15110464-.1405625-.21084369-.0404117-.05973904-.0702812-.10015075-.0843374-.12123512l-.5162157.46385612v.63253106c-.0007571.02258856.0078967.04447781.0238957.06044186.0371797.02294726.0800039.03511324.1236949.03514061v.06325311h-1.0851422v-.06325311c.0436706-.00017311.0864561-.01232809.123695-.03514061.0157635-.01609269.0242685-.0379266.0235442-.06044186v-2.45527475c.0007657-.02252233-.0077455-.04437196-.0235442-.06044186-.0372169-.02286266-.0800168-.03502171-.123695-.03514061v-.0632531h1.0851422v.0632531c-.0436988-.00002825-.0865379.01214196-.1236949.03514061-.0160353.01594017-.0246957.0378459-.0238957.06044186v.9487966h.0368977c.1054218-.10190779.2186917-.20732963.3398097-.31626553.121118-.10893591.2326309-.20990661.3345387-.3029121.1019078-.09370831.1870652-.1727747.2554723-.23719915.0685241-.06465873.1026105-.10542185.1026105-.11877528 0-.03162655-.0087851-.04989967-.0263554-.05517077a.44734049.44734049 0 0 0-.0685242-.01335343v-.0632531h1.3381546v.0632531a.46069296.46069296 0 0 0-.0867973.01581328.21962757.21962757 0 0 0-.0632531.03162655c-.0194445.01405625-.0405289.0308066-.0632531.05025108-.0228414.01932734-.0498997.04287155-.0815263.07028123l-.9115475.78504133 1.0749514 1.60698031c.0173262.03277513.0451756.05876788.0790664.07379529a.32856435.32856435 0 0 0 .0896085.01054219v.06325311h-1.2081343v-.06501014Zm2.8238998-.05271092c-.0010581.01538411.0058383.03023793.0182731.03935748.0238775.01123562.0503358.01584761.0766066.01335344v.0632531h-.9326319v-.0632531c.030773-.00387123.05992-.01601583.0843374-.03514062.0234932-.02495646.0415605-.05451014.0530624-.08679731.0070281-.01757031.0245984-.06501014.0527109-.14231949.0281125-.07730936.0650101-.17570308.1103415-.29236992.0453314-.11666684.0962853-.24809274.1528617-.39252067.0565764-.14442792.1120985-.29061288.1683235-.43996049.056225-.14934762.1113958-.29518117.1662151-.43750066.0548194-.14231949.1026106-.26952851.1447794-.38197848.0421687-.11244996.0762551-.20381556.1026106-.2740968.0263554-.07028122.0397089-.10717887.0397089-.11069293 0-.0175703-.011245-.02986952-.0351407-.03514061a.47263728.47263728 0 0 0-.0702812-.01581328v-.0632531h1.3747009v.0632531a.28569281.28569281 0 0 0-.0685242.01581328c-.0175703.00702812-.0260041.02459843-.0260041.05271092a1.13610178 1.13610178 0 0 0 .0498997.1370484c.0335007.08433747.0764894.19409332.128966.32926756.0524767.13517423.1130357.28745022.181677.45682799.0684071.17054911.1395083.34437802.2133036.52148672.0737952.1771087.1448964.35011766.2133035.51902688.068407.16867495.1307231.31966246.1869481.45296252a.52253677.52253677 0 0 0 .0702812.12650622c.0195807.02117138.047438.03272511.0762551.03162655v.06325311h-1.0380537v-.06325311c.0664157-.00351406.1001507-.02459843.1001507-.06325311a.65431114.65431114 0 0 0-.0263555-.07028123c-.0175703-.04392576-.0368976-.09312263-.0583334-.14759058-.0214357-.05446795-.0411145-.10542184-.0604418-.15532152a.76710639.76710639 0 0 1-.0351406-.10015075h-1.2485461c-.0351406.09487966-.0632531.17218901-.0843375.23192806-.0210843.05973905-.0379518.10542184-.0498996.14056246-.0119478.03514061-.0210844.06044186-.0263555.07660654a.12404556.12404556 0 0 0-.0052711.03584343Zm1.2801726-.90627646-.5109445-1.25416854-.4687758 1.25416854h.9797203Z"/>
    <path d="M38.9538266 41.6660121c-.8669892 0-1.5319902-.2108437-1.7365086-.5481936-.1047583-.13941-.1320397-.3222906-.0725302-.4862055.0405298-.0687847.1164344-.1087775.1960846-.1033134a.40649873.40649873 0 0 1 .0691567.0063253c.1983285.017426.3693672.1464006.4406633.3322896.0149305.0405099.0382042.0774317.0683134.1083737l.0143374.0126506.0172892.006747c.2252713.0828503.4642907.1219236.7042179.1151207a6.1987925 6.1987925 0 0 0 .7438565-.059458l.1838557-.0210843c1.3995804-.1556027 3.4911498-1.2228934 4.6613323-2.3787385 2.1421718-1.9136173 4.5601273-5.3204297 7.3879628-10.4110397.2905426-.5642177.5612659-1.1149414.8058446-1.6386771.1028917-.2201208.2530124-.5338562.4330729-.9045194.6810251-1.4130744 1.6897013-3.5050655 2.0443404-4.5432598.0399779-.0830682.0384149-.18013-.0042168-.2618679-.0484941-.068735-.1598196-.1045785-.3297596-.1045785a1.99079068 1.99079068 0 0 0-.2762052.0227712l-.0978315.0139156v.0046386h-.0033735c-.1366267.0088554-.3141571.0265663-.5148803.0468073l-.0455422.0046386c-.481567.0489157-1.0744594.1083736-1.6154843.1083736-.3512872.0133877-.7024624-.029317-1.0403028-.1265062l-.0813857-.0282531-.0489157.0708435c-.0969881.1400002-.1910244.2787354-.284639.4162055-.2951811.4339163-.5726514.8433747-.8758447 1.2182548-.088976.1109038-.3166872.3546391-.558314.6118684-.2618679.2800004-.5317478.5684346-.6531938.7168685-.094458.1151207-2.3454252 2.836691-4.0119337 3.7230779-.4400424.2353749-.9309105.3597204-1.4299419.3622294-1.1908451 0-2.1506056-.7210854-2.2868106-1.7141592-.2479522-1.8174725 2.0392801-4.202958 3.4245231-5.4625382l.0590363-.0535543c.0640965-.0586146.129458-.1155424.1948195-.1720485.2109882-.159376.3959262-.3505735.5481936-.5667478l.182169-.3373499-.3373499.1846991c-.6253624.3428318-2.9071128 2.050244-3.8795239 2.7793415l-.0586145.0442771c-.2331931.1741569-.4090368.3053017-.4980128.3706632-.2445787.1787955-1.2228934.9989774-2.2568709 1.8668101l-.0518675.0421687c-1.3460261 1.1292788-2.8712694 2.4095217-3.2124144 2.641028-.4339097.2964243-.9424092.4649013-1.4674721.4862056-.2102603.0066804-.418517-.0426551-.6034347-.142952-.607576-.3446836-.9584837-1.0119024-.8981941-1.7078339.0531326-1.0120497 1.757593-2.9939804 2.3994012-3.7416321.0965664-.1121689.168675-.195663.2074702-.244157.1087953-.13494.4305428-.5060249.8138566-.9525918.6856637-.7948807 1.525665-1.771087 1.7799425-2.1084369.4145186-.5511454 1.1676523-1.8815691.7050612-2.2446419-.0653845-.0449173-.143888-.066732-.2230726-.061988-.6072298 0-1.9119305.8172301-2.6144617 1.2566284-.161928.1012049-.2880125.1804822-.3618078.2218075-.3904825.2175907-4.7616938 3.3633785-5.9689848 4.7199468-.4010247.4512055-.868676 1.0044594-1.3633153 1.5901831l-.0210844.0244579c-.8518085 1.0086762-1.7289182 2.0494006-2.3644011 2.6819317-.3290219.3730238-.7909577.6024781-1.2869899.6392781-.3043771.0113638-.5937735-.1323026-.768736-.3816271-.173157-.286709-.1901219-.6413875-.0451206-.9433147.3955428-.9521701 2.7025944-3.6155475 3.9419336-5.0463328l.0290964-.0341567c.2032534-.2348799.3765669-.4347597.5060249-.5869888.6721697-.7898205 1.3822912-1.6913881 1.9528342-2.415847.2083136-.264398.3955428-.5013863.5515671-.6962059.0678917-.0843374.1986148-.2344581.3580126-.4183138a10.5156177 10.5156177 0 0 0 1.3194598-1.6867495l.0451206-.1345183s.2365666-.6654227-2.1632563 1.5787975c-4.8633205 4.5483201-17.435508 16.3129762-24.21413255 16.4420125h-.05060248c-1.54609399-.1052608-2.97175504-.8719551-3.9119938-2.1037983-1.06180881-1.3679538-1.35741166-2.8476548-1.0221702-5.1070558.26842713-1.2699583.72599741-2.4924201 1.35741167-3.6265114l.01813256-.0290965C5.759018 15.3337439 18.3809646 5.46288575 22.3304885 2.74764073c.7489168-.52921766 1.4025323-.96060385 1.9435572-1.28319469.149699-.09192785.2530124-.15265083.306145-.17795207a6.48386463 6.48386463 0 0 1 .8653025-.42168738l.2015666-.07590373c.8116855-.36092542 1.6820489-.57180139 2.5689195-.62241057.6556512-.01087457 1.3003104.16919048 1.8554244.5182538 1.6972917 1.07108593.840423 4.02121082.5996395 4.74229623-.0345784.10289172.0497591.04216874.0497591.04216874S35.4141828.1293838 35.5664119.06823914c.2516389-.11956316.5500855-.07973722.7615674.10162665.2606444.21791112.3068189.60097403.1054219.87457962-.2875908.19228945-1.7921714 1.73861706-2.4259675 2.39476262-.2584944.26692811-3.9377167 3.74837909-4.7916337 4.88524826a26.9998081 26.9998081 0 0 0-2.2045816 3.68723441c-.1185324.2721517-.1150027.582006.0096988.8513868.1167744.2206589.113119.4855997-.0096988.7029529-.198348.3440799-.5492542.5725842-.944158.6148202-.7822301 0-1.3418092-.4672296-1.3337972-1.1946404.0257229-2.3837987 2.7919921-3.01590808 5.2162729-8.74410941.366868-.86656756.4052415-1.58512285.1400002-2.12530438-.2827155-.49400728-.762404-.84426571-1.3190381-.96313397a2.67813712 2.67813712 0 0 0-.7037963-.08728928c-.9288451.04814424-1.8357689.2997796-2.6566304.73710953a20.6900918 20.6900918 0 0 0-3.3401858 2.34922038c-.2108436.17289182-.3719282.30234985-.455844.36222945-.1724701.12271103-2.4748832 1.98193068-4.7191034 3.95036735-.685242.60174789-1.4223516 1.26759226-2.2534974 2.03548493-2.7266306 2.5301243-8.57754292 8.4135066-10.47176262 11.4939329-.32174747.5675912-.61102501 1.1334956-.861929 1.6842194-1.37048397 3.5421739-.87415793 6.0647078 1.39409847 7.1121793l.03204824.0185542c.37106706.1117458.75695372.1664865 1.14445954.1623496 7.46386657 0 25.78027947-16.8388203 29.96974357-21.11683873.5136152-.52415741 1.968015-2.17042493 2.2990396-2.572293l.2762052-.33355472c.5174104-.62156719 1.4805444-1.77867735 1.7807858-2.22735272l.163193-.24162687c.7501819-1.10482093 1.5303035-2.31000345 1.6247615-2.86747416.1186576-.71611615.6166055-1.31142544 1.3004838-1.55476136.0389454-.01679511.0811806-.02457907.1235544-.02277112.2346087.00444122.4510472.12725894.5751816.32638603.1290364.21590394.2003015.62662744-.1931328 1.35994179a3.25584211 3.25584211 0 0 1-.4356031.4845188 4.43109324 4.43109324 0 0 0-.5397598.59963945c-.2028316.32765109-2.2260877 3.32922184-2.6034979 3.79518639-.1522291.18849426-.6746998.87457962-1.2283753 1.60241203-.8897604 1.16680897-1.8925329 2.48205189-2.1704249 2.81054639-.23741.2804221-1.0504233 1.3565683-1.8364485 2.3972927l-.0316266.0421688c-.7029529.930664-1.4295202 1.8929546-1.5897614 2.0780753l-.1366267.1564461c-1.7318701 1.9819306-2.6292208 3.19133-2.740968 3.7007284-.0193976.1311448-.0037952.2142172.0446989.2563859l.0320482.0274097h.0421688c.3040366 0 .888917-.4069283 1.8166292-1.0765679a22.99292758 22.99292758 0 0 1 2.5372929-1.6669302c.2837956-.1509641 1.7546412-.9028327 2.8493416-.9028327.2370225-.009618.4725024.0422428.6835553.1505424.3392639.173531.5840726.4886159.6683745.8602423.1775304.8395795-.4765068 1.8132557-.6810251 2.0886176-.1159641.1572894-.3322897.4436151-.6106034.8121698-1.9680149 2.6034979-3.8095237 5.0859715-3.9571143 5.6206711-.0664624.1420271-.0664624.3062265 0 .4482537.0541563.1128985.1575565.1943418.2800004.2205425a.24162994.24162994 0 0 0 .0603013.0063253c.6325311 0 2.7198836-1.5817494 4.4698862-2.9598237.2024099-.1598195.3525307-.277892.4334946-.3373499.5511454-.4132536 3.9457288-2.8991007 4.4947658-3.2554266.5680129-.3685547 2.0240994-1.4442792 2.3905457-1.7331351l.1610846-.1265062c1.9498824-1.5690987 3.2081976-2.3635577 3.7407887-2.3635577a.39554384.39554384 0 0 1 .0421688 0 2.77301088 2.77301088 0 0 1 .7223504.1918677c.1304374.0592089.2695388.097081.4119886.1121689a.27241106.27241106 0 0 0 .095723-.0156025l.1231327-.0442772a6.27809226 6.27809226 0 0 1 .8092181-.2462654 1.87735776 1.87735776 0 0 1 .4153621-.0476507c.233973-.0354409.4713911.0371771.6455056.1974379.1741146.1602608.2661233.3908581.2501584.626961.0029518.6068081-1.1659656 2.566811-1.5505445 3.2107277l-.0392169.0657832-.0215061.0261446c-.0387952.0548194-.3057233.4453019-.3057233.4453019l.1653014.0358434a2.46180498 2.46180498 0 0 0 .5203622.0527109c.745916-.0330208 1.4756599-.2283003 2.1383767-.5722297l.0290965-.0156025a8.77742562 8.77742562 0 0 0 1.249038-.6822902c.0569278-.0379518.1332532-.0843374.2230726-.1366267.6181937-.368133 1.7542195-1.0440979 2.0869308-2.2433768.2698799-.9740979.6894589-2.0928345 1.5454843-2.0928345a1.10313712 1.10313712 0 0 1 .2622895.0333133c.2205168.0428923.393741.2139554.4393982.4339163.1480123.5971094-.3449402 1.566147-.6578323 1.8431956-.3820487.3373499-1.9043402 1.9996415-1.7984966 2.3711481l.0248795.0872893.0902411-.0050603c.2015666-.0105422.5060249-.2740968.8994592-.6658443l.0923495-.0906628c.8778065-.8392058 1.8645546-1.5564668 2.9336791-2.1324731l.1265062-.0640965c.5026396-.2884215 1.0676208-.4508988 1.6466892-.4735549.2434558-.0001005.485638.035126.718977.1045785 2.0755453.6181937 1.9650632 2.178437 1.8212678 2.8206668-.2781567 1.0054059-.7657482 1.9406389-1.4307853 2.7443415 0 0 3.8896444-2.6907872 4.6448865-3.1656071a20.06262264 20.06262264 0 0 0 1.7500026-1.1807247c.0518675-.0442772.1180725-.1066869.1948196-.1787955.3580126-.3373499.957652-.8998808 1.4362672-.8998808.1325532-.0021363.2606511.047831.3567475.1391568.4891574.4550007-.2795787 1.4759058-.6493986 1.968015l-.0227711.0312049c-.0548193.0729519-.0982531.1311447-.1231327.1686749-.0248796.0375302-.1206026.161928-.2736751.3592777-2.9644623 3.8297647-4.3260908 6.1406116-4.1633195 7.0641069.0169379.1328853.091211.2516914.2032533.325121.0525073.0314706.1129741.0471363.1741569.0451205.7409047 0 2.496811-1.7567496 3.7530177-3.0783178.1307231-.1374701.2243377-.2365666.2812655-.2951812 1.127592-1.1305438 2.050244-2.0321115 2.6688594-2.607293.2770486-.256386.4980128-.4550007.7350011-.6683745l.0387952-.0350001c.2757835-.2483739.5798201-.5212056 1.0225919-.9327725.7565071-.7016878 2.6987992-2.0101837 3.7108489-2.0101837.1105122-.0035296.2203431.0185521.3209041.0645182.3156929.2280002.4465444.6347329.3230125 1.0040376a13.23507454 13.23507454 0 0 1-.7446999 1.8731354c-.5747599 1.2650621-.7371095 1.7356652-.5060248 1.8731353l.026988.0160241h.0316265c.392591-.0021084 1.8431955-1.0824715 3.556933-2.3875939 1.3207249-1.0040377 2.3614494-1.750846 2.7865102-2.00175.6560588-.3802118 1.3972058-.5893164 2.1552442-.6080732.311428-.0109523.6210053.0522061.9032544.1842774.4824631.233722.8246695.6833672.9213869 1.2106644.2732534 1.4995204-1.0963872 4.0119337-2.4221723 6.4412747-1.5779542 2.8931971-3.0677757 5.626153-2.267413 7.1404324.3268077.617772 2.3719915 1.6294 7.0299502-1.4337371.1598195-.1050002.3040366-.2032533.4351814-.2892775.7867771-.5082417 1.4696815-1.1615231 2.0122922-1.9250029.1762653-.2365666.2922293-.392591.3968078-.4132537a.59838576.59838576 0 0 1 .1138556-.0126506c.2159039 0 .3103619.1775304.4891573.6143985.2062052.5030731-.6266274 1.0626522-.6620491 1.0866884-.690724.5823503-2.4150036 1.8554245-2.9071128 2.1978346-.1783738.1239761-.3795187.2686149-.5958443.4254826-1.4822311 1.0715076-3.4101858 2.1632562-5.4659118 2.1632562-1.5859662 0-5.4089839-1.3789177-2.0401235-6.9759743 1.7225929-2.8615705 4.7026576-7.5903727 4.3471752-8.8507963-.0318334-.1336715-.1201586-.2469248-.2420486-.3103619l-.0455422-.0231928c-.112529-.0689246-.2412717-.1068928-.3731933-.1100604-1.0580137 0-3.542174 1.6812675-6.9957936 4.7342841-2.6747631 2.3644012-5.1998271 4.9050676-5.504707 5.299767-.0307832.0421687-.059458.0843375-.0889761.1290363-.1487345.2749011-.4045293.4760571-.706748.555784a1.0862653 1.0862653 0 0 1-.3192174.0468073c-.3088102.0111174-.6063603-.1166915-.8109048-.3483138-.1600874-.2129823-.2101177-.4890874-.13494-.7446999.1398314-.3199054.3627474-.5965484.6456034-.801206l.1492774-.1387351c.3942777-.3689765 3.4190412-3.629885 3.8748853-4.3311511.5481935-.8463266 2.009762-3.76609 1.7209061-4.1472953-.0602565-.0761138-.1535156-.1185043-.2504823-.1138556-.6675311 0-2.1990996 1.3747008-4.6807298 4.2021147l-.1265063.1459038c-.8121698.9184351-5.1951884 5.6615747-6.4125999 6.0212741l-.0493374.0143373c-.3240938.1085125-.6620705.1700016-1.003616.1825907-.6165963.0205673-1.1776411-.3543674-1.3945201-.9319291-.5831937-1.2912068 1.6829543-5.1104294 2.3142203-5.9702499.2420485-.3280728.4942176-.6557239.7139167-.9403629.2770486-.360121.5144586-.6679528.5937359-.801206l.014759-.0248795.0050603-.1471689-.1172291-.0223495h-.0265663l-.026988.0113856c-.6978926.3445186-7.8172406 5.0256702-8.1718797 5.5321167-.3976375.5909572-.9032333 1.1015603-1.4902432 1.5050022l-.2433136.1922895a15.4202705 15.4202705 0 0 1-2.2669914 1.506689c-.5638584.2381285-1.166888.3699429-1.7786773.3887957-.2949506.0124906-.5881126-.051575-.8509651-.1859641-.271161-.1502563-.4861849-.3845184-.6127118-.6675311-.0177109-.0350001-.0341567-.0678917-.0476507-.0906628l-.0636748-.107952-.1016266.0737953c-.3376112.4362071-.6234594.9101209-.8518085 1.4122311l-.0581929.109217c-2.777233 5.0307304-4.9716941 7.9648312-7.5730836 10.127244-2.8788597 2.3981361-5.3651285 2.6562088-6.3004311 2.6562088Zm20.5711753-17.8344242c-1.0731943 0-4.3885005 1.7196411-4.7772963 3.0951853-.0154384.0721161.0053465.1472251.0556628.2011449.2297506.2364946.5479228.3661487.8775314.3575909a1.13307443 1.13307443 0 0 0 .3470487-.0527109c1.7192194-.60976 3.5544029-2.3778951 3.7977165-3.1651855.0489284-.1104506.0423518-.237597-.0177108-.3424101-.0748436-.0731544-.1792468-.1076962-.2829523-.0936146Zm-16.3252051 2.3302444h.2277112v-.0025301c.6067478-.0905304 1.1881272-.3059093 1.7074122-.6325311a17.04038066 17.04038066 0 0 0 1.744099-1.5062673c.1522291-.1425303.2854823-.2677715.3951211-.3677114a27.50792187 27.50792187 0 0 0 2.777233-3.0479563l.0603013-.0818074-.075482-.068735c-.3758916-.3595223-.578844-.8634465-.557049-1.3831346.0180314-.578354.1700305-1.1446336.4440368-1.6542796l.0307831-.061988c.1294697-.2879329.2046659-.5972952.2218076-.9125315 0-.0274097 0-.0543977-.0029518-.0801206-.0132401-.0647739-.0557582-.1197515-.1151207-.1488557a.34240913.34240913 0 0 0-.1231327-.0286747h-.0324699a.57812277.57812277 0 0 0-.087711.0071687c-.1880126.0313012-.3618642.1196254-.4980128.2530124-.0025301.0025301-.0421687.0451206-.0645181.0700001-.1906027.2083136-.7940374.8543386-1.2945803 1.3915684l-.6439166.6911456c-.1653015.1783737-1.3392791 1.636147-2.375365 2.9222935l-.0341567.0421687c-.6025912.7484951-1.1292788 1.4029539-1.3135562 1.6256049-.4912658.5941575-1.0213268 1.6353036-1.0217485 2.2813287-.0155809.1961047.0563536.389062.1965063.5271092.1236722.099736.2756756.157881.434338.1661448l.0004217-.0004217Zm20.4029221-9.243809c-.8370495 0-2.197413.5933142-2.9425346 1.1469897a20.53913226 20.53913226 0 0 0-2.5722929 2.2581359c-.2762053.318374-3.0635588 4.2350063-3.7888611 5.2487428-.03247.0451205-.0691568.1113255.0421687.0042169.9222303-.8952423 2.0991598-1.6719905 6.5968773-3.2048241l.03247-.013494c.6687961-.2774703 1.1967487-.4971694 1.4438575-.6211455.8907149-.3865405 1.6120969-1.0814209 2.0316898-1.9570511.2390968-.4638561.6843986-1.3257851.4216874-2.0215693-.1636331-.3743656-.4823747-.6587693-.8728929-.7788566-.1259488-.0439335-.2588239-.0646506-.3921692-.0611447Zm-12.8032722.0780122c-.4537356.9108447-.4908441 1.7731954-.1020483 2.3677746l.094458.1446388.0953013-.1442171c.2487956-.3761451.503073-.752712.5882539-.8741579.0919278-.1340966.1876509-.2703016.2837956-.4065066a10.41568518 10.41568518 0 0 0 .7889771-1.2287971c.1779521-.3715065.2243377-.6283142.1391568-.7632541-.0601197-.0808957-.1587814-.1236384-.258916-.1121689-.4674477.0734301-.9089665.2630874-1.2840381.5515671-.1240476.1100765-.2268177.2420053-.3031932.3892175l-.0417471.0759037Zm26.4773287-5.1066341c-.3905475-.0188037-.7568931-.1947425-1.0157263-.4878061-.2588332-.2930637-.3881537-.6783425-.3585528-1.0682203-.0037952-.64560342.5903623-1.31482129.8471699-1.57247228.2860428-.3375964.66586-.58268713 1.0913269-.70421792.5060249.02403618.6181937.38542227.7008445.64897688.102685.91511035-.0369171 1.84113772-.4048199 2.68530522-.1044664.222695-.2987339.3904366-.5342779.461326a1.49446314 1.49446314 0 0 1-.3263861.0371085h.0004217Z"/>
  </g>
</svg>
