<svg xmlns="http://www.w3.org/2000/svg" xml:space="preserve" style="fill-rule:evenodd;clip-rule:evenodd;stroke-linejoin:round;stroke-miterlimit:2" viewBox="0 0 1062 347">
  <title>optilyz</title>
  <path d="M0 0h46c.026 6.635.052 13.27.078 20.105.025 4.225.052 8.45.082 12.674.048 6.693.092 13.386.111 20.079.015 5.401.05 10.802.097 16.203.015 2.052.023 4.104.024 6.156.013 16.276.98 30.421 12.608 42.935 10.372 9.947 21.545 12.351 35.438 12.125 11.069-.456 20.827-6.026 28.312-14.027 8.024-9.774 10.537-20.416 10.569-32.809.01-.908.02-1.817.03-2.753.031-2.97.048-5.94.065-8.911.019-2.072.038-4.144.059-6.216.051-5.43.091-10.86.128-16.29.047-6.528.109-13.056.168-19.584.088-9.896.158-19.791.231-29.687h46c.068 24.253.123 48.506.155 72.759.016 11.263.037 22.525.071 33.787.03 9.822.05 19.643.056 29.464.004 5.196.013 10.392.035 15.587.021 4.901.027 9.802.022 14.703.001 1.788.007 3.577.019 5.365.067 10.857-.741 20.769-3.358 31.335-.187.759-.373 1.518-.566 2.299C172.15 221.301 163.762 234.53 152 246c-.728.737-1.457 1.475-2.207 2.234-17.555 16.806-42.282 22.499-65.883 22.016C60.729 269.357 40.894 258.109 25 242c-.835-.825-1.671-1.65-2.531-2.5C14.641 231.351 4 216.861 4 205c6.918-.281 13.835-.472 20.758-.604 2.351-.055 4.701-.13 7.05-.226 20.675-.82 20.675-.82 26.026 3.2 1.99 1.858 3.402 3.672 5.034 5.894C66.964 218.52 74.422 221.882 81 223c13.85.749 25.622-.211 37-9 13.01-12.577 14.844-29.843 16-47-1.016.471-2.032.941-3.078 1.426-25.133 11.443-49.629 12.467-75.672 3.387C34.109 163.064 16.522 145.743 7 125 2.473 113.694-.161 103.255-.114 91.047V88.06c.001-3.247.008-6.493.016-9.74.002-2.256.004-4.511.005-6.767.003-5.928.013-11.857.024-17.785.012-7.118.017-14.235.023-21.353C-.037 21.61-.017 10.805 0 0Z" transform="translate(680.7714 76.0701)"/>
  <path d="M0 0c1.356 1.346 2.69 2.714 4.023 4.083.737.74 1.475 1.48 2.234 2.242 16.57 17.533 23.462 40.229 23.236 63.874-.777 26.134-12.273 46.304-30.29 64.747-9.48 8.925-21.842 15.3-34.18 19.137-1.016.318-2.032.637-3.078.965-23.127 6.061-44.499 1.216-65.922-7.965l-1 90h-47c-.045-22.133-.082-44.265-.104-66.397-.01-10.278-.024-20.556-.047-30.834-.02-8.966-.033-17.931-.037-26.896-.003-4.741-.009-9.481-.024-14.222-.013-4.476-.017-8.952-.014-13.427-.001-1.63-.005-3.26-.012-4.889-.038-8.206.187-16.285 1.123-24.443.077-.675.154-1.351.234-2.047 2.834-22.294 14.65-42.867 31.818-57.22 1.667-1.238 3.355-2.446 5.063-3.625 1.442-1.013 1.442-1.013 2.914-2.047 10.667-7.041 23.364-12.162 36.086-13.953.898-.133 1.797-.266 2.723-.403C-46.312-26.238-18.968-18.2 0 0Zm-94.075 37.321c-9.126 11.219-11.924 22.393-10.902 36.762 1.269 7.569 4.777 13.682 9 20 .866 1.33.866 1.33 1.75 2.687 8.953 9.202 20.321 14.168 33.062 14.5 11.753-.192 22.462-4.256 31.063-12.437 8.88-9.637 13.917-20.903 13.406-34.188-1.404-12.792-6.418-22.654-15.722-31.519-18.84-15.043-45.09-13.482-61.657 4.195Z" transform="translate(353.7484 95.9871)"/>
  <path d="M0 0c.658-.002 1.315-.003 1.993-.005 2.219-.004 4.439-.001 6.658.003 1.585-.002 3.17-.004 4.754-.006 4.316-.004 8.632-.003 12.948.001 4.507.002 9.013 0 13.52-.002 7.57-.002 15.139.001 22.708.006C71.346.002 80.11 0 88.874-.005c7.511-.005 15.022-.005 22.533-.003 4.492.002 8.984.002 13.476-.001 4.222-.003 8.444-.001 12.666.005 1.554.001 3.108.001 4.662-.002 2.113-.002 4.225.001 6.338.006 1.777.001 1.777.001 3.591.001 2.634.126 2.634.126 3.634 1.126.49 6.066.657 12.132.79 18.215.056 2.046.138 4.092.246 6.136.927 17.879.927 17.879-3.779 23.549-2.633 2.626-5.492 4.806-8.563 6.892-2.821 2.012-5.243 4.39-7.756 6.77-.989.91-1.98 1.818-2.973 2.723-2.989 2.737-5.977 5.476-8.965 8.215-1 .917-2 1.833-3 2.75-.742.681-15.75 14.437-30 27.5-.495.454-.991.908-1.501 1.376-.996.913-1.992 1.826-2.988 2.738-2.565 2.35-5.128 4.704-7.686 7.062-.526.483-1.051.967-1.592 1.465-1.45 1.333-2.898 2.668-4.346 4.004-2.167 1.955-4.349 3.872-6.567 5.768-.936.8-.936.8-1.89 1.616-.472.403-.944.806-1.43 1.221 1.238.01 2.476.021 3.752.031 11.64.098 23.28.2 34.92.308 5.985.056 11.97.109 17.955.158 5.771.048 11.542.1 17.312.156 2.207.02 4.414.039 6.621.056 3.08.024 6.159.054 9.239.086.922.005 1.844.011 2.794.017 6.293.074 6.293.074 7.407 1.188.098 1.345.128 2.696.13 4.045.003.857.006 1.715.009 2.599-.003 1.398-.003 1.398-.006 2.825.001.95.002 1.901.003 2.88.001 2.015-.001 4.029-.005 6.043-.006 3.095 0 6.189.006 9.284-.001 1.952-.002 3.903-.004 5.855.002.933.004 1.865.006 2.825-.004 1.287-.004 1.287-.009 2.599-.001.759-.002 1.517-.003 2.299-.127 1.746-.127 1.746-1.127 2.746-2.174.099-4.352.126-6.529.127-1.036.002-1.036.002-2.092.005-2.33.004-4.66.001-6.99-.003-1.664.002-3.327.004-4.991.006-4.53.004-9.061.002-13.592-.001-4.731-.002-9.462 0-14.193.002-7.946.002-15.892-.001-23.838-.006-9.2-.005-18.401-.003-27.601.002-7.885.005-15.769.005-23.654.003-4.715-.002-9.431-.002-14.146.001-4.433.003-8.865.001-13.297-.005-1.632-.001-3.263-.001-4.895.002-2.217.002-4.435-.001-6.652-.006-1.244 0-2.488-.001-3.77-.001-2.76-.126-2.76-.126-3.76-1.126-.44-5.943-.571-11.886-.679-17.843-.047-2.004-.115-4.008-.205-6.011-.78-17.523-.78-17.523 3.254-22.866 2.59-2.818 5.513-5.064 8.63-7.28 1.262-1.091 2.515-2.191 3.75-3.313.624-.532 1.248-1.064 1.891-1.613 3.356-2.95 6.601-6.016 9.859-9.074 7.842-7.355 7.842-7.355 11.5-10.5 4.583-3.942 8.957-8.109 13.367-12.242 4.326-4.05 8.699-8.042 13.118-11.992 3.478-3.133 6.914-6.31 10.348-9.491 5.702-5.281 11.438-10.523 17.167-15.775l-92-1C-7.226.002-7.226.002 0 0Z" transform="translate(897.9974 74.9431)"/>
  <path d="M0 0c.928.01 1.856.019 2.812.029 3.035.033 6.07.073 9.106.114 2.117.024 4.234.048 6.351.071 5.548.063 11.097.132 16.645.203 5.671.071 11.342.135 17.013.2 11.111.129 22.221.265 33.331.405.069 12.892.123 25.784.155 38.677.016 5.988.037 11.976.071 17.964.033 5.79.05 11.58.058 17.37.006 2.198.016 4.395.033 6.592.173 24.37-3.152 44.749-18.317 64.397-.553.737-1.106 1.474-1.676 2.234-13.669 16.959-36.209 26.821-57.324 29.766-26.759 2.086-49.978-3.849-70.649-21.227-13.436-11.742-23.023-25.638-28.351-42.773-.478-1.524-.478-1.524-.965-3.078-6.585-25.126-1.108-48.632 11.465-70.536C-68.039 20.89-47.239 7.618-25.055 2.272-16.71.41-8.527-.129 0 0Zm-30.742 53.022c-.887.577-1.774 1.155-2.688 1.75-9.155 8.907-14.08 20.211-14.562 32.875.19 12.671 4.869 22.895 13.375 32.125 8.493 8.078 19.093 12.101 30.687 12.562 13.72-.361 24.762-5.906 34.145-15.754 8.18-10.245 11.085-21.693 10.043-34.558-2.175-12.604-8.419-22.957-18.563-30.688-16.881-11.22-36.205-9.341-52.437 1.688Z" transform="translate(94.5134 75.0481)"/>
  <path d="M0 0h46v43h41v41H46c.098 6.171.201 12.341.317 18.512.038 2.094.073 4.187.105 6.281-.244 21.001-.244 21.001 5.953 40.707.585 1.124 1.17 2.248 1.773 3.406 5.154 8.611 12.657 14.757 22.409 17.481 2.564.643 5.131 1.178 7.724 1.687.888.175 1.775.35 2.69.53.669.131 1.339.261 2.029.396.859 5.319 1.714 10.64 2.563 15.961.29 1.809.581 3.618.874 5.426.42 2.604.836 5.208 1.251 7.812.131.806.262 1.611.397 2.441.605 3.827 1.079 7.47.915 11.36-13.813 4.604-33.449.257-46.266-5.562-20.374-10.712-36.427-29.568-44.171-51.125-.235-.652-.47-1.304-.712-1.975-3.547-10.621-4.142-21.343-4.078-32.46.001-1.371 0-2.742-.001-4.114-.001-3.683.011-7.366.025-11.049.013-3.864.014-7.727.016-11.591.006-7.299.023-14.598.043-21.896.022-8.317.033-16.634.043-24.951C-.08 34.184-.043 17.092 0 0Z" transform="translate(400.7714 33.0701)"/>
  <path d="M0 0h46v237H0z" transform="translate(603.7714 13.0701)"/>
  <path d="M0 0h46v174H0z" transform="translate(517.7714 76.0701)"/>
  <path d="M0 0c5.151 4.096 8.683 9.088 9.957 15.645.83 8.753.266 15.763-5 23-5.134 5.681-10.518 9.512-18.199 10.347-9.211.389-15.849-1.033-22.863-7.144-5.619-5.853-7.972-12.092-8.375-20.141.239-7.327 3.07-14.978 8.437-20.062C-24.138-6.478-12.588-8.352 0 0Z" transform="translate(557.8144 5.4256)"/>
</svg>
