<svg xmlns="http://www.w3.org/2000/svg" xml:space="preserve"  viewBox="0 0 441 440">
  <title>TVN</title>
  <path d="M220.16634864.0002696c121.51118912 0 220.16401532 98.5636704 220.16401532 219.96900224 0 121.4036928-98.6528262 219.96900224-220.16401532 219.96900224-121.51281988 0-220.16564608-98.56530944-220.16564608-219.96900224C.00070256 98.56394 98.65352876.0002696 220.16634864.0002696Zm-67.15143528 174.32337728c0 2.9994432 0 2.9994432.856149 5.31540672 5.20701668 12.93366464 5.20701668 12.93366464 9.99166652 26.03287232 2.77881504 7.53302784 5.54947628 15.06933376 8.37558336 22.58269312.60011968 1.59970304 1.20187012 3.19940608 1.80035904 4.79747008 1.1333782 3.02075072 1.1333782 3.02075072 4.66071208 12.42720128l1.15947036 3.09286848c.71916516 1.9176768 1.43669956 3.83371456 2.15586472 5.75139136 1.7449132 4.589312 3.4327498 9.1868192 4.98034104 13.84660992.70774984 2.15205952.70774984 2.15205952 3.02016752 9.15239936h31.0007476c1.1089168-2.21926016 1.96832732-4.4991648 2.83915316-6.82004544l.75341112-2.02257536c3.66757924-9.80801536 3.66757924-9.80801536 10.90652288-29.65678976 4.79769592-13.15165696 9.63126856-26.28528448 14.59040972-39.37629696.611535-1.6144544 1.22143924-3.2289088 1.82808196-4.84500224l.8316876-2.21598208.87897964-2.29957312.856149-2.28973888c1.26546976-3.34855872 1.26546976-3.34855872 3.51591856-13.4729088H229.0148524c-2.11346496 7.54122304-4.28726804 15.01524544-6.85245352 22.41715008l-.67024236 1.92259392c-1.12848592 3.237104-2.2586026 6.474208-3.41154992 9.70475584l-.67350388 1.88653504-1.28177736 3.6386688c-1.24916216 3.49771136-2.14608016 6.65778048-2.74130756 10.33086912l-.36855176 3.09942464h-1.99931176c0-3.64522496-.57239676-6.18901504-1.70251344-9.60969152l-.74688808-2.19959168c-.52347396-1.56856128-1.04857868-3.13712256-1.57205264-4.70568384-.82842608-2.44708672-1.65685216-4.8925344-2.47549368-7.34453824-.53325852-1.59970304-1.0681478-3.20104512-1.60466784-4.80074816l-.78602632-2.335632c-2.32872528-6.96264192-2.32872528-6.96264192-8.113031-22.004112h-41.00056792Zm180.3131332-2.43725248c-11.33867428-.1475136-20.23283932 3.1387616-26.74935628 12.81237568l-1.56226808 2.62410304-1.00128664-12.99922624h-37.00031364v102.99891264h40.00091204c.09132256-7.39862656.1793836-14.79725312.2772292-22.19587968.0652304-4.86958784.13209156-9.74081472.19079892-14.6120416.04729204-4.05826304.0978456-8.11816512.15329144-12.17642816.02119988-1.54233664.04239976-3.08631232.06196888-4.62864896.0244614-2.22417728.0489228-4.44671552.081538-6.6708928l.02935368-2.0406048c.02935368-2.22581632.08806104-4.45163264.20547576-6.67417088 1.19697784-3.5894976 1.90146616-4.80894336 4.99991016-7.00033984 3.40339612-.56382976 6.62740864-.76707072 9.99982032 0 2.42657088 2.38316416 2.976137 3.80748992 3.39850384 7.21341504l.03424596 3.85010496c.0326152 2.23073344.06033812 4.46146688.07012268 6.69220032.00652304 1.59478592.01793836 3.1879328.03424596 4.78107968.05055356 4.17463488.09132256 8.3509088.11741472 12.52554368.03098444 5.1793664.08316876 10.3587328.13698384 15.5380992.03424596 3.26332864.0652304 6.52665728.09621484 9.78998592l.11252244 15.60857792h40.00091204c.0163076-8.87867968.03587672-17.75572032.04566128-26.6344.00652304-5.84809472.00978456-11.69782848.02283064-17.5459232.01141532-4.87122688.02119988-9.74245376.0244614-14.61368064.00163076-1.85375424.00163076-3.70750848.00489228-5.56126272.00652304-2.66671808.01467684-5.3350752.0163076-8.00179328l-.00163076-2.45528192c.03913824-8.17225344-.36039796-13.9892064-5.98815072-20.28475904-7.74774076-7.16424384-14.77142408-10.01781248-25.28330304-10.31283968l-2.52930876-.02622464ZM84.015827 139.32358672v34.00024576H68.01480988c-.13698384 2.65852288-.27396768 5.3186848-.40442848 7.98048576l-.15818372 3.26824576-.16959904 3.22399168-.1467684 3.10434176c-.1793836 3.60097088-.01467684 5.84973376.87897964 9.42284096h17.000673c-.12393776 6.55779904-.22667564 13.11559808-.2935368 19.67503616-.0244614 2.69130368-.0489228 5.38260736-.081538 8.07391104-.07664572 3.94353024-.15166068 7.8837824-.18590664 11.82731264l-.0244614 3.78290432-.09458408 3.5894976c-.00326152 9.10978432 2.12488028 17.3984096 8.6756432 24.08897088 7.71838708 6.474208 16.38587648 7.32814784 26.1655442 7.32323072 2.0221424-.02622464 4.04102328-.0491712 6.06316568-.04589312 6.88669948.02294656 12.1654696-.11309376 18.77493988-2.31596352V248.3230248l-7.8113404.24913408c-2.87502988.1311232-5.28855468.0491712-8.18804596-.24913408-1.96180428-2.00126784-2.8864452-3.38625664-3.39850384-6.15131712l-.03424596-2.34218816-.06033812-2.66835712-.01793836-2.85356864c-.0570766-3.02894592-.10926092-6.0562528-.14187612-9.08519872-.02283064-2.1061664-.05218432-4.21397184-.08479952-6.32013824-.1059994-6.19393216-.18916816-12.38622528-.26255236-18.5785184h21.00092728v-26.99990592h-21.00092728v-34.00024576H84.015827Z"/>
</svg>
