<svg xmlns="http://www.w3.org/2000/svg" xml:space="preserve" style="fill-rule:evenodd;clip-rule:evenodd;stroke-linejoin:round;stroke-miterlimit:2" viewBox="0 0 3006 727"><path d="M4587.45 2719.41h3622.24v2250.71H4587.45z" style="fill:none" transform="matrix(1 0 0 1.10202 -4895.99 -3764.557)"/><path d="M2630.8468624-.00504629h24.6063v248.72119725c13.9763784-8.36616611 26.4763788-17.61816158 37.401576-27.95283736 10.9251972-10.2362503 20.3740164-21.06305351 28.2480324-32.48040962 7.874016-11.31893062 14.4685044-23.03156318 19.9803156-35.03947219 5.5118112-12.007909 10.1377956-24.21266898 14.0748036-36.41742895h122.047248c-5.2165356 17.51973609-12.4015752 34.44891928-21.653544 50.88597505-9.1535436 16.3386303-20.5708668 31.69300575-34.0551192 45.8662754-13.5826776 14.27169513-29.4291348 26.87015704-47.6377968 38.09066218-18.1102368 11.12207965-38.1889776 19.78352222-60.039372 25.8859022v7.18506031c28.4448828-4.72442321 51.7716552-5.21655063 69.881892-1.27953128 18.208662 3.93701934 32.5787412 11.02365417 43.307088 21.35832995 10.7283468 10.2362503 18.9960636 22.73628673 24.6063 37.4016838 5.7086616 14.66539707 10.334646 30.31504897 13.779528 46.94895571l14.4685044 74.1143892H2765.00041l-6.4960632-50.5906986c-2.6574804-16.14177932-5.905512-30.80717639-9.84252-43.89776572-3.937008-13.18901481-10.6299216-23.62211608-20.0787408-31.49615477-9.350394-7.8740387-23.7204732-11.81105805-42.9133872-11.81105805h-30.2165364v137.79567715h-103.6417356V26.96353624l79.0354356-26.96858253ZM-.0587336 463.28370537V30.2115772h177.8543364c26.6732292 0 50.4921276 2.36221161 71.4566952 7.18506031 21.0629928 4.8228487 38.9763792 11.90948353 53.8385844 21.35832996 14.8622052 9.35042095 26.2795284 21.16147899 34.1535444 35.43317412 7.874016 14.17326965 11.811024 30.7087509 11.811024 49.50801829 0 17.5197361-3.6417324 33.07096251-10.826772 46.65367926-7.2834648 13.48429126-18.700788 24.60637092-34.44882 33.07096251-15.748032 8.56301708-36.5157492 13.8779932-62.4015768 16.14177933v7.1850603c43.799214 2.16536065 75.5905536 12.30318546 95.472444 30.51189994 19.9803156 18.110289 29.9212608 42.32295798 29.9212608 72.53958147 0 25.2953493-6.6929136 46.35840281-20.0787408 62.89388407-13.287402 16.63390674-32.6771664 29.23236865-58.070868 37.79538573-25.2952764 8.4645916-56.7913404 12.79531288-94.488192 12.79531288H-.0587336Zm104.330712-84.64591596h85.3346484c23.622048 0 41.6338596-4.03544483 54.13386-12.1063345 12.4015752-8.16931514 18.700788-19.8819477 18.700788-35.13789767 0-17.12603415-7.1850396-29.92134703-21.3582684-38.38593863-14.1732288-8.56301708-35.7283476-12.79531288-64.6653564-12.79531288h-72.1456716v98.42548368Zm0-168.01230063h60.3346476c26.6732292 0 46.8503952-4.13387032 60.4330728-12.50003643 13.4842524-8.26774063 20.2755912-20.76777705 20.2755912-37.30325831 0-15.74807739-6.1023624-27.46070995-18.3070872-35.13789767-12.30315-7.67718773-30.7086624-11.5157816-55.118112-11.5157816h-67.6181124v96.456974ZM503.189314 472.43727535c-38.877954 0-67.8149628-13.2874403-86.614176-40.05917186-18.7992132-26.67330607-28.1496072-67.5198818-28.1496072-122.63815265v-192.913948h106.299216V305.1139531c0 27.1654335 3.937008 46.65367927 11.811024 58.36631182 7.874016 11.81105804 19.3897644 17.81501255 34.7440956 17.81501255 10.0393704 0 19.192914-2.65748806 27.559056-7.97246418 8.2677168-5.21655063 15.5511816-13.09058933 21.653544-23.5236906 6.1023624-10.53152675 10.7283468-23.5236906 13.779528-39.07491702 3.0511812-15.55122642 4.6259844-33.56308993 4.6259844-54.13401602V116.82600284h106.299216v346.45770253h-88.58268l-.6889764-126.67359749h-7.1850396c-3.5433072 31.49615478-9.9409452 57.2836315-19.3897644 77.46085565-9.4488192 20.07879867-22.0472448 34.84262122-38.0905524 44.29146765-15.9448824 9.35042095-35.3346468 14.07484417-58.070868 14.07484417Zm398.3267844 0c-23.2283472 0-44.4881904-2.16536064-63.97638-6.49608192-19.4881896-4.42914677-36.5157492-11.4173561-51.181104-21.0630535-14.6653548-9.6456974-25.8858276-21.94888287-33.7598436-37.10640735-7.874016-15.059099-11.811024-33.07096252-11.811024-54.13401602l88.58268-15.6496519c1.2795276 12.20475997 5.1181104 22.8347122 11.4173232 31.79143122 6.397638 8.95671901 14.8622052 15.74807739 25.590552 20.27564963 10.7283468 4.62599774 24.0157488 6.98820935 39.7637808 6.98820935 14.8622052 0 27.1653552-2.4606371 37.0078752-7.2834858s14.76378-12.40161094 14.76378-22.9331377c0-6.10237998-2.0669292-11.02365416-6.2007876-14.76382254-4.1338584-3.74016838-11.1220476-7.18506031-20.9645676-10.53152676-9.84252-3.24804096-23.5236228-7.08663482-41.0433084-11.4173561-20.5708668-4.8228487-39.6653556-10.03939934-57.3818916-15.45280094-17.716536-5.51182709-33.2677176-12.1063345-46.6535448-20.07879867-13.287402-7.8740387-23.622048-17.81501254-30.8070876-29.82292155-7.1850396-12.00790901-10.826772-27.26385898-10.826772-45.57099894 0-23.22841415 6.2007876-43.11036185 18.700788-59.7442686 12.5000004-16.63390673 30.1181112-29.42921961 52.8543324-38.38593863 22.7362212-8.95671901 49.2126-13.48429126 79.3307112-13.48429126 27.559056 0 52.7559072 4.13387031 75.4921284 12.20475998 22.7362212 8.07088966 41.0433084 20.76777705 54.8228364 38.09066218 13.779528 17.22445964 20.177166 39.66546992 19.2913392 67.22460535l-88.58268 15.059099c0-11.81105804-2.5590552-21.85045738-7.874016-30.118198-5.2165356-8.36616612-12.6968508-14.66539707-22.2440952-19.09454384-9.6456696-4.33072128-21.2598432-6.49608192-34.8425208-6.49608192-15.255906 0-27.1653552 2.55906258-35.7283476 7.8740387-8.5629924 5.21655063-12.795276 12.20475997-12.795276 20.96462802 0 6.5945074 2.7559056 12.10633449 8.1692916 16.73233222 5.5118112 4.62599773 13.6811028 8.56301708 24.6063 11.81105804 10.9251972 3.24804096 25.0000008 6.6929329 42.0275604 10.13782482 15.748032 3.54331741 31.6929144 7.57876224 47.9330724 12.20475998 16.1417328 4.52757224 31.2007884 10.92522868 45.275592 18.99611834 13.9763784 8.07088967 25.1968512 18.60241642 33.7598436 31.49615478 8.5629924 12.89373836 12.795276 29.42921962 12.795276 49.50801829 0 21.85045737-6.0039372 41.04342669-18.0118116 57.48048246-12.1062996 16.3386303-29.52756 28.9370922-52.5590568 37.69696025-22.9330716 8.75986805-51.2795292 13.09058933-84.9409476 13.09058933Zm164.6653596-9.15356998v-88.5829353l166.7322888-167.32332225v-5.90552902h-163.385832v-84.64591596h290.6496156v89.1734882l-167.32284 167.32332225v4.62599773h169.291344v85.33489435H1066.181458Zm402.9527688-151.47681938c1.968504 25.78747673 8.1692916 45.17729701 18.700788 58.26788634 12.8937012 16.2402048 31.5944892 24.31109447 56.102364 24.31109447 10.9251972 0 19.9803156-1.37795678 27.1653552-3.93701935 7.2834648-2.65748806 13.1889768-6.49608192 17.716536-11.5157816 4.6259844-5.01969966 7.874016-11.02365416 9.84252-18.0118635 1.968504-6.98820934 3.2480316-14.66539707 3.6417324-22.9331377l95.7677196 9.84254837c-.3937008 14.86224803-3.1496064 29.62607058-8.1692916 44.29146765-5.0196852 14.56697159-13.4842524 27.95283737-25.2952764 39.96074637-11.811024 12.00790901-27.6574812 21.7520319-47.5393716 29.23236865-19.8818904 7.38191128-44.29134 11.12207966-73.1299236 11.12207966-31.98819 0-59.05512-4.42914677-81.3976404-13.48429126-22.3425204-8.95671902-40.5511824-21.35832996-54.8228364-37.30325832-14.1732288-16.04335383-24.6063-34.64577025-31.1023632-55.80724924-6.5944884-21.25990447-9.84252-44.09461669-9.84252-68.60256212 0-25.78747672 3.3464568-50.19699667 10.1377956-73.13013437 6.7913388-23.03156318 17.1259848-43.11036185 31.2007884-60.43324698 13.9763784-17.22445964 31.6929144-30.90560187 53.149608-40.9450012 21.3582684-10.03939934 46.5551196-15.15752449 75.3937032-15.15752449 29.3307096 0 54.625986 4.92127418 75.787404 14.76382255 21.2598432 9.84254837 38.385828 23.91739253 51.5748048 42.02768153 13.0905516 18.20871448 21.8503944 39.46861895 26.1811032 63.97656439 4.429134 24.50794543 4.6259844 51.1812515.6889764 80.1183437l-221.7519756 3.34646645Zm2.46063-57.18520601 124.8031536-2.26378613c-.3937008-7.48033675-1.5748032-14.27169513-3.2480316-20.37407512-3.937008-13.77956771-10.6299216-24.21266898-20.0787408-31.20087832-9.350394-6.98820934-21.2598432-10.43310127-35.7283476-10.43310127-15.748032 0-28.7401584 4.13387031-39.0748044 12.40161094-10.2362208 8.36616612-17.8149612 20.17722416-22.637796 35.43317413-1.5748032 5.11812515-2.952756 10.62995223-4.0354332 16.43705577Zm300.688986 208.66202539-82.677168-346.45770253h112.204728l40.6496076 259.1542985h5.905512l47.244096-259.1542985h120.078744l46.5551196 259.1542985h6.5944884l42.6181116-259.1542985h106.299216l-81.9881916 346.45770253H1995.315346l-38.6811036-241.43771145h-5.905512l-39.37008 241.43771145h-139.0748076Zm601.6732476 9.15356998c-23.2283472 0-44.4881904-2.16536064-63.97638-6.49608192-19.4881896-4.42914677-36.5157492-11.4173561-51.181104-21.0630535-14.6653548-9.6456974-25.8858276-21.94888287-33.7598436-37.10640735-7.874016-15.059099-11.811024-33.07096252-11.811024-54.13401602l88.58268-15.6496519c1.2795276 12.20475997 5.1181104 22.8347122 11.4173232 31.79143122 6.397638 8.95671901 14.8622052 15.74807739 25.590552 20.27564963 10.7283468 4.62599774 24.0157488 6.98820935 39.7637808 6.98820935 14.8622052 0 27.1653552-2.4606371 37.0078752-7.2834858s14.76378-12.40161094 14.76378-22.9331377c0-6.10237998-2.0669292-11.02365416-6.2007876-14.76382254-4.1338584-3.74016838-11.1220476-7.18506031-20.9645676-10.53152676-9.84252-3.24804096-23.5236228-7.08663482-41.0433084-11.4173561-20.5708668-4.8228487-39.6653556-10.03939934-57.3818916-15.45280094-17.716536-5.51182709-33.2677176-12.1063345-46.6535448-20.07879867-13.287402-7.8740387-23.622048-17.81501254-30.8070876-29.82292155-7.1850396-12.00790901-10.826772-27.26385898-10.826772-45.57099894 0-23.22841415 6.2007876-43.11036185 18.700788-59.7442686 12.5000004-16.63390673 30.1181112-29.42921961 52.8543324-38.38593863 22.7362212-8.95671901 49.2126-13.48429126 79.3307112-13.48429126 27.559056 0 52.7559072 4.13387031 75.4921284 12.20475998 22.7362212 8.07088966 41.0433084 20.76777705 54.8228364 38.09066218 13.779528 17.22445964 20.177166 39.66546992 19.2913392 67.22460535l-88.58268 15.059099c0-11.81105804-2.5590552-21.85045738-7.874016-30.118198-5.2165356-8.36616612-12.6968508-14.66539707-22.2440952-19.09454384-9.6456696-4.33072128-21.2598432-6.49608192-34.8425208-6.49608192-15.255906 0-27.1653552 2.55906258-35.7283476 7.8740387-8.5629924 5.21655063-12.795276 12.20475997-12.795276 20.96462802 0 6.5945074 2.7559056 12.10633449 8.1692916 16.73233222 5.5118112 4.62599773 13.6811028 8.56301708 24.6063 11.81105804 10.9251972 3.24804096 25.0000008 6.6929329 42.0275604 10.13782482 15.748032 3.54331741 31.6929144 7.57876224 47.9330724 12.20475998 16.1417328 4.52757224 31.2007884 10.92522868 45.275592 18.99611834 13.9763784 8.07088967 25.1968512 18.60241642 33.7598436 31.49615478 8.5629924 12.89373836 12.795276 29.42921962 12.795276 49.50801829 0 21.85045737-6.0039372 41.04342669-18.0118116 57.48048246-12.1062996 16.3386303-29.52756 28.9370922-52.5590568 37.69696025-22.9330716 8.75986805-51.2795292 13.09058933-84.9409476 13.09058933Zm631.2008076-229.134526v219.98095602h-105.6102396V116.82600284h105.6102396v99.60658947h-53.0511828l53.0511828 26.87015705Z"/><path d="M14880.9 1635.51c-12 0-22.8-2.77-32.3-8.33-9.6-5.55-17.1-13.11-22.6-22.66-5.4-9.55-8.2-20.33-8.2-32.33s2.8-22.73 8.2-32.21c5.5-9.48 13-16.96 22.6-22.44 9.5-5.48 20.3-8.22 32.3-8.22 8.6 0 16.6 1.52 24 4.55 7.4 3.04 13.8 7.19 19.2 12.44 5.4 5.26 9.3 11.52 11.7 18.78l-25.6 11.11c-2.2-6.08-5.9-10.96-11.2-14.67-5.2-3.7-11.3-5.55-18.1-5.55-6.4 0-12 1.55-17 4.66-4.9 3.11-8.8 7.41-11.6 12.89-2.9 5.48-4.3 11.78-4.3 18.88 0 7.11 1.4 13.41 4.3 18.89 2.8 5.48 6.7 9.78 11.6 12.89 5 3.11 10.6 4.66 17 4.66 7 0 13.1-1.85 18.2-5.55 5.2-3.71 8.9-8.67 11.1-14.89l25.6 11.55c-2.4 6.82-6.2 12.93-11.6 18.33-5.3 5.41-11.7 9.63-19.1 12.67-7.4 3.03-15.4 4.55-24.2 4.55Zm129.3 0c-11.8 0-22.6-2.74-32.3-8.22-9.7-5.48-17.4-12.96-23.1-22.44-5.7-9.48-8.6-20.29-8.6-32.44 0-12.14 2.9-22.95 8.6-32.43 5.7-9.48 13.4-16.96 23-22.44s20.4-8.22 32.4-8.22c11.9 0 22.6 2.74 32.2 8.22 9.7 5.48 17.3 12.92 23 22.33 5.7 9.4 8.6 20.25 8.6 32.54 0 12.15-2.9 22.96-8.7 32.44-5.8 9.48-13.5 16.96-23.1 22.44-9.6 5.48-20.3 8.22-32 8.22Zm0-26.66c6.5 0 12.3-1.55 17.2-4.66 5-3.11 8.9-7.45 11.8-13 2.9-5.56 4.4-11.81 4.4-18.78 0-7.1-1.5-13.36-4.4-18.77-2.9-5.41-6.8-9.7-11.8-12.89-4.9-3.18-10.7-4.77-17.2-4.77-6.6 0-12.5 1.59-17.5 4.77-5.1 3.19-9 7.48-11.9 12.89-2.9 5.41-4.3 11.67-4.3 18.77 0 6.97 1.4 13.22 4.3 18.78 2.9 5.55 6.8 9.89 11.9 13 5 3.11 10.9 4.66 17.5 4.66Zm79.1 24v-120.87h27.3v28l-3.1-4.67c2.3-8.74 6.7-15.25 13.4-19.55 6.6-4.3 14.5-6.44 23.5-6.44 9.9 0 18.7 2.59 26.2 7.77 7.6 5.19 12.5 12 14.7 20.44l-8.2.67c3.7-9.63 9.2-16.85 16.6-21.66 7.4-4.82 16-7.22 25.6-7.22 8.6 0 16.2 1.92 23 5.77 6.7 3.85 12 9.22 15.9 16.11 3.8 6.89 5.7 14.85 5.7 23.89v77.76h-29.1v-70.88c0-5.33-.9-9.92-2.8-13.77-2-3.85-4.6-6.85-8-9-3.5-2.15-7.6-3.22-12.5-3.22-4.6 0-8.7 1.07-12.2 3.22-3.6 2.15-6.3 5.15-8.2 9-2 3.85-2.9 8.44-2.9 13.77v70.88h-29.1v-70.88c0-5.33-1-9.92-2.9-13.77-1.9-3.85-4.6-6.85-8.1-9-3.5-2.15-7.6-3.22-12.3-3.22-4.6 0-8.7 1.07-12.3 3.22-3.5 2.15-6.3 5.15-8.2 9-1.9 3.85-2.9 8.44-2.9 13.77v70.88h-29.1Z" style="fill-rule:nonzero" transform="translate(-18146.294 -1539.38146862) scale(1.38517)"/><circle cx="10704.8" cy="1371.82" r="52.821" style="opacity: 0.48" transform="matrix(.696093 0 0 .671557 -5144.304 -282.559507)"/></svg>
