<svg xmlns="http://www.w3.org/2000/svg" viewBox="0 0 160 40">
  <title>Buszewski.studio</title>
  <g transform="translate(-720 -20)">
    <path id="Combined-Shape" d="M859.837141 20h1.307867v13.2199579c.742868-.4446761 1.407265-.9364355 1.987958-1.4857412.580693-.5440743 1.082914-1.1195374 1.501431-1.7263895.418518-.6016205.769026-1.224167 1.061988-1.862408.292962-.6382409.538841-1.2869448.7481-1.9356487h6.48702c-.277267.931204-.659165 1.8310191-1.150923 2.7046767-.486526.8684262-1.093376 1.6845376-1.810087 2.4378712-.721943.758565-1.564209 1.4281949-2.532031 2.024584-.96259.5911575-2.02981 1.0515281-3.191196 1.37588v.3818983c1.511895-.2511112 2.751753-.2772686 3.714343-.0680093.967821.2092593 1.731616.5859261 2.301846 1.1352318.57023.5440743 1.009673 1.2084726 1.307867 1.9879636.303425.779491.549304 1.6112968.732405 2.4954175l.769026 3.9393068h-6.105123l-.345277-2.6889824c-.14125-.8579632-.313888-1.6374542-.523147-2.3332414-.209259-.7010188-.564998-1.255556-1.067219-1.6740746-.49699-.4185187-1.260784-.627778-2.28092-.627778h-1.606061v7.3240764h-5.508736V21.4334264L859.837141 20ZM720 44.6245911V21.6060653h9.453263c1.417728 0 2.683743.1255556 3.798046.3818983 1.119534.2563427 2.071661.6330094 2.861613 1.1352318.789951.4969909 1.396802 1.1247689 1.815319 1.883334.418517.7533335.627776 1.6322227.627776 2.631436 0 .931204-.193564 1.7577783-.575461 2.479723-.387129.7167132-.993979 1.3078707-1.831014 1.7577783-.837035.455139-1.940875.7376391-3.316751.8579632v.3818983c2.328003.1150926 4.017768.6539354 5.074524 1.6217598 1.061988.9625929 1.590366 2.2495377 1.590366 3.855603 0 1.3444912-.355739 2.4640286-1.067219 3.3429177-.706248.8841207-1.736847 1.5537505-3.086566 2.0088896-1.344488.4499075-3.018557.6800928-5.02221.6800928H720Zm5.545356-4.4990755h4.535683c1.255552 0 2.212911-.2144908 2.877307-.6434724.659165-.4342131.993979-1.0567596.993979-1.8676395 0-.9102781-.381897-1.5903709-1.135228-2.0402784-.753332-.4551391-1.899023-.6800928-3.437075-.6800928h-3.834666v5.2314831Zm0-8.9301417h3.20689c1.417728 0 2.490179-.2197223 3.212121-.6643984.716712-.4394445 1.077683-1.1038429 1.077683-1.9827321 0-.8370373-.324351-1.4595838-.973053-1.8676394-.653934-.4080557-1.632218-.6120836-2.929622-.6120836h-3.594019v5.1268535Zm21.20314 13.9157451c-2.06643 0-3.604481-.7062502-4.603692-2.1292136-.99921-1.417732-1.4962-3.5887975-1.4962-6.518428V26.2097705h5.649986v10.0078272c0 1.4438893.209259 2.479723.627776 3.1022695.418517.627778 1.030599.9468984 1.846708.9468984.53361 0 1.020137-.14125 1.464811-.4237501.439444-.2772686.826572-.6957873 1.150923-1.2503245.324351-.5597687.57023-1.2503244.732406-2.0768988.162175-.8265743.245879-1.7839357.245879-2.8773157v-7.428706h5.649985v18.4148206h-4.708321l-.03662-6.7329188h-.381897c-.188333 1.6740746-.528379 3.0447232-1.0306 4.1171772-.502221 1.0672226-1.171848 1.851945-2.024578 2.3541674-.847498.4969909-1.878097.7481021-3.086566.7481021Zm21.171751 0c-1.234626 0-2.364623-.1150926-3.400454-.3452779-1.035831-.2354167-1.940875-.606852-2.720363-1.1195374-.779489-.5126853-1.375876-1.1666207-1.794394-1.9722691-.418517-.8004169-.627776-1.7577783-.627776-2.8773157l4.708321-.8318058c.068009.6487039.272037 1.213704.606851 1.689769.340045.476065.789951.8370373 1.360181 1.0776855.57023.2458797 1.276478.3714353 2.113513.3714353.789952 0 1.443886-.130787 1.967032-.3871297.523147-.2563427.784721-.6591669.784721-1.2189356 0-.3243519-.109861-.5859261-.329583-.7847225-.219722-.1987963-.591156-.3818982-1.114303-.5597687-.523146-.1726389-1.250321-.3766667-2.181522-.606852-1.093377-.2563427-2.108281-.5336113-3.049946-.8213428-.941664-.2929631-1.768236-.6434725-2.479716-1.0672226-.706248-.4185187-1.255552-.9468984-1.637449-1.5851394-.381897-.6382409-.575462-1.4491208-.575462-2.4221767 0-1.23463.329583-2.2913896.993979-3.1755102.664397-.8841207 1.60083-1.5642135 2.809299-2.0402785 1.208469-.4760649 2.615734-.7167131 4.216563-.7167131 1.464811 0 2.804067.2197222 4.012536.6487039 1.208469.4289816 2.181522 1.1038429 2.913928 2.0245839.732405.9155096 1.072451 2.1082877 1.025367 3.573103l-4.708321.8004169c0-.6277779-.136018-1.1613892-.418517-1.6008338-.277268-.4446761-.67486-.779491-1.182312-1.0149077-.512684-.2301853-1.129997-.3452779-1.85194-.3452779-.810877 0-1.443885.1360185-1.899023.4185186-.455137.2772686-.680091.6487039-.680091 1.1143059 0 .3505094.146482.6434725.434212.8893522.292963.2458797.727174.455139 1.307867.6277779.580693.172639 1.328793.3557409 2.233837.5388428.837035.1883334 1.684533.4028242 2.547725.6487039.857961.2406482 1.658376.5806946 2.406475 1.0096763.742869.4289816 1.339256.9887503 1.794394 1.6740746.455138.6853242.680091 1.5642134.680091 2.631436 0 1.1613892-.31912 2.1815284-.957359 3.0551861-.64347.8684262-1.56944 1.5380561-2.793604 2.003658-1.218932.465602-2.725595.6957873-4.514757.6957873Zm8.752246-.4865279v-4.7083348l8.862107-8.8935214v-.3138889h-8.684237v-4.4990755h15.448525v4.7397237l-8.893495 8.8935213v.2458797h8.998125v4.5356959h-15.731025Zm21.417631-8.0512526c.104629 1.3706486.434211 2.4012508.993978 3.0970381.685323.8631947 1.679302 1.2921763 2.981937 1.2921763.580693 0 1.061988-.0732408 1.443885-.2092593.387129-.1412501.701017-.3452779.941665-.6120836.245879-.2668056.418517-.5859261.523147-.9573614.104629-.3714353.172638-.779491.193564-1.2189355l5.090218.5231483c-.020926.7899539-.167407 1.5746764-.434212 2.3541674-.266804.7742595-.716711 1.4857412-1.344487 2.1239821-.627776.638241-1.470042 1.1561578-2.526799 1.5537505-1.056757.3923612-2.354161.5911576-3.886981.5911576-1.700227 0-3.138881-.2354167-4.326424-.7167132-1.187543-.4760649-2.155365-1.1352318-2.913928-1.9827321-.753331-.8527317-1.307867-1.841482-1.653143-2.9662509-.350509-1.1300004-.523147-2.3437045-.523147-3.6463438 0-1.3706485.17787-2.6680564.538841-3.8869919.360971-1.2241671.910275-2.2913896 1.658375-3.2121307.742869-.9155095 1.684533-1.6426857 2.824993-2.1762969 1.135229-.5336113 2.474484-.8056484 4.007305-.8056484 1.558977 0 2.903464.2615741 4.02823.7847224 1.129997.5231483 2.040273 1.2712504 2.741289 2.2338433.695786.9678244 1.161386 2.0978248 1.391571 3.4004641.235416 1.3026393.245879 2.7203712.03662 4.2584272l-11.786497.1778704Zm.130786-3.0394917 6.633502-.1203241c-.020926-.3975927-.083704-.758565-.172639-1.082917-.209258-.7324076-.564998-1.2869448-1.067219-1.6583801-.49699-.3714353-1.129997-.5545372-1.899023-.5545372-.837035 0-1.527589.2197223-2.076893.6591668-.544073.4446761-.946896 1.0724541-1.203238 1.883334-.083703.2720371-.156944.5650001-.21449.8736576Zm15.982135 11.0907443-4.394433-18.4148206h5.963874l2.160596 13.774495h.313888l2.511105-13.774495h6.382391l2.474484 13.774495h.350508l2.265226-13.774495h5.649986l-4.357813 18.4148206h-7.465305l-2.055967-12.8328281h-.313888l-2.092588 12.8328281h-7.392064Zm31.979964.4865279c-1.234626 0-2.364623-.1150926-3.400454-.3452779-1.035831-.2354167-1.940875-.606852-2.720363-1.1195374-.779489-.5126853-1.375876-1.1666207-1.794394-1.9722691-.418517-.8004169-.627776-1.7577783-.627776-2.8773157l4.708321-.8318058c.068009.6487039.272037 1.213704.606851 1.689769.340045.476065.789951.8370373 1.360181 1.0776855.57023.2458797 1.276478.3714353 2.113513.3714353.789952 0 1.443886-.130787 1.967032-.3871297.523147-.2563427.784721-.6591669.784721-1.2189356 0-.3243519-.109861-.5859261-.329583-.7847225-.219722-.1987963-.591156-.3818982-1.114303-.5597687-.523146-.1726389-1.250321-.3766667-2.181522-.606852-1.093377-.2563427-2.108281-.5336113-3.049946-.8213428-.941664-.2929631-1.768236-.6434725-2.479716-1.0672226-.706248-.4185187-1.255552-.9468984-1.637449-1.5851394-.381897-.6382409-.575462-1.4491208-.575462-2.4221767 0-1.23463.329583-2.2913896.993979-3.1755102.664397-.8841207 1.60083-1.5642135 2.809299-2.0402785 1.208469-.4760649 2.615734-.7167131 4.216563-.7167131 1.464811 0 2.804067.2197222 4.012536.6487039 1.208469.4289816 2.181522 1.1038429 2.913928 2.0245839.732405.9155096 1.072451 2.1082877 1.025367 3.573103l-4.708321.8004169c0-.6277779-.136018-1.1613892-.418517-1.6008338-.277268-.4446761-.67486-.779491-1.182312-1.0149077-.512684-.2301853-1.129997-.3452779-1.85194-.3452779-.810877 0-1.443885.1360185-1.899023.4185186-.455137.2772686-.680091.6487039-.680091 1.1143059 0 .3505094.146482.6434725.434212.8893522.292963.2458797.727174.455139 1.307867.6277779.580693.172639 1.328793.3557409 2.233837.5388428.837035.1883334 1.684533.4028242 2.547725.6487039.857961.2406482 1.658376.5806946 2.406475 1.0096763.742869.4289816 1.339256.9887503 1.794394 1.6740746.455138.6853242.680091 1.5642134.680091 2.631436 0 1.1613892-.31912 2.1815284-.957359 3.0551861-.64347.8684262-1.56944 1.5380561-2.793604 2.003658-1.218932.465602-2.725595.6957873-4.514757.6957873Zm33.549405-12.1788927v11.6923648h-5.613365V26.2097705h5.613365v5.2942609h-2.819761l2.819761 1.4281949Zm-43.10083 27.0673058c-.946513 0-1.771037-.22634-2.473573-.6775504-.701802-.4519452-1.183142-1.0640921-1.444755-1.8371757l1.600547-.7672045c.22781.5004466.546744.8921325.954597 1.1757924.408587.2829251.862737.4240202 1.363184.4240202.392421 0 .702536-.0867147.931081-.260879.228544-.1741642.342449-.4027089.342449-.6863688 0-.1734294-.046297-.3181989-.138155-.4321038-.092594-.1146397-.218257-.2123775-.376254-.2939481-.157262-.0815706-.329222-.1499135-.513674-.2042939l-1.453574-.407853c-.751037-.2175216-1.319827-.549683-1.705634-.9964841-.386541-.4460663-.579812-.9737031-.579812-1.5836455 0-.543804.13889-1.0199999.415936-1.4285878.277781-.407853.664323-.7260518 1.159626-.9553313.495302-.2278098 1.064092-.3424496 1.706368-.3424496.837752 0 1.577767.2013545 2.220043.6040634.642277.4027089 1.099366.968559 1.371268 1.6982852l-1.632147.7672046c-.152853-.4027089-.408587-.7238473-.767939-.963415-.358617-.2395677-.761326-.3593515-1.208127-.3593515-.358616 0-.642276.0815706-.848775.2454466-.206498.1631412-.310115.3755188-.310115.6363977 0 .1631412.043357.3049712.130807.424755.086714.1197839.209438.2175216.3667.2939481.157997.0756917.340245.1469741.547478.2116427l1.420505.424755c.728991.2175216 1.292636.5445389 1.689466.9795821.397565.435778.59598.968559.59598 1.6005474 0 .532781-.141095 1.0038328-.424755 1.4116858-.282925.4085879-.674611.7267867-1.175057.9553314-.500447.2285447-1.088343.3431844-1.763689.3431844Zm7.037118-11.1019867h.522493v2.0245739h2.040734v1.9099338h-2.040734v3.8044352c0 .293949.05144.5438057.155057.7510398.103617.2064991.266758.3644967.490159.4732579.222665.1087611.50853.1631417.856858.1631417.076427 0 .166081-.0051441.269698-.0161672.103616-.0110231.204294-.0220462.302031-.0323344v1.8283629c-.152853.0220462-.327017.0433575-.522492.0654037-.196211.0220462-.375519.0323344-.53866.0323344-1.001628 0-1.776917-.2748424-2.3266-.824527-.549683-.5496847-.824524-1.3249753-.824524-2.3266066v-3.9183404h-1.535144v-1.9099338h.163141c.435778 0 .773084-.1146401 1.012651-.3431855.239568-.2285454.359352-.5607078.359352-.9957523v-.6856361.5224944l1.61598-.5224944Zm6.906311 11.1019867c-.685634 0-1.281614-.152853-1.78794-.4570893-.505591-.3049712-.892132-.7297262-1.15889-1.2742651-.266758-.543804-.39977-1.1809365-.39977-1.9099278v-5.4365703h2.138473v5.2572619c0 .3696398.073487.6937176.220461.9714986.146974.277046.359352.4945677.637132.6525648.277047.1579971.590101.2373631.93843.2373631.348328 0 .658444-.079366.930346-.2373631.272636-.1579971.485014-.3777234.637132-.6606484.152118-.2836599.228545-.6209654.228545-1.0126513v-5.2080256h2.139207v8.8816422h-2.025302v-1.7467867l.180043.3101153c-.206499.543804-.546744.9523918-1.020735 1.2242938-.473256.2719021-1.025879.4085879-1.657132.4085879Zm14.482088-12.5555646h.521758V59.803789h-2.023833v-.9781153c-.277046.3299577-.625374.5930421-1.044985.7907228C861.966237 59.8713973 861.373196 60 860.73092 60c-.860533 0-1.627738-.2042946-2.302349-.6128837-.674611-.4078543-1.208126-.9656226-1.599812-1.6733048-.392421-.7076823-.587897-1.4910565-.587897-2.3508573 0-.870824.195476-1.6549331.587897-2.3515922.391686-.6959244.927406-1.251488 1.607896-1.6652213.68049-.4137332 1.439611-.6202324 2.277363-.6202324.675346 0 1.27647.1330119 1.804106.3997707.359352.1815135.667263.4122635.922997.6915151v-3.8507323l1.61598-.5224943Zm-4.097636 10.5968623c.489423 0 .919322-.1146402 1.289697-.3431855.36964-.2285454.661383-.5445406.873026-.9472508.212377-.4027101.318933-.864945.318933-1.3874393 0-.5114714-.106556-.9715016-.318933-1.3800907-.211643-.4078543-.503386-.7260541-.873026-.9545995-.370375-.2285453-.800274-.3431855-1.289697-.3431855-.479136 0-.909035.1168448-1.290433.3512691-.380662.2336895-.67755.5496847-.889193.9465159-.212377.397566-.318933.8575963-.318933 1.3800907 0 .5224943.106556.9847292.318933 1.3874393.211643.4027102.508531.7187054.889193.9472508.381398.2285453.811297.3431855 1.290433.3431855Zm8.264351-4.457737v6.2206962h-2.138473v-8.8816697h2.138473v2.1384791h-1.616715l1.616715.5224944Zm5.827521 6.4164393c-.874496 0-1.660807-.2013544-2.38098-.6040633-.712824-.402709-1.278674-.9523919-1.69755-1.6490489-.418876-.6966571-.62464-1.4917867-.62464-2.3839192 0-.8928674.205764-1.6872622.62464-2.3839192.418876-.696657.984726-1.24634 1.690202-1.6490489.712824-.4027089 1.506484-.6040634 2.388328-.6040634.867147 0 1.660807.2013545 2.366282.6040634.705476.4027089 1.271326.9494524 1.690202 1.6409653.418876.6907781.62464 1.4881123.62464 2.3920028 0 .8921325-.205764 1.6872621-.631989 2.3839192-.426225.696657-.992075 1.2463399-1.69755 1.6490489-.712824.4027089-1.491787.6040633-2.351585.6040633Zm0-1.9591641c.477666 0 .896542-.1146398 1.263977-.3431845.367435-.2285446.654034-.5467434.867147-.9553313.213112-.407853.315994-.8678818.315994-1.3793515 0-.5224928-.102882-.9825216-.315994-1.3800864-.213113-.39683-.499712-.7128242-.867147-.9465129-.367435-.2344237-.786311-.351268-1.263977-.351268-.492363 0-.918588.1168443-1.293372.351268-.367435.2336887-.661383.5496829-.874495.9465129-.213113.3975648-.315995.8575936-.315995 1.3800864 0 .5114697.102882.9714985.315995 1.3793515.213112.4085879.50706.7267867.874495.9553313.374784.2285447.801009.3431845 1.293372.3431845Z"/>
  </g>
</svg>
