<?xml version="1.0" encoding="UTF-8" standalone="no"?>
<!DOCTYPE svg PUBLIC "-//W3C//DTD SVG 1.1//EN" "http://www.w3.org/Graphics/SVG/1.1/DTD/svg11.dtd">
<svg width="100%" height="100%" viewBox="0 0 137 28" version="1.1" xmlns="http://www.w3.org/2000/svg" xmlns:xlink="http://www.w3.org/1999/xlink" xml:space="preserve" xmlns:serif="http://www.serif.com/" style="fill-rule:evenodd;clip-rule:evenodd;stroke-linejoin:round;stroke-miterlimit:2;">
    <g transform="matrix(1,0,0,1,-0.000549316,0.000427246)">
        <path d="M36.092,6.05L48.662,6.05L48.662,9.049L39.727,9.049L39.727,12.237L47.601,12.237L47.601,15.234L39.727,15.234L39.727,21.036L36.092,21.036L36.092,6.05ZM50.304,21.036L50.304,6.051L53.936,6.051L53.936,21.036L50.304,21.036ZM56.643,6.05L59.991,6.05L67.719,15.277L67.719,6.05L71.307,6.05L71.307,21.036L68.219,21.036L60.226,11.509L60.226,21.036L56.643,21.036L56.643,6.05ZM83.322,14.765L81.13,9.903L78.938,14.765L83.322,14.765ZM79.503,5.944L82.852,5.944L89.923,21.036L86.124,21.036L84.618,17.673L77.639,17.673L76.129,21.036L72.432,21.036L79.503,5.944ZM91.047,6.05L94.394,6.05L102.13,15.277L102.13,6.05L105.713,6.05L105.713,21.036L102.625,21.036L94.63,11.509L94.63,21.036L91.047,21.036L91.047,6.05ZM115.984,21.295C114.783,21.295 113.651,21.101 112.613,20.694C111.575,20.285 110.682,19.751 109.925,19.067C109.17,18.36 108.582,17.546 108.16,16.606C107.732,15.664 107.521,14.655 107.521,13.585L107.521,13.543C107.521,12.473 107.732,11.467 108.16,10.546C108.582,9.604 109.17,8.789 109.925,8.085C110.682,7.378 111.575,6.821 112.637,6.412C113.698,6.004 114.851,5.795 116.124,5.795C116.904,5.795 117.589,5.858 118.224,5.964C118.861,6.069 119.449,6.243 119.969,6.438C120.486,6.627 120.958,6.888 121.407,7.164C121.854,7.441 122.254,7.762 122.631,8.105L120.324,10.525C119.685,9.99 119.027,9.585 118.363,9.283C117.683,8.984 116.929,8.832 116.102,8.832C115.418,8.832 114.783,8.963 114.195,9.197C113.603,9.433 113.087,9.777 112.664,10.206C112.234,10.631 111.905,11.125 111.671,11.68C111.433,12.258 111.316,12.86 111.316,13.501L111.316,13.543C111.316,14.185 111.433,14.787 111.671,15.365C111.905,15.941 112.234,16.434 112.637,16.86C113.062,17.29 113.556,17.631 114.144,17.866C114.734,18.125 115.393,18.253 116.102,18.253C117.047,18.253 117.845,18.104 118.486,17.783C119.144,17.461 119.804,17.034 120.439,16.499L122.75,18.62C122.327,19.023 121.878,19.409 121.431,19.732C120.984,20.05 120.486,20.33 119.945,20.565C119.405,20.8 118.791,20.993 118.154,21.101C117.515,21.23 116.785,21.295 115.984,21.295ZM136.678,8.985L127.838,8.985L127.838,12.025L135.618,12.025L135.618,14.956L127.838,14.956L127.838,18.1L136.678,18.1L136.678,18.104L136.797,18.104L136.797,21.036L124.231,21.036L124.231,6.05L136.797,6.05L136.797,8.983L136.678,8.983L136.678,8.985Z"/>
        <path d="M4.844,20.254L16.992,20.254L16.992,26.538C15.877,26.838 14.707,27 13.5,27C6.044,27 0.001,20.956 0.001,13.495C0.001,6.042 6.044,-0 13.5,-0C20.957,-0 27.001,6.042 27.001,13.495C27.001,14.797 26.816,16.05 26.474,17.239L20.853,17.239L20.842,3.209L4.844,20.254ZM16.992,17.239L12.112,17.239L16.992,11.978L16.992,17.239ZM20.854,24.818L20.854,20.254L25.189,20.254C24.122,22.097 22.634,23.66 20.854,24.818Z"/>
    </g>
</svg>
