<svg xmlns="http://www.w3.org/2000/svg" viewBox="0 0 1986 517">
  <title>beehype</title>
  <path d="M226.125 4.0625c1.945555.45171745 3.89146815.90566284 5.81933594 1.42773438 2.15187025.53362293 4.27450982.87533131 6.46972656 1.18164062 1.4453416.21334464 2.89065485.42688137 4.3359375.640625l2.05908203.27954102C246.734375 7.92578125 246.734375 7.92578125 250 9c5.85850176 8.42530419 10.41004487 19.8904487 12 30-1.58755098 5.38754004-4.6342658 7.66563388-9 11-1.67966907 1.80238461-3.32737586 3.6352269-4.9375 5.5l-2.21484375 2.40625C243.86054661 60.06333263 243.86054661 60.06333263 242 63c-7.42155007-.37430426-14.72900988-1.13151621-22.0625-2.3125l-2.19897461-.31958008C213.14282525 59.58323572 210.97772339 58.5342966 208 55c-1.29614258-2.59375-1.29614258-2.59375-2.39453125-5.5l-1.20507813-3.1875L203.1875 43l-1.27148438-3.3125-1.18554687-3.1875-1.08129883-2.90625C198.96302951 30.8522849 198.97099135 29.59605186 200 27c1.99826934-2.76753476 4.19714606-5.30122203 6.42578125-7.88671875 1.79682516-2.10338608 3.36182407-4.25022066 4.8671875-6.5703125C215.45507618 6.37881261 218.29328469 3.05885581 226.125 4.0625Zm46.6875 38.5L280 44c1.64278064.04790038 3.28624345.07524536 4.9296875.0859375C290.4361389 44.33578676 295.40422199 44.72723372 300 48c5.66828817 8.04473979 10.86662105 20.98367373 10 31-1.65234375 2.2890625-1.65234375 2.2890625-3.9375 4.625-4.3090826 4.54090034-8.28911882 9.2507313-12.21484375 14.125C292 100 292 100 290 102c-4.00964508-.20607574-7.92181073-1.00077393-11.875-1.68212891-2.21789158-.33176641-4.42105982-.52674728-6.65625-.70458984-11.14304106-1.07011413-11.14304106-1.07011413-14.4453125-4.9140625C255.68356811 91.50514301 254.85283902 88.35691956 254 85c-.52486673-1.41022435-1.07158956-2.81245361-1.63671875-4.20703125l-.87231445-2.1574707L250.625 76.5c-2.66186858-6.57660965-2.66186858-6.57660965-2.5390625-9.65234375 1.84223742-3.72383889 4.7096489-6.67199512 7.3984375-9.8046875 2.55846669-2.99053776 2.55846669-2.99053776 4.65625-6.2421875 3.63382087-5.25558166 5.95484519-8.60716028 12.671875-8.23828125Zm-59.6171875 22.484375 2.33300781.48242188c2.66869359.50822216 5.06413769.4885685 7.77636719.42382812C229.36670059 66.13744115 234.86783313 66.51988148 240 70c3.24715174 4.4974875 5.22596265 9.22745829 7.0625 14.4375l.72039795 2.01599121c3.84641212 11.16316853 3.84641212 11.16316853 2.00616455 15.20837402-3.35952473 4.39057974-3.35952473 4.39057974-5.07421875 6.43969727l-1.85742187 2.234375L240.9375 112.625c-1.26296418 1.51198139-2.52473372 3.02496168-3.78515625 4.5390625l-1.68774414 2.01416016C233.83958324 121.14418881 233.83958324 121.14418881 232 124c-3.68822066-.17275038-7.33250828-.5766838-11-1l-2.50146484-.24658203c-16.59912149-1.75524795-16.59912149-1.75524795-20.75244141-6.12451172C196.43617687 113.44273879 195.73124974 110.36595357 195 107c-1.04441525-2.86584823-2.2198997-5.67720954-3.375-8.5-3.0698969-7.57676682-3.0698969-7.57676682-1.625-11.5 1.21166992-1.7199707 1.21166992-1.7199707 2.73046875-3.42578125l1.68554687-1.91601563L196.1875 79.6875c1.13949093-1.28761175 2.27881458-2.57537156 3.41796875-3.86328125l1.73193359-1.90087891c1.69602791-1.89489227 1.69602791-1.89489227 3.11035157-3.99902343 2.63239246-3.65847163 4.07537642-5.44572879 8.74755859-4.87744141ZM347 88c4.7501786 3.16678574 5.7241279 8.18647369 7.66357422 13.41186523.70830958 1.89230956 1.44898075 3.76973502 2.19189453 5.64868165l1.35546875 3.61523437 1.25927734 3.30981445C360 117 360 117 358.76733398 119.70458984c-2.27105538 2.9496426-4.63469892 5.80250963-7.07983398 8.60791016-4.12005007 4.74237931-7.96842385 9.62345183-11.6875 14.6875-4.22011386-.64148776-8.43731885-1.29901699-12.65258789-1.97143555-1.43388027-.22641921-2.8684585-.44846398-4.30371094-.66601562-2.06474353-.31374954-4.12645338-.64322332-6.18823242-.97583008l-3.76098633-.5871582C309.91833249 137.97889853 308.82674406 137.64964143 307 135c-1.85813788-4.01624764-3.26280854-8.20898732-4.75-12.375l-1.28515625-3.4453125-1.19921875-3.328125-1.10058594-3.03662109C297.93865473 109.74034107 298.0623909 107.99371342 299 105c1.96376398-2.87183707 4.16489287-5.37998739 6.48046875-7.9765625 2.61243068-2.93160933 2.61243068-2.93160933 4.3203125-6.359375C317.66938255 77.89138304 334.8189862 84.31401205 347 88Zm-90 16c3.68881471.17277821 7.33300089.56594704 11 1l2.51757812.29492188c2.81543573.35418061 5.61540413.77335498 8.41992188 1.20507812l2.79956055.33691406c6.43451412 1.07271373 6.43451412 1.07271373 8.64501953 3.98217774C291.45198163 113.17826226 292.23966016 115.52441942 293 118c.64291912 1.63524726 1.2953091 3.26680203 1.95703125 4.89453125.62163092 1.6381343 1.24011733 3.27746528 1.85546875 4.91796875l.98242188 2.52148438.91210937 2.43554687.82739258 2.17504883C300.08616833 137.38041489 299.87320419 138.67303524 299 141c-1.63647185 2.14840857-3.28171124 4.1665916-5.0625 6.1875-1.00923151 1.15224135-2.0183454 2.30458572-3.02734375 3.45703125l-1.50732422 1.71337891c-1.25183225 1.46533653-2.428934 2.99376427-3.59423828 4.52880859L283.875 159.375l-1.6328125 2.2109375c-3.11687061 1.96569192-5.14735869 1.34508106-8.69580078.76611328-2.66447134-.36837657-5.16407728-.35635203-7.85107422-.30517578C259.62987246 161.86411626 254.1507302 161.44822045 249 158c-3.32420282-4.42829708-5.34712371-9.07691495-7.25-14.25l-.75921631-1.97717285c-3.86301934-10.43434938-3.86301934-10.43434938-2.07769775-15.2208252C240.45640307 124.46741352 242.11353774 122.77617523 244 121c.99418212-1.23001885 1.96888456-2.47607933 2.921875-3.73828125 1.42641105-1.80560848 2.85565592-3.60894608 4.28515625-5.41210937C253.2356954 109.28128666 255.18340906 106.72488641 257 104Zm-52.6875 21.5625 3.04296875.66796875c3.06252623.64664273 5.42293914.82328616 8.5078125.8203125C221.41996612 127.2700147 226.39104298 127.65067104 231 131c5.23314492 7.61810852 10.67557322 20.29334535 9.7277832 29.70239258-1.10454117 3.48703017-3.44603886 5.88220541-5.8527832 8.54760742-3.51091738 3.91701423-6.43420874 7.64414826-9.125 12.1875-1.64453125 2.13671875-1.64453125 2.13671875-3.75 3.5625-4.5011693.29128446-8.55539817-.52683854-12.90039062-1.55175781-2.1616942-.46149658-4.29503239-.74918845-6.49023438-1.00292969-1.43235443-.18963068-2.86464789-.37972259-4.296875-.5703125l-3.94921875-.5078125c-3.5449817-1.44104947-3.93818211-1.70302268-5.5859375-4.87890625C188.15555151 175.0041433 187.56444677 173.50688118 187 172l-.95776367-2.35351562c-.97310321-2.43066347-1.88847823-4.87677083-2.79223633-7.33398438l-.95703125-2.50976562C179.23882398 151.54596636 179.23882398 151.54596636 180 148c1.87109375-2.5078125 1.87109375-2.5078125 4.4375-5.125 3.76508829-3.8759815 6.83789931-7.67749955 9.9375-12.125 3.17528351-3.8576668 4.85715716-5.49388814 9.9375-5.1875ZM32 132c1.40240077.19490266 2.80472831.39033221 4.20703125.5859375l2.703125.37670898c1.93991896.27561601 3.87874597.55902654 5.81640625.85009766 3.99146658.59919259 7.91001846 1.16519528 11.94140625 1.40991211C59.5064771 135.43799137 61.48341674 135.66625955 64 137c2.60858122 3.69275226 3.69098228 7.70732466 5 12 .55449223 1.48187881 1.12017469 2.95960496 1.6953125 4.43359375C71.27705702 154.9553414 71.85779372 156.47747472 72.4375 158l.8605957 2.21118164c1.85533561 5.12644417 1.85533561 5.12644417 1.22143555 7.86303711C72.16788622 171.05458122 69.7533401 173.95808172 67.25 176.8125l-1.5546875 1.79101562c-1.03732353 1.19500713-2.07983212 2.38553282-3.12744141 3.57153321-1.07214247 1.24793911-2.10989843 2.52603131-3.11621093 3.82763672-3.80894856 4.84214265-3.80894856 4.84214265-6.95947266 5.6027832-1.91725015-.30618771-3.83093563-.63492623-5.7421875-.9765625-3.03625983-.50920608-5.57959262-.66464996-8.625-.6640625C32.57743309 189.73098847 27.60102746 189.34356655 23 186c-5.23314492-7.61810852-10.67557322-20.29334535-9.7277832-29.70239258C14.3773102 152.80883384 16.72128964 150.41942327 19.125 147.75c1.00011587-1.14329242 1.99880992-2.28783013 2.99609375-3.43359375l1.48388672-1.69482422C26.5508128 139.19732261 29.26367545 135.59152328 32 132Zm278.828125 12.90234375c1.81432566.30591914 3.62218399.65243391 5.421875 1.03515625l2.69921875.47851563c1.79494229.32434008 3.58507782.67650221 5.36914063 1.05615234 2.68266031.56837759 2.68266031.56837759 5.44140624.82519531 6.44796544.80303898 6.44796544.80303898 8.61889649 3.26806641C339.46518531 153.6716374 340.24446549 155.75421269 341 158c.65020798 1.58811569 1.3026045 3.17533686 1.95703125 4.76171875.62336235 1.64008332 1.24182194 3.28203811 1.85546875 4.92578125l.98242188 2.50976563C348.73717939 178.0663869 348.73717939 178.0663869 347 182c-1.65150304 2.20581374-3.28767062 4.21390141-5.125 6.25-3.47648522 3.90039249-6.51393972 7.69452492-9.3125 12.125-1.94897727 2.48175844-2.83539018 3.48361754-5.953125 4.08984375C323.3081473 204.28502827 320.24190872 203.65787687 317 203c-1.68128668-.19879621-3.36369634-.38822886-5.046875-.5703125-13.31368228-1.67586505-13.31368228-1.67586505-17.13671875-5.765625C293.48205788 193.47037623 292.75665886 190.37781203 292 187c-.5302206-1.48374352-1.08516314-2.95880762-1.66015625-4.42578125l-.89111328-2.29418945c-.58210058-1.49758603-1.16508102-2.99483041-1.74902344-4.49169922-1.85200103-5.13086572-1.85200103-5.13086572-1.21923828-7.86254883 2.35164503-2.98036247 4.76619115-5.88386297 7.26953125-8.73828125l1.5546875-1.79101563c1.03949033-1.1975033 2.088769-2.38657707 3.14746094-3.56713867 1.59019539-1.8102975 1.59019539-1.8102975 2.91601562-3.87158203 2.80500828-3.98995082 4.45945493-5.45329626 9.45996094-5.05541992ZM139 146c3.80884112.43052061 7.60617533.89490661 11.40234375 1.42578125 3.00486505.41140691 5.94616809.64575653 8.9765625.7421875C163.8006646 148.43884481 166.99951959 148.97031119 171 151c3.49598038 4.59702527 4.89866351 10.28278846 6.37255859 15.78271484.83293815 2.94348025 2.00652446 5.7119422 3.18994141 8.52978516 1.17630924 2.84236591 1.5764926 4.11114401.8515625 7.1171875-1.77560765 3.22748573-4.06336111 5.75147001-6.6015625 8.3828125-3.38419301 3.53488166-6.43809915 7.02759202-9.3125 11-1.88544485 2.10906738-2.84037423 3.0630651-5.6328125 3.58984375C157.375 205.25 157.375 205.25 154.55859375 204.6640625c-3.03254488-.56589751-5.53011813-.70425658-8.5859375-.703125C140.1751919 203.73203583 134.88361258 203.37723467 130 200c-5.34818565-7.57827562-10.64955018-20.25056636-9.74145508-29.68652344.77392438-2.41478676 1.56711809-3.71299721 3.25317383-5.58300781l1.54003906-1.74365234L126.6875 161.1875c1.09428143-1.23666126 2.1867453-2.47493329 3.27734375-3.71484375l1.58935547-1.80029297C134.22608471 152.58178314 136.61443672 149.31328233 139 146Zm289.84960938 18.57226563c2.12724356.42313018 4.23015021.70083987 6.38476561.94335938 1.33874811.18076934 2.67729932.36300442 4.015625.546875l3.640625.47265623c4.06924631 1.91704444 4.67030813 3.82860494 6.21533205 7.91772461L449.99999999 177c.64953739 1.62091907 1.3018729 3.24071972 1.95703127 4.859375.62163132 1.62901292 1.24011775 3.25922936 1.85546873 4.890625l.98242189 2.49609374c2.91872808 7.76244174 2.91872808 7.76244174 1.20507811 11.75390627-1.75 2.2890625-1.75 2.2890625-4 4.625-2.62912442 2.74938406-5.012976 5.39336356-7.2109375 8.50390623-5.28355857 7.46755663-5.28355857 7.46755663-9.0625 8.48046877C432.7048904 222.39966904 429.9511014 221.69669655 427 221c-1.7300903-.20725399-3.4621303-.39855273-5.1953125-.578125-14.14882619-1.6799204-14.14882619-1.6799204-18.05859373-5.79296877C402.43653895 211.44361946 401.73454103 208.36419788 401 205c-.52537467-1.41127434-1.07912793-2.81221025-1.65625-4.203125-.29463133-.7125293-.58926268-1.4250586-.89282225-2.1591797-.5827328-1.40214571-1.16651848-2.80385441-1.75146484-4.20507813-1.85644921-4.8094291-1.85644921-4.8094291-1.1838379-7.47949217.48984375-.64453127.9796875-1.2890625 1.484375-1.953125l2.35546876-3.171875c1.43371817-1.83043033 2.88549798-3.6439937 4.35083006-5.44921877 2.16055022-2.66171414 4.19978504-5.22778662 6.01245118-8.14453123 4.86464855-7.400476 11.53345921-5.30049322 19.13085938-3.66210939ZM254.625 166.125c2.10161947.41455103 4.17707399.88596921 6.25683594 1.39892578 2.1172689.47587302 4.18912114.76240304 6.34472656 1.00341797 1.34126986.17745048 2.68242095.3558015 4.0234375.53515625l3.640625.47265625c4.06953426 1.91718008 4.66665765 3.82840941 6.2109375 7.91772461L282 180c.66040903 1.62128466 1.32446331 3.24108935 1.9921875 4.859375.63074685 1.62899497 1.25834797 3.25921142 1.8828125 4.890625l1.0078125 2.49609375.921875 2.42578125.84326172 2.15917969c.60499718 3.72731969-.99544186 6.24908288-3.11254883 9.23364258l-1.68774414 2.00170898-1.85351563 2.22070313L280.0625 212.5625c-1.2597944 1.50073168-2.51893135 3.00201553-3.77734375 4.50390625l-1.69116211 1.99829102c-1.10951295 1.34708365-2.16555253 2.73925783-3.17675781 4.16162109C270 225 270 225 268.0390625 225.3125c-1.78438751-.23098867-3.56397138-.49980158-5.33984375-.7890625-3.02682812-.42829458-5.70583647-.5457498-8.7421875-.546875C248.17166806 223.73307165 242.87073533 223.37460847 238 220c-5.76997052-8.24427652-10.93734268-21.76532068-10-32 1.77972017-2.3853452 3.73945571-4.41750277 5.82568359-6.53198242 2.41683287-2.49160181 4.36692007-4.76353377 6.27978516-7.69848633 4.085223-6.2345086 6.94525703-8.80078507 14.51953125-7.64453125ZM111 174c4.08828027 2.04414014 4.98688941 8.60908253 6.47827148 12.81860352.70436099 1.98021211 1.42762794 3.9527882 2.1525879 5.9255371.45104085 1.2580443.90094807 2.51649574 1.34960937 3.77539063l1.24682617 3.47192383C122.99674603 202.9873306 123.22564844 204.21750767 122 207c-1.21166992 1.7199707-1.21166992 1.7199707-2.73046875 3.42578125l-1.68554687 1.91601563L115.8125 214.3125c-1.13949093 1.28761175-2.27881458 2.57537156-3.41796875 3.86328125l-1.7578125 1.89868164c-1.68691738 1.86873936-1.68691738 1.86873936-2.8515625 4.02099609C106.34339687 226.41122795 105.37577941 227.62766927 103 229c-4.62298687.29015133-8.95325116-.32338463-13.47753906-1.16870117-2.14296126-.39297368-4.28724638-.70443049-6.44433594-1.00903321-9.76691058-1.5520791-9.76691058-1.5520791-12.79467773-4.48510742C69.20068623 220.24231382 68.59411286 218.27996949 68 216c-.63932932-1.59252626-1.29215855-3.17968647-1.95703125-4.76171875-.62336235-1.64008332-1.24182194-3.28203811-1.85546875-4.92578125l-.98242188-2.50976562C60.29704887 196.02515721 60.29704887 196.02515721 62 192c1.97075623-2.8416599 4.17896578-5.33248244 6.484375-7.91015625 2.6384959-3.00841122 2.6384959-3.00841122 4.28125-6.6484375C80.5495601 163.5030997 98.12517073 170.51956389 111 174Zm430-1c5.08649628-.04619421 10.17224928-.08593338 15.25878906-.10986328 1.72626223-.00998771 3.45250785-.02358255 5.17871094-.04101563 24.59747898-.24198908 24.59747898-.24198908 32.08984375 6.12744141 4.13228298 5.67777874 4.91242513 11.67192491 4.81323242 18.45898438l.00132752 2.42715454c-.00207197 2.6189403-.02532668 5.23722162-.04893494 7.85604858-.00560164 1.82702281-.00986905 3.65405016-.01286316 5.4810791-.01140409 4.78731935-.04083272 9.57436168-.07411194 14.36157227-.0307969 4.89355727-.04441389 9.78715969-.05950927 14.68078613C598.11439861 251.8282461 598.06325638 261.41409993 598 271c2.73458891-2.72353073 5.44522743-5.4291442 7.98046875-8.33984375 11.2680304-12.71525219 22.96786444-20.26955242 40.5078125-21.56640625L649 241l3.54296875-.15625c21.84029772-.65223194 41.82546953 5.58277284 58.05541992 20.64404297 17.92823565 17.4328845 26.04844978 42.9905394 26.70239258 67.52783203.0194307 2.41138321.02298112 4.8229398.01171875 7.234375l-.01708984 3.85449219C736.94374074 367.43721395 728.58493777 391.61786484 709 411l-1.953125 2.01953125c-14.11131836 13.58981311-35.18768556 19.08975043-54.31640625 19.015625-16.62474402-.43853788-31.94540744-4.35150272-43.703125-16.734375C605.21488846 410.97412197 601.60232061 406.50290077 598 402v25h-35l-.03123474-8.33859253c-.09737584-25.87038829-.20020457-51.74075076-.30810452-77.61109734-.05534676-13.30175531-.10883112-26.60351108-.15797519-39.9052906-.04282406-11.58988098-.08909752-23.17974209-.1395641-34.7695924-.02661529-6.14028168-.0514687-12.28055938-.07219547-18.42086399-.01954256-5.77336727-.04367914-11.54669667-.07141686-17.32003021-.00938307-2.12450348-.0170538-4.24901527-.02292823-6.37353134-.00823987-2.88952249-.02251051-5.77895254-.03836251-8.66844178l-.00296396-2.57631194C562.23267203 208.87521624 562.23267203 208.87521624 561 205c-2.59257669-.86419223-4.34037707-1.17580932-7.01171875-1.31640625l-2.0690918-.11547852L549.3125 203.4375 541 203v-30Zm71.84375 114.09765625C602.2707786 298.28212413 597.60287802 313.75221012 597 329l-.15625 3.27734375c-.52057346 20.67110462 4.53513475 42.45317443 18.84375 58.09765625 10.42753642 9.7188689 23.28397408 12.26737478 36.98828125 11.93359375 13.41551607-.71198841 25.36576314-7.32972396 34.48046875-17.0234375 13.68507529-16.9613751 16.11056015-37.97803169 14.56640625-59.07421875-1.87971806-17.29340615-8.50929113-33.67470177-21.96875-45.12109375-21.00332482-15.82810558-48.6080376-11.79696597-66.91015625 6.0078125Zm551.03125-114.265625 2.41967773-.01008606c1.69815494-.00507668 3.39631991-.0074081 5.09448243-.00724792 2.57227665-.00216482 5.14410917-.02025148 7.71630859-.03930664 1.65234229-.0029383 3.30468661-.00492017 4.95703125-.00585938l2.30224609-.02177429C1194.41264633 172.78135954 1201.59176993 173.81238518 1208 179c5.27256158 5.46086735 5.29993919 12.91031946 5.31884766 20.05639648l.03044128 2.66316224c.03071129 2.8838388.04783349 5.76758527.06477356 8.65153503.01872135 2.0078256.03829548 4.01564341.0586853 6.02345276.05122499 5.26884867.09090224 10.53772281.12814331 15.8066864.04010011 5.38285577.09116502 10.76560642.14129639 16.14837646.09664521 10.55005627.18108642 21.10017201.2578125 31.65039063l1.45036316-2.08615112 1.90583801-2.7336731 1.88786316-2.71115112C1231.83518625 254.76462294 1248.64463282 245.18181732 1269.75 241.3125c17.11730359-1.6622175 36.66972163-.5957592 50.9375 9.9375 14.20443098 11.82868989 20.16564644 27.71420007 22.3125 45.75.13857648 3.18171484.14378937 6.3593119.1418457 9.54370117l.01052857 2.82102966c.00732183 2.01063638.01268613 4.02128064.01629066 6.03192711.00719612 3.1815928.02288294 6.36303412.04134178 9.54458046.05234542 9.04194669.10050042 18.08380502.11592102 27.12590027.0100639 5.5389976.03933681 11.07760553.08131981 16.61644936.01232618 2.10951673.01742832 4.21908841.01520157 6.32863998-.00234509 2.94451115.0197493 5.8878953.04752159 8.83225441l-.02000427 2.64331055c.0612718 4.87987187.0612718 4.87987187 2.45150757 9.05030823 2.34808348 1.63574834 3.59102589 1.99025594 6.426651 2.0712738l2.18457031.09277344L1357.25 397.75l8.75.25v30c-5.24721366.04614062-10.49371124.08589664-15.7409668.10986328-1.78159991.01000083-3.56318364.02360588-5.34472656.04101563-2.57434097.02451066-5.14846321.03566357-7.72290039.04443359l-2.3780365.03128052c-6.62604258.00131684-14.54819497-.24701891-19.68836975-4.91409302l-1.6171875-1.38671875c-4.59237449-5.86539022-4.94501227-11.60194795-4.90844727-18.76977539l-.02114868-2.9201355c-.01993042-3.17376539-.01947647-6.34720427-.0196228-9.52102661-.01178295-2.2209103-.0251494-4.44181272-.0400238-6.66270447-.03616275-5.84549857-.05637238-11.69092732-.07154847-17.53651428-.02482722-9.32994253-.06490633-18.65973045-.12190055-27.98953056-.01617248-3.24018639-.02009328-6.4802241-.02301217-9.72044564C1308.59688727 303.37589149 1308.59688727 303.37589149 1298 281c-9.10839881-7.42780586-19.65667093-7.76030962-31-7-16.42007327 2.11747721-29.37596837 10.80627373-39.8125 23.375-11.76654162 15.99255305-12.78132703 33.77898759-12.76171875 52.83203125-.01246412 2.21963087-.02680356 4.43925192-.04292297 6.65885925-.03778009 5.79779646-.05317532 11.5954225-.06278992 17.39332581-.01986056 9.32437014-.07645567 18.64861228-.1287632 27.97284508-.01537404 3.25573163-.02253844 6.51139885-.02814293 9.76716041-.00701005 1.9765781-.01411048 3.95315588-.02131653 5.92973328l.00160218 2.75601196c-.0302203 6.20180538-.0302203 6.20180538-1.14344788 7.31503296-2.52094076.08847743-5.01430893.11527301-7.53515625.09765625l-2.28257751-.00428772c-2.41496184-.00561477-4.82983225-.0181697-7.24476624-.03086853-1.63346221-.0050131-3.26692586-.00957634-4.90039062-.01367187C1187.02470415 428.03777954 1183.01236759 428.02050506 1179 428l-.01003075-3.37220955c-.08095971-27.06563785-.17326471-54.13121883-.27749633-81.19677734-.05014221-13.08864611-.09658499-26.17728589-.13434792-39.26597405-.03291983-11.40681979-.07275107-22.81359082-.12091506-34.22035682-.02526498-6.04092677-.04704635-12.08182119-.0605539-18.12278664-.01282023-5.68476944-.03487446-11.36942792-.06403923-17.05413628-.00907603-2.08734183-.01476607-4.17470153-.01683045-6.26206207-.0033223-2.84879655-.01879916-5.6972785-.03731346-8.54601097l.00586283-2.50563252C1178.24048896 212.9443117 1177.85213446 209.20086405 1176 205c-1.85032191-.98025801-1.85032191-.98025801-4-1l-2.01464844-.20532227-2.09472656-.11108398-2.28515625-.12695312L1163.25 203.4375l-2.40234375-.13085937c-1.9490344-.10567054-3.89832373-.20662029-5.84765625-.30664063-.02465746-4.1117256-.04283959-8.22342278-.05493164-12.33520508-.00503916-1.3997472-.01187052-2.79948912-.02050781-4.19921875-.01208375-2.00803394-.01725862-4.01610574-.0222168-6.02416992l-.01586914-3.66577148c.2268176-5.54556834 4.5138737-3.9371861 8.98852539-3.94360352ZM359.34985352 184.6508789l3.77905273.5756836 2.03489685.30453492c1.41542752.22127722 2.82831889.45934704 4.2382965.7130432 2.15221385.37941617 4.3062264.68377172 6.47094728.98242188 9.81663602 1.52409132 9.81663602 1.52409132 12.84790039 4.41430664C389.81496314 193.74417374 390.41278819 195.7047349 391 198c.64218145 1.66411362 1.2949847 3.32415794 1.95703125 4.98046875.62411802 1.73366116 1.24255968 3.46937572 1.85546875 5.20703125l.98242188 2.65429688.91210937 2.57617187.82739258 2.30541993C398.09768808 218.4776829 397.78000876 220.3125958 397 223c-1.71484375 2.5078125-1.71484375 2.5078125-3.9375 5.125l-2.15234375 2.5703125-1.3178711 1.43945313c-1.7386473 1.97433863-1.7386473 1.97433863-3.59472655 4.74609375C383.51765015 240.15435918 381.35806078 242.6223573 378 245c-5.44652122.6563861-10.25276754-.46647716-15.5-1.75-1.38164758-.28819444-2.76447374-.57079812-4.1484375-.84765625C348.92588617 240.46294309 348.92588617 240.46294309 346 239c-1.70473818-3.71313845-3.06867981-7.55744531-4.47827148-11.39135742-.70436741-1.90797492-1.4276437-3.80801572-2.1525879-5.70825195l-1.34960937-3.63867188-1.24682617-3.3449707C335.98527365 211.94441208 335.78477072 210.76958384 337 208c1.31933594-1.9194336 1.31933594-1.9194336 2.984375-3.8984375l1.8359375-2.203125L343.75 199.625l1.8828125-2.25c1.17369288-1.40149824 2.3501231-2.80071235 3.53027344-4.19677734 1.99436582-2.29611506 1.99436582-2.29611506 4.11108399-5.45263672C356 185 356 185 359.34985352 184.6508789ZM190.625 186.6875l2.8203125.62109375c3.06290368.5957516 5.46343615.71064186 8.546875.6640625C207.87261821 188.1349768 213.09701297 188.49602765 218 192c3.17311166 4.51391567 5.15677363 9.25853983 7 14.4375l.72631836 2.01599121c3.89304029 11.1960879 3.89304029 11.1960879 2.03100586 15.25598145-3.00037658 3.91074369-3.00037658 3.91074369-4.49951172 5.63037109l-1.54296875 1.78320313L220.125 232.9375c-1.03945161 1.1962766-2.07851784 2.39288816-3.1171875 3.58984375l-1.55761719 1.74169922c-1.47870363 1.68676505-1.47870363 1.68676505-2.59570312 3.54394531C211.7421875 243.50390625 211.7421875 243.50390625 209 246c-3.4420421.31046635-6.6216036-.36832631-10-1-1.79731148-.19188263-3.59552807-.37546707-5.39453125-.55078125-14.03806184-1.80317031-14.03806184-1.80317031-17.86328125-5.8203125C174.43665424 235.44288634 173.73087235 232.36421645 173 229c-1.04441525-2.86584823-2.2198997-5.67720954-3.375-8.5-2.63252499-6.49729571-2.63252499-6.49729571-2.609375-9.58203125 1.5758434-3.07039329 3.83264069-5.54301778 6.109375-8.10546875 3.46446097-3.92364659 6.53507617-7.7752281 9.375-12.1875 2.56464288-3.25053575 3.9581391-4.19221407 8.125-3.9375ZM25.5625 191.75c2.14877443.40122344 4.29403681.82130736 6.4375 1.25 1.73471333.19746096 3.47051749.38546121 5.20703125.56640625 14.15397284 1.70938142 14.15397284 1.70938142 18.046875 5.8046875C56.56365685 202.55685677 57.26809708 205.63471775 58 209c1.04497009 2.84490554 2.22094788 5.63530815 3.375 8.4375 1.38122963 3.36712464 2.61824148 6.44734407 2.640625 10.140625-1.48958049 3.55207656-3.97882114 6.02905935-6.640625 8.734375-3.63788141 3.72538147-6.77309924 7.24801863-9.625 11.625-1.609375 1.859375-1.609375 1.859375-3.75 3.0625-4.80547252.19569798-9.16614207-.55894399-13.84960938-1.56787109-2.12563405-.42715399-4.23307974-.72120511-6.38476562-.98291016-1.33878106-.18972458-2.67733388-.38106846-4.015625-.57421875l-3.640625-.5078125c-3.89742042-1.71368988-4.59558463-3.24121649-6.21533203-7.04492188L9 238l-.97607422-2.35351562C7.03415102 233.21663413 6.10510075 230.77042843 5.1875 228.3125l-.98242188-2.50976562C1.24786894 217.89362458 1.24786894 217.89362458 3 214c1.74125206-2.41792207 3.68262884-4.61105527 5.6875-6.8125 3.50694249-3.90132627 6.67545411-7.60445865 9.375-12.125 2.29935297-3.05056204 3.69552967-3.53244594 7.5-3.3125ZM296 205c4.34990761.49430768 8.68846194 1.04290314 13.02490234 1.6418457 1.47433264.19589827 2.95069979.37708959 4.42871094.54296875 12.20376624 1.38473711 12.20376624 1.38473711 15.28930664 4.67211914C329.81009794 214.22399624 330.41766619 216.47204118 331 219c.63021843 1.6285276 1.28289099 3.24853288 1.95703125 4.859375.62163133 1.62901291 1.24011776 3.25922936 1.85546875 4.890625l.98242188 2.49609375C338.73486968 239.06496992 338.73486968 239.06496992 337 243c-1.65085928 2.20495392-3.28905758 4.21386174-5.125 6.25-.94218148 1.06587569-1.88224593 2.13362603-2.8203125 3.203125l-1.46191406 1.66601562C324.60481969 257.64752745 321.80894245 261.32859936 319 265c-4.22011386-.64148776-8.43731885-1.29901699-12.65258789-1.97143555-1.43388027-.22641921-2.8684585-.44846398-4.30371094-.66601562-2.06474353-.31374954-4.12645338-.64322332-6.18823242-.97583008l-3.76098633-.5871582C288.91833249 259.97889853 287.82674406 259.64964143 286 257c-1.85813788-4.01624764-3.26280854-8.20898732-4.75-12.375l-1.28515625-3.4453125-1.19921875-3.328125-1.10058594-3.03662109C276.93482394 231.72412631 277.02828897 230.00352785 278 227c1.65085928-2.20495392 3.28905758-4.21386174 5.125-6.25.94218148-1.06587569 1.88224593-2.13362603 2.8203125-3.203125l1.46191406-1.66601562C290.39518031 212.35247255 293.19105755 208.67140064 296 205Zm-168 4c25.84940733.25624359 25.84940733.25624359 33.20068359 7.02685547 3.0983186 4.81114586 4.35343849 10.0220334 5.33642579 15.609375.59289337 3.0276338 1.78263273 5.70975825 2.96289062 8.55126953.73194703 3.07037519.83921505 4.2140123-.7265625 6.9765625C166.875 249.3125 166.875 249.3125 164.609375 251.45703125c-3.18811639 3.1069817-5.79531298 6.50536423-8.484375 10.04296875-4.8488063 6.36190315-4.8488063 6.36190315-7.125 7.5-2.16555329-.24978614-4.3214067-.58552986-6.46875-.9609375l-3.91796875-.6796875-2.04443359-.36523438c-2.05948004-.36746917-4.12055192-.72458288-6.18212891-1.08007812C120.28185004 264.14092502 120.28185004 264.14092502 118 263c-1.706584-3.69383019-3.07050174-7.51976187-4.47827148-11.33642578-.70326507-1.8974842-1.42710024-3.78621291-2.1525879-5.67529297l-1.34960937-3.62890625-1.24682617-3.32910156C107.95475982 235.82258417 107.97852323 234.11833498 109 231c1.75-2.2890625 1.75-2.2890625 4-4.625 4.30066647-4.58324231 8.30120231-9.334648 12.25-14.22265625C127 210 127 210 128 209Zm282 15.375c2.00826381.51017568 4.00688184 1.05853484 6 1.625 1.66259692.26172095 3.3284021.50346448 4.99609375.73046875 1.81415871.27500135 3.62796058.55236656 5.44140625.83203125l2.65820312.35888672c6.07705806 1.1009674 6.07705806 1.1009674 8.25512696 3.67504883C438.43440853 233.69198341 439.23004212 235.77050267 440 238c.65160053 1.58754484 1.30396291 3.17477716 1.95703125 4.76171875.62336235 1.64008332 1.24182194 3.28203811 1.85546875 4.92578125l.98242188 2.50976562C447.73717939 258.0663869 447.73717939 258.0663869 446 262c-1.65147029 2.20577001-3.28804322 4.2136437-5.125 6.25-3.47042624 3.90485691-6.57206798 7.74095773-9.4375 12.125-1.53833008 1.98168945-1.53833008 1.98168945-3.4375 3.625-2.12988281.16821289-2.12988281.16821289-4.515625-.21484375-3.68894759-.53001927-7.30591344-.9133361-11.02734375-1.125-14.27434851-1.2920211-14.27434851-1.2920211-18.07763672-5.41845703-2.55899511-4.38523831-3.7438894-9.08770974-4.82226562-14.01513672-.77330076-3.09049206-2.16110576-5.84164482-3.49462891-8.7265625-1.06005325-3.34995183-1.40798454-4.74161931.05859375-7.9609375C388.23774243 243.81954299 390.5914176 241.46484126 393 239c.95989987-1.24441405 1.90312852-2.50181133 2.83203125-3.76953125C404.25386255 223.95103068 404.25386255 223.95103068 410 224.375Zm-159.57739258 3.5739746c2.13314512.36237914 4.26305963.62237907 6.41137695.87719728 9.86101943 1.43329107 9.86101943 1.43329107 13.125 5.78662109C271.26042073 237.71474593 272.16980567 240.74304405 273 244c.58692068 1.52032928 1.19605656 3.03244067 1.8359375 4.53125.51501958 1.32213982 1.02810806 2.64503385 1.5390625 3.96875.2719922.67546875.54398437 1.3509375.82421875 2.046875.97135824 2.53051276 1.80566386 4.8025174 1.78515625 7.53515625-1.575956 3.07061268-3.83336599 5.54219283-6.109375 8.10546875-4.01329059 4.57081782-7.67134857 9.15775677-10.94921875 14.30078125-3.67302764 2.88328944-8.30749543 1.70258614-12.6809082 1.18676758-3.03035232-.42030443-6.0413262-.912493-9.05737305-1.42504883l-3.13867188-.4765625-3.00585937-.5078125-2.71801758-.44433594C228.35167874 281.7709805 227.57805225 280.70655829 226 278c-1.79855028-4.08423887-3.24547074-8.29965806-4.75-12.5l-1.28515625-3.45703125L218.765625 258.71875l-1.10058594-3.03320312C216.96638661 252.86426314 216.88621113 251.6478163 218 249c1.21166992-1.7199707 1.21166992-1.7199707 2.73046875-3.42578125l1.68554687-1.91601562L224.1875 241.6875c1.13949092-1.28761175 2.27881458-2.57537155 3.41796875-3.86328125l1.75756836-1.8996582c1.68565821-1.86749105 1.68565821-1.86749105 2.8540039-4.01123047 4.37480893-6.99295451 11.01144968-5.22951915 18.20556641-3.96435547Zm-165.8696289 4.08935548c2.1339551.399064 4.26760653.7045982 6.4177246 1.00268555 9.75308179 1.55028894 9.75308179 1.55028894 12.74145509 4.84887695C104.77973744 240.2438491 105.40268087 242.4875218 106 245c.63194428 1.63951976 1.28461729 3.27118962 1.95703125 4.89453125.62163092 1.6381343 1.24011734 3.27746529 1.85546875 4.91796875l.98242188 2.52148438.91210937 2.43554687.82739258 2.17504883C113.08852336 264.3908118 112.89047463 265.66596638 112 268c-1.11987304 1.61230469-1.11987304 1.61230469-2.51171875 3.171875l-1.53808593 1.75341797L106.3125 274.75c-3.95974155 4.46022502-7.64429915 8.80289855-10.640625 13.9921875-3.46199094 2.60458197-8.27364818 1.4441573-12.33544921.90283203-2.89312785-.46059995-5.76965082-.97979628-8.6489258-1.52001953l-2.99414061-.52734375-2.86914063-.52734375-2.59106445-.47607422C64 286 64 286 61 284c-1.8199774-3.85621703-3.18868134-7.87490702-4.60864257-11.89404297-.7012215-1.97353838-1.42888943-3.93589648-2.15893555-5.89892578l-1.34570313-3.76171875-1.2434082-3.45263672C51 256 51 256 51.73486329 253.78173828c1.9959498-2.81096908 4.19911969-5.42753863 6.4526367-8.03173828.685459-.8024414.685459-.8024414 1.38476564-1.62109375.95567733-1.11606146 1.92715934-2.21874396 2.9123535-3.3088379 1.59175566-1.8210921 1.59175566-1.8210921 2.8881836-4.07568358 5.02035707-7.5009086 11.13675407-6.24189575 19.18017579-4.7060547ZM908 260c15.47657266 14.51697594 24.40674093 36.5198084 25.08447266 57.63134766C933.44620712 335.21517153 933.44620712 335.21517153 932 341H799c3.98359554 20.98184082 3.98359554 20.98184082 14.64453125 38.2578125C815 381 815 381 815 383l1.8203125.83203125C819 385 819 385 821.875 387.6875c14.00482653 12.23548013 31.61682515 14.38516415 49.44970703 13.52392578 15.36465251-1.21425343 27.32772991-7.95476629 39.04638672-17.55126953C913 382 913 382 914.9621582 382.08935547c2.91386961 1.30211257 3.70022366 3.06981279 5.2722168 5.82080078l1.73828125 2.99804687L923.75 394.0625l1.82421875 3.16601562C927.06100665 399.8126946 928.53558411 402.40309827 930 405c-10.1829883 11.17799963-25.35145665 20.39789918-40 24l-3.4609375.9453125C869.2559698 433.96716426 849.04314513 434.06191616 832 429l-3.48046875-1.03125c-23.23047227-7.63176447-42.37178741-22.24722084-53.921875-44.04125977C766.8856411 368.63623755 763.60889614 353.9290512 763.6875 336.8125l.01708984-3.88745117C764.03263917 307.28360919 771.99626292 285.564293 790 267l1.6328125-1.85546875C820.21048216 233.76653718 876.95711314 232.5372417 908 260Zm-95.03515625 26.62890625C806.15168488 294.85075005 801 305.14008212 801 316h96c2.37597651-7.12792954-1.15463503-17.94018123-4.3125-24.5625C886.47724242 280.48253234 877.04670399 273.67526562 865 270c-18.81823852-4.60001386-39.08369853 2.74063422-52.03515625 16.62890625ZM1106.625 259.625c16.70827663 15.45066441 24.16195764 38.49458357 25.515625 60.6796875.24657791 7.02747037-.14307274 13.71244667-1.140625 20.6953125H998c4.36523141 21.82615704 8.69077838 37.45528516 26.8828125 49.84179688 16.14485254 10.48678207 36.00243867 12.99099911 54.73681641 9.02905273 11.65642755-2.8821773 20.59481777-8.7122407 29.75146484-16.21069336C1112 382 1112 382 1113.9621582 382.08935547c2.91386961 1.30211257 3.70022366 3.06981279 5.2722168 5.82080078l1.73828125 2.99804687L1122.75 394.0625l1.82421875 3.16601562C1126.06100665 399.8126946 1127.53558411 402.40309827 1129 405c-17.62301261 18.29636215-41.13939563 26.82210325-66.07250977 27.47290039-29.0042503.22521663-54.23127769-8.32123773-75.34155273-28.81665039C969.81599218 384.84819791 961.5223854 359.57116377 962 334c1.1178807-26.29961426 9.68853783-51.4431598 29-70 32.2739965-28.11273158 81.94864068-32.05020878 115.625-4.375ZM1010 289.30859375c-5.85018535 7.67836827-10 16.97952851-10 26.69140625h96c0-12.50147503-2.0549154-22.20811608-10-32l-1.51953125-1.89453125c-7.33413412-8.19067533-18.00924237-12.30902866-28.765625-13.3203125-18.22760517-.74095956-33.94522319 6.93780127-45.71484375 20.5234375Zm742.26171875-31.734375C1771.14491953 274.30241802 1780.9982643 298.05244206 1783 323c1.57837076 29.19985902-2.39907559 58.79486244-22.01171875 81.796875L1759 407l-1.89453125 2.140625C1743.11604708 424.07027257 1723.07096781 431.00629498 1703.03125 432c-15.01733129.20857405-31.27057473-1.94884496-43.03125-12-5.02375079-5.06096376-9.54701937-10.43377422-14-16l-1 96h-34l-.01777649-8.15982056c-.05661976-25.33939691-.12967519-50.67870816-.21793842-76.0180149-.04498357-13.02811564-.08439237-26.05620378-.11072064-39.08437157-.02295928-11.35409978-.0563342-22.70811274-.10226601-34.06214368-.02396004-6.01299636-.04267063-12.02590659-.04891235-18.03894961-.0060382-5.65854794-.02599252-11.3168754-.0566616-16.9753418-.00880047-2.07766312-.01249867-4.15535503-.01073265-6.23303604.00164948-2.83578886-.015019-5.67090304-.03626442-8.50659943l.01468962-2.49384177C1610.35313699 285.55552366 1609.65334889 282.24296231 1607 278c-3.47736171-2.7786395-7.97215383-2.44294563-12.25-2.625L1587 275v-29c5.83576204-.09214361 11.66897124-.17168646 17.50488281-.21972656 1.98250918-.02003841 3.96495982-.04727697 5.94726563-.08203125 2.85984797-.04886173 5.71891037-.07128892 8.57910156-.08886719l2.65881348-.06256104C1627.61235074 245.54468456 1632.05804038 246.64561958 1637 250c4.65677454 4.89558349 5.19097936 9.16457211 5.5625 15.6875l.13085937 2.12695313c.10581423 1.72829893.20670644 3.45689797.30664063 5.18554687l2.125-2.78125c12.53597467-16.28544541 23.65089821-25.7257879 44.734375-28.77734375 22.48476274-2.64448451 44.52257208 1.73705588 62.40234375 16.1328125ZM1661 285c-9.96363072 9.52324925-14.65702414 20.55411614-17 34l-.3984375 2.22265625C1640.52217897 342.81995424 1644.20314077 366.01443703 1657 384c6.73103328 8.86494207 15.04122723 15.81220038 26.3046875 17.75 16.01606697 1.48554824 29.53495943-.15905362 42.68359375-10.20703125C1738.5321419 380.95145996 1745.58622519 366.3042271 1747 350c1.28315543-23.30301922-.59190339-44.62771675-15.890625-63.30859375-8.69762224-9.55127776-19.6645419-14.41471372-32.4453125-15.60546875C1684.42629506 270.75200266 1671.47578625 275.3074501 1661 285Zm276-36 2.984375 1.45703125c18.24525632 9.71347195 29.26000128 26.86856807 35.203125 46.29296875 3.96772777 14.71432645 4.69759069 29.16927449 2.8125 44.25h-133c4.01705641 20.08528206 7.91358237 36.90404983 25.0456543 48.61523438 16.28382205 10.65739535 34.28963307 14.16596632 53.5246582 10.66210937C1937.97068216 397.14733775 1948.47676821 389.77302047 1960 381c4.08211209 3.56947475 6.46601366 7.85269152 9.125 12.5l1.33984375 2.30078125C1972.41121185 399.15841323 1974.28954463 402.51498362 1976 406c-22.00325102 15.98299105-41.26719017 26.45284511-69.25 26.3125l-3.58911133-.01708984c-26.55812735-.36676979-50.13930362-9.82519964-68.77416992-28.83300782C1818.52739103 386.73751273 1810.08001681 364.95035729 1809 342l-.125-2.53125c-.57334253-23.79371489 6.00100815-47.88604899 21.125-66.46875l1.34765625-1.83984375c13.19797622-17.15333301 36.27543199-27.05565901 57.1484375-29.84375C1905.42337196 239.78785604 1921.60265385 241.32236155 1937 249Zm-77.9609375 37.37109375C1851.73141701 295.9470976 1848.37387657 304.13061717 1846 316h97c0-14.43849323-3.63817574-25.17406591-13.51953125-35.66796875-8.32351219-7.82541224-18.39861146-11.24286322-29.73046875-11.76953125-14.92973892.49621965-31.01645925 6.08638598-40.7109375 17.80859375ZM1373 246l14-.1875 4.3671875-.08276367c8.8559048-.05732177 15.63755397-.03520289 22.171875 6.37182617 5.21850495 6.50469384 7.82772846 14.59009416 10.8359375 22.2734375.69161159 1.73077744 1.38484309 3.46090834 2.07958984 5.19042969 1.45596181 3.63037907 2.90326286 7.26403803 4.34423828 10.90039062 2.14917326 5.41579279 4.33371855 10.81674561 6.52929688 16.21386719 3.20364897 7.87695196 6.39459408 15.75887306 9.57421875 23.64555359 2.05123441 5.0864686 4.10957042 10.16997526 6.17434692 15.2509613 1.29836423 3.19817396 2.59153663 6.39842951 3.88345337 9.59921265.59913131 1.48142 1.20033171 2.96200526 1.80383301 4.44165039C1467 379.82026424 1467 379.82026424 1467 388h2l.37792969-3.57275391c2.02711896-16.03638258 9.78373026-32.01733322 15.37207031-47.05224609 1.17058815-3.15517871 2.3400148-6.31078789 3.50952625-9.46636581l.71042919-1.91687394.71169854-1.92040252c.71329235-1.92403986 1.42724461-3.847834 2.14123726-5.77161408 3.07944568-8.30266046 6.11485901-16.6206081 9.12632751-24.94818115 1.13623249-3.1275175 2.27358707-6.25462396 3.41149902-9.38153076.7107627-1.96045934 1.41747369-3.92239296 2.11987305-5.88586426C1515.30375383 253.43515386 1515.30375383 253.43515386 1524 248c4.52563175-1.81302566 8.28860044-2.23684957 13.1484375-2.1953125l1.99209595.00857544c2.07834888.01110259 4.15625021.0361872 6.23446655.06173706 1.41796248.01004269 2.83593179.01916627 4.25390625.02734375 3.45733804.02021835 6.9137211.05938275 10.37109375.09765625v29l-11 2c-4.42138523 3.31603892-5.60487628 6.06497653-7.51171875 11.00390625l-.98570251 2.46478271c-1.07444304 2.69367634-2.13203829 5.39365472-3.19007874 8.09381104-.75377415 1.89723415-1.50884044 3.79395539-2.26513672 5.69018555-1.57306236 3.94700049-3.14050446 7.89616462-4.70410156 11.84692383-3.25750615 8.21840008-6.58273185 16.40919955-9.90811157 24.60031127-1.77576752 4.37610989-3.54647459 8.75426707-5.31796265 13.1321106-4.4763036 11.057843-8.95823134 22.11340515-13.44262695 33.16796875-3.35210849 8.26444599-6.69836961 16.53122047-10.0378418 24.80078125-3.58058415 8.86655386-7.17019185 17.72940765-10.76708984 26.58935547-1.16276604 2.8647784-2.3224577 5.73074763-3.47753907 8.59863281-9.19939167 22.81013293-18.50136328 42.72525628-42.48193359 52.94482422-15.71607172 5.75904373-32.68714434 5.98830173-48.09765625-1.05859375-5.84992499-3.16343697-10.82160379-7.51982631-15.8125-11.875.58720619-3.88529692 1.74882055-6.69534474 3.72265625-10.08203125l1.63085937-2.82226563L1378.0625 471.1875l1.72070312-2.96679688C1381.18254827 465.81006652 1382.58829929 463.4034149 1384 461c3.23159768 2.13321757 6.41704028 4.28255511 9.5 6.625 6.92284532 4.92761479 15.20046577 6.08836008 23.5 4.8125 8.94998674-2.09526821 15.80714991-8.02451834 21-15.4375 2.27873039-3.88758275 4.17161319-7.88373649 6-12l.85839844-1.89257812c.88261127-1.96417581 1.73526311-3.93881094 2.57910156-5.91992188l1.55859375-3.64453125c2.26277457-7.98574526-1.50718699-14.71812511-4.66796875-21.984375l-1.43527222-3.35418701c-1.27558505-2.9764258-2.55853133-5.94953472-3.84506988-8.92123795-1.34017765-3.10049772-2.67070246-6.20513321-4.00237274-9.30929184C1432.04178621 382.97760296 1429.02260005 375.98809641 1426 369c-.67422312-1.56051686-1.34838695-3.12105934-2.02246094-4.68164062-2.00418103-4.63780458-4.01144891-9.27423417-6.02954101-13.90600586-3.43083696-7.87907128-6.81561214-15.77690966-10.1862793-23.68188477-.94772179-2.22030993-1.89547597-4.44060604-2.84326172-6.66088867-1.41450464-3.31389722-2.82778756-6.62828502-4.23687744-9.94448853-2.51002331-5.90693513-5.03700411-11.80553998-7.61242676-17.68429565-.66795881-1.52489999-1.3319273-3.05156146-1.98986816-4.58081055-.75527547-1.74188355-1.54254611-3.46980578-2.33319092-5.19592285l-1.20141602-2.66552734C1384.10435568 275.54737721 1378.23008357 275.7471548 1373 275v-29Zm-1191.3125 2.75 2.8125.55859375c2.88646554.5702058 5.45538592.82510473 8.375.9765625 5.33563643.43812547 10.45007625.93386891 15.125 3.71484375 4.08073221 4.95656697 5.77745864 11.24929209 7.30810547 17.38745117.65639397 2.64918029.65639397 2.64918029 1.68457031 5.28173828C217.90003872 279.1432472 218.64329137 281.38851582 219 284c-1.578125 3.21484375-1.578125 3.21484375-4.25 5.9375-.9467153 1.00388728-1.89199592 2.0091292-2.8359375 3.015625l-1.47558594 1.51367188c-2.28641643 2.43698153-4.26738261 5.07925741-6.31347656 7.72070312-4.04123928 5.21185656-4.04123928 5.21185656-8.125 5.8125-4.68878601-.24681913-9.2975005-.98857816-13.9375-1.6875l-3.86523438-.43164062C174.44369119 305.29627017 171.41947337 304.66390113 168 303c-2.71659226-3.73137252-3.81279031-7.57903748-5-12-.60394908-1.57930903-1.22562988-3.15204245-1.87109375-4.71484375-.52530282-1.40637307-1.04752962-2.8138996-1.56640625-4.22265625l-.84960938-2.16601562c-1.1157936-3.05360226-1.82776363-5.30819535-1.19726562-8.53710938 1.91217665-3.03935446 4.18982634-5.5987458 6.671875-8.171875 3.38419301-3.53488166 6.43809915-7.02759202 9.3125-11 2.65800676-2.98018939 4.19242637-3.67906259 8.1875-3.4375Zm167.75.4375c1.84592942.42752045 3.69177067.85739733 5.52539062 1.33496094 2.1990701.51550588 4.37680394.8423311 6.61523438 1.14160156l2.32250977.32739258c1.49910556.21045413 2.99961767.41117027 4.50146484.60107422C370.48046875 252.92578125 370.48046875 252.92578125 374 254c3.44138897 4.8560415 5.17793208 10.44734217 7.1875 16l1.11523438 2.984375 1.05273437 2.890625.95776367 2.6171875c.73845912 2.69657025.99643567 4.72786972.68676758 7.5078125-1.09814453 1.83349609-1.09814453 1.83349609-2.6328125 3.5234375l-1.6953125 1.90625L378.875 293.375c-1.14858396 1.27851427-2.2970221 2.55715956-3.4453125 3.8359375l-1.73852539 1.88623047c-1.1308089 1.27234366-2.21694708 2.58576983-3.25537109 3.93457031-3.74513955 4.8291788-3.74513955 4.8291788-7.26782227 5.53857422L360.1875 308.125l-3.390625-.47265625L353 307c-1.49438877-.2099197-2.98920264-.41683001-4.484375-.62109375-1.52655671-.2270322-3.05261151-.45746692-4.578125-.69140625l-2.20043945-.31787109C337.14250584 304.58082258 334.97209078 303.54131085 332 300c-1.97057855-4.00972766-3.37668703-8.23124878-4.875-12.4375l-1.296875-3.43164062-1.1953125-3.31445313-1.09716797-3.01733398C322.89238582 274.4376497 323.39787174 272.981633 325 270c2.33033062-2.81978668 4.83900258-5.41125768 7.3671875-8.0546875 2.49321662-2.78914738 4.36457756-5.62124825 6.3828125-8.7578125 3.38625937-4.27168847 5.32079109-4.73432733 10.6875-4Zm-62.6171875 18.65625L290.125 268.5l3.72265625.7265625 2.01220703.40722656c2.29714117.39307686 4.56261424.59078838 6.88623047.76464844 11.85167891 1.04651115 11.85167891 1.04651115 15.296875 4.8671875C319.39738149 278.47413674 320.18322134 281.61414663 321 285c.53514989 1.47258488 1.09245133 2.93724908 1.66796875 4.39453125.58988808 1.51430565 1.17973212 3.02862845 1.76953125 4.54296875l.86230469 2.18603516c1.09467049 3.01703585 1.80845017 5.28942427 1.21972656 8.48193359-2.08291696 3.28233443-4.57132269 5.98272968-7.26953125 8.76953125-3.40315147 3.53160058-6.49161991 6.88567224-9.1875 11-1.91488355 2.23587559-2.73932816 2.58877425-5.7109375 2.921875C300.82993806 327.10557688 297.47544438 326.60364861 294 326c-1.50627291-.23201596-3.01279508-.46241802-4.51953125-.69140625C277.62332879 323.41555253 277.62332879 323.41555253 274 321c-1.93522046-3.75074011-3.40321119-7.66931446-4.88330078-11.61938477-.49262556-1.29058816-1.00497394-2.57382708-1.53710938-3.84863281C265.84883544 301.3834361 264.44658568 297.48569031 264 293c1.59143241-3.82924395 3.9886759-6.21251033 7-9l2.51171875-3.109375L275.6875 278.25c2.19179247-2.66285266 4.29857316-5.22889348 6.19921875-8.109375C284 268 284 268 286.8203125 267.84375ZM122.625 270.75l2.81640625.58203125c3.02042302.56695097 5.54016137.72132216 8.5859375.7421875C139.79472215 272.33485346 145.10385015 272.70615271 150 276c5.82112802 8.0210072 10.78761806 20.93817932 10 31-1.36328125 1.96484375-1.36328125 1.96484375-3.3125 3.9375-2.69720558 2.80185906-5.1160856 5.59374932-7.31640625 8.79296875l-1.37963867 1.94750977c-.89629343 1.27710203-1.76627308 2.57316938-2.60595703 3.88818359C144.03149071 327.44900212 142.94967646 328.73641508 141 330c-3.45719733.35478297-6.61009319-.33674424-10-1-1.88187606-.22666487-3.7647353-.44529861-5.6484375-.65625-1.90949158-.27688934-3.81835172-.55816743-5.7265625-.84375l-2.94140625-.3359375c-6.83457239-1.07467759-6.83457239-1.07467759-9.10131836-3.9831543C106.51252931 320.82093799 105.7427716 318.48148888 105 316c-.64164817-1.63574638-1.29405426-3.26731273-1.95703125-4.89453125-.62163092-1.6381343-1.24011733-3.27746528-1.85546875-4.91796875l-.98242188-2.52148438-.91210937-2.43554687-.82739258-2.17504883C97.91167117 296.61004696 98.11224772 295.33384859 99 293c1.10400391-1.61230469 1.10400391-1.61230469 2.4765625-3.171875l1.52172852-1.75366211L104.625 286.25c1.10618781-1.24545547 2.21166087-2.49154614 3.31640625-3.73828125l1.61376953-1.81884766c1.59213262-1.8182414 1.59213262-1.8182414 3.40966797-4.42333984 2.85879056-3.94918501 4.63634533-5.81042484 9.66015625-5.51953125Zm105.13671875 18.86328125c2.11233823.50481781 4.22279687 1.01752304 6.33203125 1.53515625 3.12877348.68207262 5.48571525.92911276 8.625.953125 5.2878478.24308346 9.95367927.61784372 14.28125 3.8984375 5.13447529 7.67242368 10.66930694 20.31653503 9.7277832 29.71826172-1.07611345 3.37381962-3.35793457 5.50493297-5.7902832 7.96923828-.99997528 1.04832682-1.99734127 2.0991483-2.9921875 3.15234375l-1.50292969 1.58935547C253.07275224 342.09883414 250.04286139 346.05910215 247 350c-2.9768691-.40617963-5.92585882-.86139777-8.8828125-1.3984375-2.99001709-.51034724-5.82821152-.63695975-8.859375-.640625C223.95427314 347.72347343 219.29504794 347.36014508 215 344c-4.82599588-7.51108831-10.74543297-21.22904694-9.75952148-30.18432617.88786673-2.12248952 1.96021808-3.52332005 3.48999023-5.24145508l1.68554688-1.91601562L212.1875 304.6875c1.13949093-1.28761175 2.27881458-2.57537156 3.41796875-3.86328125l1.71899414-1.90356445c1.12321322-1.28753001 2.20377355-2.61345448 3.23974609-3.97216797 3.75085037-4.85257526 3.75085037-4.85257526 7.19750977-5.33520508Zm-165.2890625 2.90625c3.26738595.42259566 6.32495362 1.06892128 9.4921875 1.96777344 2.13950562.53898294 4.21907972.83190656 6.41015625 1.08300781l2.18286133.28125L82.6875 296.125c6.50891877.83695296 6.50891877.83695296 8.52075195 3.43579102C92.29926638 301.66716848 93.16426212 303.78007856 94 306l.97387695 2.35351563c.99183027 2.42945462 1.92088108 4.87567764 2.83862305 7.33398437l.98242187 2.50976563C101.73717939 326.0663869 101.73717939 326.0663869 100 330c-1.65150304 2.20581374-3.28767062 4.21390141-5.125 6.25-3.47648522 3.90039249-6.51393972 7.69452492-9.3125 12.125-1.94897727 2.48175844-2.83539018 3.48361754-5.953125 4.08984375C76.3081473 352.28502827 73.24190872 351.65787687 70 351c-1.68128668-.19879621-3.36369634-.38822886-5.046875-.5703125-13.28393046-1.67091185-13.28393046-1.67091185-17.13671875-5.73046875C46.46767057 341.50205187 45.77479465 338.38255258 45 335c-.60979428-1.47827895-1.24711652-2.94539461-1.90625-4.40234375C41.17431738 326.19518128 39.30985076 321.84156323 39 317c1.90627885-4.83485234 5.25390233-7.51242869 9-11 .8760282-1.18792473 1.72312245-2.39762776 2.54296875-3.625 6.1957196-9.06213011 6.1957196-9.06213011 11.9296875-9.85546875ZM332 310c4.07563135.69075272 8.15072301 1.38459736 12.2253418 2.08129883 1.38592307.23652611 2.77199015.47221007 4.15820312.70703125 1.99362328.33786593 3.98668806.67902216 5.97973633 1.02026367l3.6340332.61889648C361 315 361 315 364 316c1.84854217 3.64467356 3.16246381 7.49614832 4.55371094 11.33642578.69094425 1.89888536 1.4069185 3.78690248 2.12597656 5.67529297l1.3359375 3.62890625 1.22753906 3.32910156C374.04291162 343.17181261 374.01584194 344.88957586 373 348c-1.75 2.2890625-1.75 2.2890625-4 4.625-4.28664761 4.55370713-8.20133035 9.29892212-12.0546875 14.22265625C355 369 355 369 352 370c-4.16574448-.30968862-8.27290908-.96286267-12.39672852-1.62133789-1.35641627-.21013986-2.71530475-.40491862-4.07617187-.58398438-11.17930715-1.47349422-11.17930715-1.47349422-14.1965332-4.43115234C320.2466542 361.26380706 319.61482156 359.27989211 319 357c-.62978071-1.59157348-1.27077866-3.17874578-1.921875-4.76171875-.61422746-1.640118-1.22357229-3.2820725-1.828125-4.92578125l-.95703125-2.50976562C311.21500081 336.4815613 311.21500081 336.4815613 312 333c1.58740322-2.07104196 3.10242617-3.8021437 4.9375-5.625C322.31448157 321.85432975 327.16924966 316.00434522 332 310Zm-155 2c1.50467164.23522989 3.00991154.46684626 4.515625.6953125C193.36561355 314.5770757 193.36561355 314.5770757 197 317c1.81315207 3.71275907 3.18655117 7.58900373 4.60864258 11.46679688.70132764 1.90134472 1.42896177 3.79113895 2.15893554 5.68164062l1.34570313 3.625 1.2434082 3.32568359C207 344 207 344 206.23339844 346.23852539c-1.66174667 2.37321896-3.43845972 4.59963441-5.29589844 6.82397461l-2.16015625 2.59765625-1.28491211 1.46020508c-1.63221176 1.97806755-1.63221176 1.97806755-3.25244141 4.74951172C192.03965856 365.16267891 190.1471985 367.58165509 187 370c-4.78509329.73105137-9.02973483.13344454-13.70385742-.86694336-2.11491744-.44688252-4.2283854-.78663708-6.36450196-1.11547852-9.54686257-1.65145696-9.54686257-1.65145696-12.63500976-4.69799804C153.21474918 361.23157727 152.60084567 359.27152567 152 357c-.6399864-1.59226231-1.29279491-3.17941918-1.95703125-4.76171875-.62336235-1.64008332-1.24182194-3.28203811-1.85546875-4.92578125l-.98242188-2.50976562C144.27486531 336.96582687 144.27486531 336.96582687 146 333c1.64606394-2.38366006 3.28991307-4.58616553 5.125-6.8125l1.52587891-1.85961914c1.00144463-1.21893333 2.00513348-2.43602689 3.01123047-3.65112305 1.48002611-1.80747482 1.48002611-1.80747482 3.16601562-4.40332031C163.79698997 309.17147393 169.09356415 310.54009794 177 312Zm103.37109375 19.08203125c2.71479277.4805502 5.38425675 1.09544966 8.06640625 1.73046875 1.38633682.28310116 2.77371658.56114468 4.16210937.83398437C302.14823701 335.57411851 302.14823701 335.57411851 305 337c1.70473818 3.71313845 3.06867981 7.55744532 4.47827148 11.39135742.70436741 1.90797493 1.4276437 3.80801572 2.15258789 5.70825195l1.34960938 3.63867188 1.24682617 3.3449707C315.00642366 364.02424756 315.17723502 365.24773421 314 368c-1.63742271 2.1237574-3.2874606 4.1236133-5.0625 6.125-4.8088458 5.4997326-9.40120257 11.14804127-13.9375 16.875-4.3644409-.5921565-8.72345376-1.21334443-13.07983398-1.86157227-1.48192704-.21633379-2.96503363-.42474371-4.44921875-.625-2.13585616-.28959549-4.2658211-.60761404-6.39672852-.93139648l-3.88793945-.55541992C264 386 264 386 262.22558594 383.75634766L261 381l-1.35717773-2.73217773c-8.66356575-19.2773507-8.66356575-19.2773507-7.02319336-25.69018555 2.32369879-4.14318948 5.66275725-7.03145858 9.42797851-9.85180664 2.10751347-1.73508223 2.10751347-1.73508223 3.86767578-4.38330078 4.36091093-5.97762882 6.88737544-8.10238873 14.45581055-7.26049805Zm-168.84765625.56640625c1.98260437.37400042 3.96505701.74914221 5.94384766 1.14282227l2.15771484.42358398 2.1875.45263672c2.21793003.33714517 4.20101934.32376752 6.4375.21142578 4.51102146-.04710559 8.19014417.10972948 11.75 3.12109375 5.0895803 8.11442215 10.56031556 20.51180045 9.72070312 30.23413086-.95021966 3.64669328-2.65661425 5.3371495-5.28320312 8.01586914-3.55769347 3.66336753-6.48282983 7.25847334-9.3125 11.5-3.261899 4.07575895-3.261899 4.07575895-6.62109375 4.75390625C125.24077719 391.2821402 122.20185341 390.67606122 119 390c-1.64036544-.25629652-3.28246504-.50164121-4.92578125-.73828125C100.6018576 387.3009288 100.6018576 387.3009288 98 386c-1.70799992-3.85530244-3.07050787-7.84510097-4.47827148-11.81860352-.70436099-1.98021211-1.42762794-3.9527882-2.1525879-5.9255371-.45104085-1.2580443-.90094807-2.51649574-1.34960937-3.77539063l-1.24682617-3.47192383C88.00325397 358.0126694 87.77435156 356.78249233 89 354c1.21166992-1.7199707 1.21166992-1.7199707 2.73046875-3.42578125l1.68554687-1.91601563L95.1875 346.6875c1.13949093-1.28761175 2.27881458-2.57537156 3.41796875-3.86328125l1.72558594-1.90332031c1.69658183-1.89912966 1.69658183-1.89912966 3.17382812-3.97460938 3.63895315-4.86086249 3.63895315-4.86086249 8.01855469-5.29785156Zm281.5817871 19.73999023c2.08107088.42382696 4.16609323.78659724 6.26000978 1.14086914 9.98169108 1.8245666 9.98169108 1.8245666 12.40429687 4.22143555 2.56552352 4.68971591 4.22682232 9.73432345 6.04296875 14.74926758l1.31054688 3.45703125 1.20898437 3.32421875 1.11645508 3.03320312C422 384 422 384 421.22192383 386.20458984c-2.363467 3.47271453-5.09173457 6.61985391-7.80786133 9.81884766-2.44011017 2.89740466-2.44011017 2.89740466-4.328125 5.953125C407.23476263 404.77301816 405.6272279 406.91098892 403 409c-3.32899742.66773494-5.76182937.37273626-9.09765625-.265625-3.1542008-.59358334-5.67248903-.78367178-8.8359375-.78125C379.53068105 407.7312823 374.58137165 407.35332346 370 404c-5.24203604-7.64881669-10.61507987-20.23102742-9.75732422-29.6706543.81886027-2.51861568 1.72593813-3.89239754 3.48779297-5.8527832l1.68554688-1.90625L367.1875 364.625c1.13948074-1.27850519 2.27880436-2.55715044 3.41796875-3.8359375.57951416-.6199585 1.15902832-1.239917 1.75610352-1.8786621 1.6904496-1.85636946 1.6904496-1.85636946 2.86865234-4.01025392 4.38126773-6.99543845 10.75611528-4.96856363 17.875-3.51171875ZM213 352c4.23503138.23548554 8.42108098.80875635 12.61816406 1.40161133 1.41129316.18926068 2.82566541.35692512 4.2421875.50195312C234.48978539 354.3822284 238.71473638 355.06622978 243 357c2.8047905 3.72391606 3.85340274 7.52650126 5 12 .58650932 1.50884749 1.19551618 3.0093273 1.8359375 4.49609375.51496793 1.31304011 1.02805506 2.62681974 1.5390625 3.94140625l.82421875 2.02148438C253.70076356 383.35145054 254.52982474 386.04005544 253 390c-1.53125 2.0703125-1.53125 2.0703125-3.5 4.125-4.1072349 4.4117496-7.92237592 9.00383476-11.71484375 13.6875C236.89306621 408.90565191 235.99769879 410.00230121 235 411c-7.39095919-.04927306-14.77473013-1.14708508-22.0625-2.3125l-2.19921875-.31933594C206.14266494 407.58286446 203.97201126 406.54121611 201 403c-1.97057855-4.00972766-3.37668703-8.23124878-4.875-12.4375l-1.296875-3.43164062-1.1953125-3.31445313-1.09716797-3.01733398C191.89083082 377.42952388 192.38708268 375.98690727 194 373c1.68579407-2.02686684 3.36530767-3.91965872 5.1875-5.8125.99160648-1.05400959 1.98249084-2.10869901 2.97265625-3.1640625l1.46533203-1.55175781c2.44764248-2.62067298 4.78609008-5.33481928 7.13232422-8.04589844C211.48111988 353.59556994 212.2214037 352.7785963 213 352Zm112.75 20.75c2.42403578.37140197 4.84025401.795013 7.25 1.25 1.68784291.26274772 3.37672616.51886962 5.06640625.76953125C342.71940087 375.46635653 347.36009045 376.22096556 352 377c1.5990225 4.05141525 3.18344112 8.10814854 4.75463867 12.17041016.53639396 1.38078082 1.0767307 2.76003678 1.62109375 4.13769531.78234763 1.98194732 1.55029463 3.96896804 2.31567383 5.95751953l1.41235352 3.61816406C362.97879882 405.92628389 363.24923098 407.15554111 362 410c-2.02665455 2.53784197-4.25058842 4.82607024-6.48828125 7.1796875-2.57901194 2.76769389-2.57901194 2.76769389-4.6171875 5.953125C348.78418664 426.22904043 346.92608712 428.6528473 344 431c-4.18755758.78919354-7.78778522.2373393-11.93603516-.61767578-2.27217037-.42089175-4.52580248-.65668159-6.82568359-.87841797-1.62140104-.18614467-3.24250264-.37491771-4.86328125-.56640625l-2.33374023-.21533203c-3.11397324-.45160024-5.27463471-.77984882-7.31640625-3.28955078C309.63635833 423.328772 308.80503278 421.22746089 308 419l-.96972656-2.3371582c-.99699552-2.41285735-1.92527338-4.84376129-2.84277344-7.2878418l-.98242188-2.484375C301.47330248 402.27750102 300.22922774 398.82382789 302 394c1.65870324-2.12646903 3.23008084-3.92974776 5.125-5.8125 3.59324039-3.65820617 6.53684933-7.11511002 9.25-11.5 2.88393095-3.74369441 4.68730091-4.21498345 9.375-3.9375Zm-62.70703125 19.82421875L267 393l2.74072266.05712891C277.44101583 393.27706707 285.32987497 393.87522149 292 398c5.95839477 7.72900516 10.61273232 20.3829911 9.70092773 30.22973633-.92636935 3.6612724-2.63188816 5.33649507-5.26342773 8.02026367-3.5889258 3.68004098-6.41917436 7.2448728-9.1875 11.5625-1.95703125 2.46875-1.95703125 2.46875-4.25 4.1875-4.22307102.39437239-7.88274711-.45979359-11.96289063-1.52246094-2.19907009-.51550588-4.37680393-.8423311-6.61523437-1.14160156l-2.32250977-.32739258c-1.49910556-.21045413-2.99961767-.41117027-4.50146484-.60107422C255.51953125 448.07421875 255.51953125 448.07421875 252 447c-3.6241495-5.12904517-5.65732527-11.12740593-7.9375-16.9375l-1.36132813-3.24804687c-3.0809142-7.91045541-3.0809142-7.91045541-1.29492187-12.16210938L244 412c.88106918-1.06687175 1.75453256-2.14006102 2.62109375-3.21875.93557085-1.09651521 1.87441251-2.19024762 2.81640625-3.28125.93641385-1.09356513 1.87261291-2.18731423 2.80859375-3.28125l1.40185547-1.6015625c1.37813064-1.60066203 1.37813064-1.60066203 2.56738281-3.359375 2.10876816-2.93693579 3.18488989-4.17388977 6.82763672-4.68359375ZM374.6340332 411.7277832 377 412l2.75073242.31323242c3.03330063.39604 6.043875.87479392 9.06176758 1.37426758l3.13867187.45117187 3.00585938.49804688 2.71801757.4284668c3.96181177 1.59296201 4.86417204 4.90005601 6.5234375 8.6262207 1.2224618 3.0963064 2.4248539 6.19933976 3.61401368 9.30859375l1.31054687 3.2734375 1.20898438 3.1640625 1.11645507 2.87109375C412.12436502 445.60690565 411.56114522 447.0620722 410 450c-1.84765625 2.2890625-1.84765625 2.2890625-4.0625 4.625-4.93125842 5.22552881-9.41751997 10.79218228-13.9375 16.375-4.22011387-.64148777-8.43731885-1.29901699-12.65258789-1.97143555-1.43388028-.2264192-2.8684585-.44846398-4.30371094-.66601563-2.06474353-.31374953-4.12645339-.6432233-6.18823242-.97583007l-3.76098633-.5871582C361.91764782 465.97872161 360.82570903 465.6514416 359 463c-1.8566434-4.0379311-3.26157738-8.25160484-4.75-12.4375l-1.28515625-3.47070313-1.19921875-3.33789062-1.10058594-3.05249024c-.68869296-2.79749912-.72522146-4.06318735.33496094-6.701416 2.01935972-2.78112714 4.23844303-5.34288786 6.46484375-7.9609375 1.68151396-2.01574403 3.3009239-4.08505205 4.8515625-6.203125.74121093-.99773439 1.48242187-1.99546876 2.24609375-3.0234375l2.00390625-2.79296876c2.80548287-2.3281455 4.47358372-2.52168975 8.06762695-2.29174805ZM208.625 415.125c2.10160338.41459695 4.17708019.88597074 6.25683594 1.39892578 2.1172689.47587302 4.18912114.76240304 6.34472656 1.00341797 1.34126986.17745048 2.68242095.3558015 4.0234375.53515625l3.640625.47265625c4.06829994 1.91659859 4.67033869 3.8251092 6.21533203 7.91333008L236 429c.64987687 1.63249461 1.30221575 3.26401131 1.95703125 4.89453125.62163092 1.6381343 1.24011733 3.27746528 1.85546875 4.91796875l.98242188 2.52148438.91210937 2.43554687.82739258 2.17504883C243.08714528 448.38472792 242.87085 449.66722933 242 452c-1.65568974 2.32598628-3.32834222 4.53879717-5.125 6.75l-1.52148438 1.87329102c-1.00042939 1.22945304-2.00266818 2.45743628-3.00683593 3.68383789-1.13843824 1.43109694-2.20119913 2.92190213-3.24511719 4.42333984-3.62581085 4.99654422-3.62581085 4.99654422-7.234375 5.6640625C218.82270472 474.21797034 215.99027921 473.61305615 213 473c-1.74509285-.23162827-3.49131095-.45486006-5.23828125-.671875-1.90019268-.27290523-3.79993266-.54898014-5.69921875-.828125l-2.80126953-.33496094c-6.43706614-1.07854783-6.43706614-1.07854783-8.64111328-3.98413086C189.55217207 464.82205463 188.76393728 462.47331552 188 460c-.65383118-1.6356375-1.31795122-3.26719887-1.9921875-4.89453125-.6307465-1.63811644-1.2583476-3.27744743-1.8828125-4.91796875l-1.0078125-2.52148438-.921875-2.43554687-.84326172-2.17504883C180.89200369 440.36947231 181.56657605 439.27171967 183 437c2.09262077-2.72969771 4.29749391-5.33765109 6.53125-7.953125 2.52188691-2.98796939 2.52188691-2.98796939 4.5-6.28125 4.10728522-6.22411684 7.02039984-8.79797807 14.59375-7.640625Zm53.546875 39.47070313c.66966797.13929932 1.33933594.27859862 2.02929688.42211914 2.05182691.420292 4.10373955.7456917 6.17382812 1.06225585 9.29823057 1.5987482 9.29823057 1.5987482 12.30371094 4.59155273 1.08331163 2.08928131 1.71072516 4.05737525 2.32128906 6.32836916.62980441 1.5915641 1.27081842 3.1787294 1.921875 4.76171873.61422746 1.64011801 1.22357229 3.2820725 1.828125 4.92578127l.95703125 2.50976561c3.11899729 8.43209441 3.11899729 8.43209441 2.29296875 11.80273439-1.7935831 2.65123053-3.89428228 4.96379537-6.0625 7.3125l-1.70117188 1.89648436c-1.14997082 1.28139607-2.31688699 2.54776342-3.49926757 3.79931642-1.80198195 1.9632068-1.80198195 1.9632068-3.19873047 4.30761717C275.84453902 510.82795377 274.57390551 512.38087224 272 514c-4.53284558.39890114-8.70126898-.20551215-13.12573242-1.09326172-2.06109037-.40660469-4.12295883-.72504383-6.20043946-1.03564454-9.36518562-1.57478976-9.36518562-1.57478976-12.35693359-4.53833006C239.23345494 505.24169902 238.60837802 503.27327073 238 501c-.62960463-1.59164314-1.27062523-3.1788089-1.921875-4.76171876-.61422746-1.640118-1.22357229-3.28207249-1.828125-4.92578123l-.95703125-2.50976564c-3.09556828-8.36875494-3.09556828-8.36875494-2.29296875-11.80273436 1.76072729-2.42980368 3.48608807-4.55212498 5.5-6.75l1.53125-1.7265625c1.06373092-1.1966973 2.14570865-2.3773658 3.24316406-3.5432129 1.81372067-1.99254075 1.81372067-1.99254075 3.38085938-4.4897461 4.99148644-7.03376625 9.31797787-7.38824263 17.51660156-5.89477539Z"/>
</svg>
