<svg xmlns="http://www.w3.org/2000/svg" xml:space="preserve" viewBox="0 0 1210 390">
  <title>Incogni</title>
  <path d="M-111.534-111.534c-59.745 0-108.178 49.936-108.178 111.535 0 61.598 48.433 111.533 108.178 111.533C-51.788 111.534-3.356 61.599-3.356.001c0-61.599-48.432-111.535-108.178-111.535" transform="matrix(0 -1 -1 0 567.444 73.331)"/>
  <path d="M0 206.24c-14.971-10.024-27.666-22.961-37.191-37.952h-50.982c-36.968 0-66.935-29.177-66.935-65.169 0-35.991 29.967-65.168 66.935-65.168h50.521C-28.305 23.013-15.825 10.084-1.081 0h-87.092C-146.669 0-194.09 46.168-194.09 103.119c0 56.952 47.421 103.121 105.917 103.121H0Z" transform="translate(481.518 81.908)"/>
  <path d="M1238.65 493.189h-44.09v-206.21h44.09v206.21Zm-21.66-233.53c-7.99 0-14.69-2.619-20.12-7.859-5.41-5.239-8.12-11.726-8.12-19.461 0-7.734 2.71-14.221 8.12-19.461 5.43-5.239 12.13-7.859 20.12-7.859 7.73 0 14.32 2.62 19.73 7.859 5.41 5.24 8.12 11.727 8.12 19.461 0 7.735-2.71 14.222-8.12 19.461-5.41 5.24-12 7.859-19.73 7.859m-133.82 23.95c16.76 0 31.72 3.369 44.87 10.105 13.41 6.736 23.85 16.716 31.33 29.94 7.47 13.223 11.21 29.191 11.21 47.904v121.63h-43.7V377.92c0-18.464-4.77-32.56-14.31-42.291-9.54-9.979-22.56-14.969-39.06-14.969-16.51 0-29.66 4.99-39.46 14.969-9.54 9.731-14.31 23.827-14.31 42.291v115.268h-44.088v-206.21h44.088v23.577c7.22-8.483 16.38-15.095 27.46-19.835 11.35-4.74 23.34-7.111 35.97-7.111M907.103 389.895c0-14.221-3.095-26.571-9.283-37.05-5.93-10.479-13.794-18.464-23.592-23.951-9.799-5.49-20.371-8.234-31.715-8.234-11.345 0-21.917 2.744-31.715 8.234-9.799 5.239-17.792 13.098-23.98 23.576-5.93 10.23-8.895 22.455-8.895 36.677 0 14.221 2.965 26.696 8.895 37.424 6.188 10.729 14.181 18.963 23.98 24.701 10.056 5.488 20.628 8.233 31.715 8.233 11.344 0 21.916-2.745 31.715-8.233 9.798-5.489 17.662-13.473 23.592-23.952 6.188-10.728 9.283-23.204 9.283-37.425M833.23 283.609c16.502 0 31.071 3.244 43.706 9.73 12.891 6.238 22.947 14.097 30.167 23.578v-29.939h44.477v209.578c0 18.962-4.124 35.802-12.375 50.523-8.252 14.97-20.242 26.696-35.97 35.18-15.471 8.482-34.036 12.723-55.695 12.723-28.878 0-52.857-6.611-71.937-19.835-19.082-12.974-29.911-30.687-32.49-53.142h43.705c3.353 10.728 10.444 19.336 21.273 25.822 11.086 6.737 24.237 10.105 39.449 10.105 17.792 0 32.103-5.24 42.932-15.718 11.088-10.479 16.631-25.698 16.631-45.658v-34.431c-7.477 9.73-17.663 17.964-30.555 24.7-12.634 6.488-27.074 9.731-43.318 9.731-18.565 0-35.583-4.492-51.053-13.473-15.212-9.232-27.331-21.956-36.356-38.173-8.767-16.467-13.15-35.055-13.15-55.763 0-20.709 4.383-39.046 13.15-55.014 9.025-15.968 21.144-28.319 36.356-37.051 15.47-8.982 32.488-13.473 51.053-13.473Zm-616.606 0c16.76 0 31.715 3.369 44.865 10.105 13.408 6.736 23.851 16.716 31.328 29.94 7.478 13.223 11.216 29.191 11.216 47.904v121.63h-43.705V377.92c0-18.464-4.77-32.56-14.31-42.291-9.54-9.979-22.56-14.969-39.063-14.969-16.502 0-29.652 4.99-39.451 14.969-9.54 9.731-14.31 23.827-14.31 42.291v115.268h-44.091v-206.21h44.091v23.577c7.22-8.483 16.374-15.095 27.46-19.835 11.346-4.74 23.336-7.111 35.97-7.111M85.054 493.19H40.963V286.98h44.091v206.21ZM63.395 259.661c-7.993 0-14.697-2.62-20.112-7.86-5.414-5.239-8.122-11.726-8.122-19.461 0-7.734 2.708-14.221 8.122-19.46 5.415-5.24 12.119-7.859 20.112-7.859 7.736 0 14.311 2.619 19.726 7.859 5.414 5.239 8.122 11.726 8.122 19.46 0 7.735-2.708 14.222-8.122 19.461-5.415 5.24-11.99 7.86-19.726 7.86" transform="translate(-35.161 -205.019)"/>
</svg>
