<svg xmlns="http://www.w3.org/2000/svg" viewBox="0 0 224 129.485">
  <title>OLX</title>
  <path d="M52.159 14.068C23.37 14.068.035 37.405.035 66.192c0 28.788 23.336 52.124 52.124 52.124 28.787 0 52.124-23.336 52.124-52.124 0-28.787-23.337-52.124-52.124-52.124Zm0 67.697c-8.734 0-15.815-7.08-15.815-15.814s7.08-15.37 15.815-15.37c8.734 0 15.814 6.636 15.814 15.37 0 8.734-7.08 15.814-15.814 15.814Zm92.053 46.22h-30.02V1.5h30.02v126.485Zm12.611-31.031h20.215l11.425-11.425 11.426 11.425h20.215V76.961l-11.536-11.536 11.536-11.536V33.614h-19.935L188.463 45.32l-11.706-11.706h-19.934V53.89l11.536 11.536-11.536 11.536v19.993Z"/>
</svg>
