<?xml version="1.0" encoding="UTF-8" standalone="no"?>
<!DOCTYPE svg PUBLIC "-//W3C//DTD SVG 1.1//EN" "http://www.w3.org/Graphics/SVG/1.1/DTD/svg11.dtd">
<svg width="100%" height="100%" viewBox="0 0 5331 1016" version="1.1" xmlns="http://www.w3.org/2000/svg" xmlns:xlink="http://www.w3.org/1999/xlink" xml:space="preserve" xmlns:serif="http://www.serif.com/" style="fill-rule:evenodd;clip-rule:evenodd;stroke-linejoin:round;stroke-miterlimit:2;">
    <g transform="matrix(1,0,0,1,-3,-7)">
        <path d="M1366,942C1358,940 1348.17,934.5 1336.5,925.5C1324.83,916.5 1317.67,903.667 1315,887C1315,884.333 1314.83,880.833 1314.5,876.5C1314.17,872.167 1314,865.333 1314,856L1314,63C1313.33,60.333 1312.67,58.5 1312,57.5C1311.33,56.5 1310,55.667 1308,55C1307.33,54.333 1305.17,53.833 1301.5,53.5C1297.83,53.167 1296,52.667 1296,52C1296,51.333 1296.5,50.833 1297.5,50.5C1298.5,50.167 1299.67,50 1301,50L1471,50C1501.67,52.667 1523,57.833 1535,65.5C1547,73.167 1557.33,79.667 1566,85C1583.33,97 1600.5,112.667 1617.5,132C1634.5,151.333 1647.33,176.333 1656,207C1676.67,273.667 1682.17,328.667 1672.5,372C1662.83,415.333 1650,447.333 1634,468C1617.33,489.333 1594.33,511.167 1565,533.5C1535.67,555.833 1488.33,567 1423,567L1374,567C1368,577 1364,584.167 1362,588.5C1360,592.833 1357,598.667 1353,606L1429,606C1457.67,606 1492.5,604.5 1533.5,601.5C1574.5,598.5 1618.67,587.667 1666,569C1687.33,562.333 1709,551.667 1731,537C1753.67,523 1773.83,504.5 1791.5,481.5C1809.17,458.5 1823,430.667 1833,398C1843.67,365.333 1847.33,327 1844,283C1840.67,238.333 1830.67,200 1814,168C1796.67,136.667 1775.33,110.667 1750,90C1724.67,69.333 1697,53 1667,41C1636.33,29.667 1606.33,21.333 1577,16C1559,12 1532.67,9.5 1498,8.5C1463.33,7.5 1425,7 1383,7L990,7L990,49L1123,49L1136.5,57C1145.5,62.333 1151.67,75 1155,95L1155,878C1155,882.667 1154.5,886.833 1153.5,890.5C1152.5,894.167 1151.67,896.333 1151,897C1149.67,901 1146.17,907.5 1140.5,916.5C1134.83,925.5 1126,933 1114,939C1110.67,940.333 1106.67,941.5 1102,942.5C1097.33,943.5 1092.33,944 1087,944C1087,943.333 1087.17,942.5 1087.5,941.5C1087.83,940.5 1088,939.667 1088,939C1091.33,922.333 1093.5,899.5 1094.5,870.5C1095.5,841.5 1093.67,822 1089,812C1087.67,809.333 1086.17,807.667 1084.5,807C1082.83,806.333 1080.67,805 1078,803C1073.33,800.333 1068.33,796.833 1063,792.5C1057.67,788.167 1052.33,783 1047,777C1045.67,775 1043.5,771.667 1040.5,767C1037.5,762.333 1035,756 1033,748C1029.67,734.667 1025.83,720.333 1021.5,705C1017.17,689.667 1013.33,675.667 1010,663C1009.33,661 1008.83,658.667 1008.5,656C1008.17,653.333 1008,651.667 1008,651C1008,648.333 1008.17,646.833 1008.5,646.5C1008.83,646.167 1009.33,645.333 1010,644C1011.33,640 1013,636.667 1015,634C1017,631.333 1018,627.333 1018,622C1018,618 1017.67,614.333 1017,611C1016.33,607.667 1014.33,602.667 1011,596C1007.67,588.667 1003.67,582.667 999,578C994.333,573.333 989.333,569 984,565L964,549C962.667,547 961.5,544.833 960.5,542.5C959.5,540.167 959,536.667 959,532L959,518L957,501L957,491C959,490.333 962,490 966,490L972,490L970,483C967.333,471.667 963,458.667 957,444C951,429.333 940.667,410.333 926,387C927.333,385.667 930.167,384.333 934.5,383L941,381L939,378C929,360 918.333,343.667 907,329C895.667,314.333 882.333,301 867,289C868.333,288.333 871.167,286.667 875.5,284L882,280L880,277C859.333,256.333 838,241.667 816,233C794,224.333 774.667,218.667 758,216C758.667,214.667 759.833,212.5 761.5,209.5L764,205L764,204C716.667,190 676.333,188.5 643,199.5C609.667,210.5 586,221.667 572,233L569,234.5C567,235.5 565.667,236.667 565,238C562.333,235.333 558.333,232.833 553,230.5C547.667,228.167 541.333,228 534,230C530,231.333 526.167,234 522.5,238C518.833,242 515.667,246.333 513,251C510.333,257 508,265 506,275C504,285 502.667,294.333 502,303C495.333,313.667 490.5,321.5 487.5,326.5C484.5,331.5 483.333,339 484,349L484,353C484.667,355.667 485.167,358.333 485.5,361C485.833,363.667 487,366.667 489,370L491.5,373.5C493.167,375.833 494.333,377.333 495,378C495,378.667 494.833,379.833 494.5,381.5L494,384C493.333,384.667 493,385.667 493,387C493,388.333 492.667,389.333 492,390C484,382.667 474.833,376.333 464.5,371C454.167,365.667 443.333,362 432,360C384.667,352.667 344.167,365.833 310.5,399.5C276.833,433.167 258,454 254,462L253,465L260.5,469.5C265.5,472.5 269,474.333 271,475C269.667,477 268.5,479.167 267.5,481.5L266,485L261,494C250.333,516.667 238.167,539.667 224.5,563C210.833,586.333 196,602 180,610L142,628L134,632C128.667,634.667 124,636.667 120,638C120,638.667 119.667,639 119,639L118,639L115,641C113,642.333 111.667,643 111,643C111,642.333 111.333,641.333 112,640C112.667,638.667 113.667,637.333 115,636C114.333,634.667 114,633.5 114,632.5L114,629C114,626.333 114.167,624.167 114.5,622.5L115,620C116.333,611.333 123.167,604.333 135.5,599C147.833,593.667 157.667,589.667 165,587L170,586C184,580.667 196,573.667 206,565C216,556.333 222.333,547 225,537C225.667,535 226.167,533 226.5,531C226.833,529 227,527 227,525C227,522.333 226.5,519.833 225.5,517.5C224.5,515.167 223.667,512.667 223,510C216.333,500.667 206.5,490.667 193.5,480L174,464L141,490C119,507.333 102.667,518.667 92,524L89,523L94,532.5C97.333,538.833 102,543.667 108,547C110,547.667 116.833,549.333 128.5,552C140.167,554.667 150,551.333 158,542C161.333,539.333 164.167,536.167 166.5,532.5C168.833,528.833 170.667,525.333 172,522C174.667,517.333 176.833,513.833 178.5,511.5C180.167,509.167 182.667,508 186,508L187,508C187.667,508 188.667,508.333 190,509L194,511C195.333,513 196.333,514.833 197,516.5C197.667,518.167 198.333,520 199,522L195.5,530.5C193.167,536.167 186.667,542 176,548C172.667,548.667 168.667,550.167 164,552.5C159.333,554.833 154.333,557 149,559C137,563.667 124.667,568.5 112,573.5C99.333,578.5 89.667,584.333 83,591C77.667,595.667 73.833,604.5 71.5,617.5C69.167,630.5 68.333,643.333 69,656C69,660 69.167,664 69.5,668C69.833,672 70.667,675.667 72,679L70,687C69.333,689.667 69,692.667 69,696C67.667,702 66.833,709 66.5,717C66.167,725 66,733.333 66,742L66,754C66,761.333 67.333,768.333 70,775C71.333,780.333 72.667,785.833 74,791.5C75.333,797.167 76.333,803 77,809L77,810C77,815.333 74,819.833 68,823.5C62,827.167 56.667,831 52,835L39,844C35,847.333 30.667,851.833 26,857.5C21.333,863.167 19,870.333 19,879L19,882C19,882.667 19.333,883.667 20,885C20,887.667 18.667,892.167 16,898.5C13.333,904.833 11,909.667 9,913C6.333,919 4.667,925.5 4,932.5C3.333,939.5 3,946 3,952C3,956 3.5,960.833 4.5,966.5C5.5,972.167 8,976.333 12,979L14,981C14,981.667 14.833,983.833 16.5,987.5C18.167,991.167 19.667,995.667 21,1001L25,1020L153,1020L147,994L140,977.5C135.333,966.5 128.667,957.667 120,951L116,947L116,931C116,929 116.333,927 117,925L119,917C119.667,915 121.167,912.667 123.5,910C125.833,907.333 129,905.333 133,904C137.667,902 140.667,900.667 142,900C143.333,899.333 152.333,895.333 169,888C171,890 173.333,891.833 176,893.5C178.667,895.167 181.667,896.667 185,898C189,922.667 207.167,939.333 239.5,948C271.833,956.667 288,968.333 288,983L288,985L290,1009L398,1009L398,986C394,967.333 389.667,952.5 385,941.5L378,925C368,915 358.833,907.667 350.5,903C342.167,898.333 332,891.667 320,883C317.333,881 315,877.667 313,873C311,868.333 309,864.667 307,862C305,856.667 303.833,854 303.5,854C303.167,854 302.667,851.667 302,847C301.333,845.667 300.333,844 299,842L297,839C309,841.667 318.833,842.833 326.5,842.5C334.167,842.167 342.333,842.333 351,843L374,842L376,842C382,849.333 386,858.833 388,870.5C390,882.167 391.333,893.333 392,904L393,927C393.667,939 394.833,948.5 396.5,955.5C398.167,962.5 402.667,968.667 410,974C410,974.667 410.833,976.5 412.5,979.5C414.167,982.5 415.333,985.667 416,989L421,1008L546,1008L537,976L525,953C521,947.667 516.167,942.667 510.5,938C504.833,933.333 501.667,931 501,931C512.333,927.667 521.5,924 528.5,920C535.5,916 542,906.667 548,892L549,890C551,884.667 552.333,878.833 553,872.5C553.667,866.167 554,860 554,854C554,850 553.667,845.5 553,840.5C552.333,835.5 551,830.667 549,826C554.333,827.333 560.333,828.333 567,829C573.667,829.667 579.667,830 585,830C587,830 590,827.833 594,823.5C598,819.167 603.667,810 611,796C613,792 617.5,783.667 624.5,771L635,752C635,751.333 639,749 647,745C655,741 660,738 662,736C662,737.333 661.667,738.5 661,739.5L658,744C655.333,750.667 653.167,757.833 651.5,765.5C649.833,773.167 649,784.333 649,799L649,805C649,813 650.5,822.667 653.5,834C656.5,845.333 660.667,856.667 666,868C666,870.667 663.167,874.167 657.5,878.5C651.833,882.833 647.667,885.333 645,886C639.667,886.667 634.667,887.5 630,888.5C625.333,889.5 621,890.667 617,892C599,899.333 585.5,911.167 576.5,927.5C567.5,943.833 562.333,957.333 561,968L559,994L587,995L610,995C616.667,995 623,995.167 629,995.5C635,995.833 639,996.667 641,998C641.667,998 642,998.667 642,1000C642,1001.33 642.667,1002.33 644,1003C644.667,1004.33 648.333,1006 655,1008C661.667,1010 672.333,1008.33 687,1003C694.333,1000.33 701.667,996.667 709,992C716.333,987.333 726,988 738,994C742.667,996.667 748.167,997.667 754.5,997C760.833,996.333 766.667,993 772,987C776,983 781.333,972.667 788,956C794.667,939.333 801.667,922 809,904C817.667,882 825.167,863.167 831.5,847.5C837.833,831.833 841.333,822.667 842,820C844.667,822 850.167,825.833 858.5,831.5L871,840C879,846.667 887.167,853.167 895.5,859.5C903.833,865.833 910.333,869.333 915,870C919,870.667 922.667,871.167 926,871.5C929.333,871.833 932.333,872 935,872L943,872C946.333,872.667 949.333,875 952,879C954.667,883 956.333,889 957,897C955.667,897 953.333,897.167 950,897.5C946.667,897.833 943,898 939,898L932,898C904.667,899.333 884.5,909.167 871.5,927.5C858.5,945.833 851.667,961.667 851,975L848,1000L879,1001C890.333,1001.67 900,1003 908,1005C916,1007 921.667,1009 925,1011C925.667,1011.67 925.833,1012.5 925.5,1013.5C925.167,1014.5 925.667,1015.67 927,1017C928.333,1017.67 933.833,1019.17 943.5,1021.5C953.167,1023.83 964.667,1022.33 978,1017L981,1015L994.5,1007.5C997.5,1005.83 1004.67,1007.67 1016,1013C1021.33,1016.33 1027.83,1017 1035.5,1015C1043.17,1013 1049.67,1009.67 1055,1005C1058.33,1003.67 1061,1001.5 1063,998.5C1065,995.5 1067.33,991.333 1070,986L1475,986L1475,946L1391.5,946C1382.5,946 1374,944.667 1366,942ZM344,937L348,945C350.667,950.333 353.333,957 356,965C356,965.667 356.5,966.167 357.5,966.5C358.5,966.833 359,967.333 359,968C358.333,968.667 357.667,969 357,969C356.333,969 354.667,968.333 352,967L326,967L324,961C323.333,959 322.333,957.333 321,956C314.333,949.333 306.833,943.5 298.5,938.5C290.167,933.5 283,929.333 277,926C261.667,918 252.167,909.167 248.5,899.5C244.833,889.833 241,883 237,879C233,874.333 229.333,870.5 226,867.5L221,863C225.667,861 230.833,858 236.5,854C242.167,850 246,847 248,845C251.333,847 254,849 256,851C258,853 261.333,858 266,866L271,876L276,883C277.333,886.333 279.167,890 281.5,894C283.833,898 287,901.667 291,905C307.667,914.333 317.833,920.167 321.5,922.5C325.167,924.833 332.667,929.667 344,937ZM510,871L509,873C507,877 505.5,879.333 504.5,880C503.5,880.667 502,882.333 500,885C499.333,885 497.833,885.167 495.5,885.5C493.167,885.833 491.667,886.333 491,887C491,885 490.833,883 490.5,881C490.167,879 489.667,877 489,875C491.667,872.333 495,868.667 499,864C503,859.333 506.667,853.667 510,847C510.667,851 511,855.333 511,860C511,864.667 510.667,868.333 510,871ZM644,710C639.333,713.333 631.167,718 619.5,724L602,733L597,741C590.333,754.333 585.667,764.333 583,771C580.333,777.667 577.667,783 575,787C570.333,786.333 563.167,784.833 553.5,782.5C543.833,780.167 537.333,775.667 534,769C534,768.333 533.833,767.667 533.5,767C533.167,766.333 533,765.667 533,765C531.667,758.333 530.833,753.167 530.5,749.5C530.167,745.833 531.333,739.333 534,730L547,704C536.333,697.333 529,692.833 525,690.5C521,688.167 517.667,686 515,684C511,680.667 504.167,677.833 494.5,675.5C484.833,673.167 476.333,671.333 469,670C467,669.333 465.167,668.5 463.5,667.5L461,666L401,701L421,736L473,708C475.667,708.667 478,709.167 480,709.5C482,709.833 483.667,710 485,710C485.667,710 486.167,710.333 486.5,711C486.833,711.667 487.333,712 488,712C490,712 491.5,712.333 492.5,713L494,714L497.5,715C499.833,715.667 501,716.333 501,717C501,717.667 500.5,718 499.5,718L495,718C494.333,723.333 494.5,730.5 495.5,739.5C496.5,748.5 498.333,757.667 501,767C497.667,796.333 491.667,817.333 483,830C474.333,842.667 469.667,849 469,849L460,857L460,868C460.667,876.667 461.5,889.167 462.5,905.5C463.5,921.833 464.667,933 466,939C466.667,941.667 468,944.5 470,947.5C472,950.5 474,953.667 476,957C477.333,958.333 478.667,959.333 480,960L482,961C481.333,961.667 480.333,962 479,962C477.667,962 476.333,961.333 475,960L449,960C447,956.667 445.167,953.833 443.5,951.5C441.833,949.167 440,946.667 438,944L436.5,943.5C435.5,943.167 434.667,942.333 434,941C434,939.667 433.833,938 433.5,936C433.167,934 433,931 433,927L433,904C432.333,888 430.667,870.833 428,852.5C425.333,834.167 416.667,819 402,807L394,802L389,802C385,801.333 382.333,800.833 381,800.5C379.667,800.167 376,800 370,800C354.667,799.333 337.667,800 319,802C300.333,804 280.667,798.333 260,785C237.333,771 223.5,757.167 218.5,743.5C213.5,729.833 210.667,722.667 210,722L162,736C162.667,737.333 167.167,746.167 175.5,762.5C183.833,778.833 198.333,794.333 219,809L223,811C224.333,811.667 224.667,812 224,812C224,812.667 223.5,813 222.5,813C221.5,813 220.333,812.667 219,812C203,830.667 179,846 147,858C115,870 96.667,883.667 92,899L90,907C88,915 86.833,922.167 86.5,928.5C86.167,934.833 86.333,941.667 87,949C87,951 87.167,953.667 87.5,957C87.833,960.333 88.333,963 89,965C89,965.667 89.167,966 89.5,966C89.833,966 90,966.333 90,967C90.667,967.667 92,968.5 94,969.5C96,970.5 97,971.333 97,972L94.5,972C93.5,972 92,971.333 90,970L62,970C60,966 58,961.5 56,956.5L51,944C51.667,940.667 51.5,938 50.5,936C49.5,934 49.667,932.333 51,931C55,921.667 58.333,911 61,899C63.667,887 65,880.667 65,880L67.5,877.5C68.5,876.5 69.667,875.667 71,875C77,869.667 89,861.333 107,850C125,838.667 133.667,823.667 133,805L127,773.5C123,752.5 120.667,740 120,736C119.333,728.667 118.833,722.5 118.5,717.5C118.167,712.5 118.333,707 119,701C120.333,693 127.333,684.833 140,676.5C152.667,668.167 171.333,658.667 196,648C212,641.333 220.833,637.833 222.5,637.5C224.167,637.167 239.667,630.667 269,618L254,599C264.667,585 275.667,570.333 287,555C298.333,539.667 307.667,524.667 315,510L323,493L303,484C309.667,470.667 325,453.167 349,431.5C373,409.833 398.667,400.667 426,404C448,406.667 468.333,418 487,438C505.667,458 521,478.333 533,499L534,499L538.5,500.5C539.5,500.833 539.667,501.333 539,502C539,502.667 538.667,503.167 538,503.5C537.333,503.833 536.667,504 536,504L506,504L501,514C497.667,519.333 491.333,528.333 482,541C472.667,553.667 468.333,566 469,578C469.667,586 471.333,592 474,596C476.667,600 480,602.667 484,604C485.333,604.667 487.167,605 489.5,605C491.833,605 494,604.333 496,603C496.667,603 497,602.833 497,602.5L497,602L500,600C502,598.667 503.333,598.333 504,599C504.667,599 504.667,599.5 504,600.5C503.333,601.5 502.333,602.667 501,604L500,605C503.333,611 507.833,619.167 513.5,629.5L522,645L540,632C548,628 553.833,625 557.5,623C561.167,621 566.333,618 573,614C573.667,615.333 574,616.833 574,618.5C574,620.167 574.333,621.333 575,622L581,654L605,636C606.333,634.667 608,633.333 610,632C612,630.667 613.667,629.333 615,628L617,655C618.333,655 623.167,662.833 631.5,678.5C639.833,694.167 644,704.667 644,710ZM635,655L620,627C622.667,624.333 625.333,622 628,620C630.667,618 634,615.667 638,613C644,625 658,635.667 680,645C702,654.333 719.333,660 732,662C731.333,663.333 729.333,665 726,667C722.667,669 720.333,670 719,670C711,672.667 700.167,674.5 686.5,675.5C672.833,676.5 655.667,669.667 635,655ZM962,967C961.333,967 960.667,967.167 960,967.5L959,968C953,964 945.333,960.667 936,958C926.667,955.333 916.333,953.333 905,952C903.667,952 902.5,952.167 901.5,952.5C900.5,952.833 900,952.667 900,952L904.5,948.5C907.5,946.167 910.667,944.333 914,943C916.667,942.333 919.667,941.833 923,941.5C926.333,941.167 930.667,941 936,941C948,940.333 959.167,938.833 969.5,936.5C979.833,934.167 987.333,928 992,918C994,914.667 995.333,911.333 996,908C996.667,904.667 997,901.667 997,899C997,893 996,886.5 994,879.5C992,872.5 990.667,867.667 990,865C981.333,847 972.667,836.667 964,834C955.333,831.333 947,830 939,830C936.333,830 933.833,829.667 931.5,829C929.167,828.333 927.333,827.667 926,827C921.333,825 913.667,820 903,812C892.333,804 877,793 857,779C859.667,773.667 861.5,769.833 862.5,767.5C863.5,765.167 866.333,759.333 871,750L831,727C829,732.333 827.167,737.167 825.5,741.5C823.833,745.833 822,750.667 820,756C817.333,753.333 815,750.833 813,748.5C811,746.167 809.667,743.667 809,741C807,733 807.833,725 811.5,717C815.167,709 818,703.333 820,700L790,674C788,676 783.333,684.167 776,698.5C768.667,712.833 767,729.333 771,748C771.667,754 774.333,761 779,769C783.667,777 790.667,784.333 800,791C801.333,791.667 802.667,791.833 804,791.5C805.333,791.167 806.333,791.333 807,792C807.667,792.667 807.5,793.167 806.5,793.5L802,795L801,795C782.333,843 768.333,878.667 759,902L739,952C722.333,946.667 708,945.5 696,948.5C684,951.5 674.667,954.333 668,957C667.333,957 666.833,957.167 666.5,957.5C666.167,957.833 665.667,958 665,958C659.667,954 653,950.833 645,948.5C637,946.167 627.667,944 617,942C615,942 613.5,942.333 612.5,943C611.5,943.667 611,943.333 611,942C611,941.333 613.333,939.5 618,936.5C622.667,933.5 627.667,931.333 633,930C636.333,929.333 639.5,928.5 642.5,927.5C645.5,926.5 647.333,926 648,926C658,924.667 666.5,921.833 673.5,917.5C680.5,913.167 686.333,907 691,899C691.667,898.333 692.167,897.333 692.5,896C692.833,894.667 693.333,893.333 694,892C698,896 702.333,899.333 707,902C711.667,904.667 716.333,907.667 721,911L738,875C725.333,868.333 716.333,863 711,859C705.667,855 702,850.333 700,845C696,837 692.5,819.5 689.5,792.5C686.5,765.5 696,736.667 718,706L726.5,703.5C732.167,701.833 739,699.333 747,696C763.667,689.333 775.167,679.333 781.5,666L791,646L785,645C781,644.333 773.333,642.667 762,640C758,639.333 754.5,638.667 751.5,638C748.5,637.333 746.333,636.667 745,636C744.333,635.333 743.667,635 743,635L741,635C740.333,634.333 739.667,634 739,634L737,634C735,633.333 733.5,632.667 732.5,632C731.5,631.333 731,630.667 731,630C731,629.333 731.5,629 732.5,629C733.5,629 735,629.333 737,630L740,630C759.333,630.667 777.667,629.5 795,626.5C812.333,623.5 835.667,611.667 865,591L840,553C804,585.667 769.5,598.667 736.5,592C703.5,585.333 677.333,579.333 658,574C649.333,570.667 641.667,569.167 635,569.5C628.333,569.833 622.333,572.667 617,578C616.333,579.333 615.167,580.833 613.5,582.5C611.833,584.167 609.333,585.667 606,587C602.667,582.333 599,578.833 595,576.5C591,574.167 586.333,573 581,573C575,573 568.5,574.5 561.5,577.5C554.5,580.5 547.667,584 541,588C540.333,586.667 538.167,582.5 534.5,575.5L529,565L524.5,565C521.5,565 518.667,565.667 516,567C512,565 512.167,561.167 516.5,555.5C520.833,549.833 525,543 529,535C639.667,532.333 709.5,517.167 738.5,489.5L782,448L773,437C763.667,424.333 754.5,415 745.5,409C736.5,403 726,397.667 714,393L708,435C711.333,435.667 714,436.5 716,437.5L721,440L723,442C723.667,442.667 724.5,443.333 725.5,444L727,445L730.5,447C732.833,448.333 734,449.333 734,450C734,450.667 733.833,451.167 733.5,451.5C733.167,451.833 732,452 730,452C729.333,452 728.833,452.167 728.5,452.5C728.167,452.833 727.667,453 727,453C721,459 714,464.5 706,469.5C698,474.5 690,479 682,483L676,486C674.667,486.667 673.667,487 673,487L672,487C671.333,487 670.167,487.333 668.5,488C666.833,488.667 665.667,489 665,489C664.333,488.333 664.5,487.667 665.5,487C666.5,486.333 667.333,485.333 668,484C668.667,484 669,483.667 669,483L669,481L671,473L671,472L676,432L645,445C643.667,445.667 641.5,446.667 638.5,448C635.5,449.333 633.333,450 632,450C633.333,443.333 636.833,429.333 642.5,408C648.167,386.667 643.333,369.667 628,357C622,351.667 615,347.333 607,344C599,340.667 589,341.333 577,346C557,355.333 548.5,372.5 551.5,397.5C554.5,422.5 556.667,437 558,441C556.667,441.667 555.333,442.5 554,443.5C552.667,444.5 551,445 549,445C541.667,445 536.5,443.333 533.5,440C530.5,436.667 528.667,435 528,435C528.667,429 529.333,421.833 530,413.5C530.667,405.167 531.667,394.333 533,381C533,379.667 531.667,376.167 529,370.5L525,362C525,360 524.667,358.333 524,357C523.333,355.667 523,354 523,352C522.333,347.333 524.167,342 528.5,336C532.833,330 535.667,325.667 537,323C537.667,319.667 538.333,317.333 539,316L540,314C540.667,309.333 541.333,305.167 542,301.5C542.667,297.833 543,294.333 543,291C543.667,289 544.5,285.667 545.5,281C546.5,276.333 548.667,273.667 552,273C557.333,272.333 561.333,274.167 564,278.5C566.667,282.833 570.333,284 575,282C577.667,280.667 580.5,279 583.5,277C586.5,275 589.667,273 593,271C604.333,262.333 622.5,254 647.5,246C672.5,238 704.333,239.333 743,250L740,263C754,263 770,266.333 788,273C806,279.667 822.667,291.333 838,308L826,319C841.333,329 853.833,339 863.5,349C873.167,359 884.333,374.333 897,395L885,403C900.333,426.333 910.5,444.667 915.5,458C920.5,471.333 924.333,483.333 927,494L927,496L919,497L921.5,532.5C923.167,556.167 929.667,573 941,583L963,599C966.333,601 968.833,603.167 970.5,605.5C972.167,607.833 973.667,610.333 975,613C975.667,614.333 976.167,615.167 976.5,615.5C976.833,615.833 977,616.333 977,617L947,636C961,670.667 973.833,705.667 985.5,741C997.167,776.333 1007,798.667 1015,808C1019.67,813.333 1025.67,817.833 1033,821.5C1040.33,825.167 1045.67,830 1049,836C1049.67,838.667 1050.33,849.667 1051,869C1051.67,888.333 1049.67,908.333 1045,929C1042.33,942.333 1038.33,952.667 1033,960C1027.67,967.333 1025,971.333 1025,972C1010.33,964.667 998,961.167 988,961.5C978,961.833 969.333,963.667 962,967ZM595,380C597,380 599,380.5 601,381.5C603,382.5 604.667,383.667 606,385C610,388.333 611.833,393.167 611.5,399.5C611.167,405.833 610.667,410 610,412C608,418 605.5,427 602.5,439C599.5,451 596,459.667 592,465C592.667,468.333 593.833,471.667 595.5,475C597.167,478.333 599.333,480.667 602,482C603.333,483.333 606.167,484.667 610.5,486C614.833,487.333 621.333,487 630,485C629.333,487.667 628.833,489.333 628.5,490C628.167,490.667 628,492 628,494C616,496 606.667,497.333 600,498C593.333,498.667 586.333,499.333 579,500C577,496 574.833,493 572.5,491C570.167,489 568,486 566,482C572,480.667 577.167,479 581.5,477C585.833,475 589.333,471 592,465C588,461 584.5,446.167 581.5,420.5C578.5,394.833 583,381.333 595,380ZM3743,259L3761,259C3767,259 3776.33,260 3789,262C3801.67,264 3811.67,270 3819,280C3828.33,289.333 3833.17,297.833 3833.5,305.5C3833.83,313.167 3834,316.667 3834,316L3834,889C3833.33,898.333 3831,906 3827,912C3823,918 3819.67,922 3817,924C3810.33,930.667 3803.17,935 3795.5,937C3787.83,939 3780,940 3772,940C3762.67,940 3748.83,938 3730.5,934C3712.17,930 3697,909 3685,871C3674.33,838.333 3662.83,799 3650.5,753C3638.17,707 3618,666 3590,630C3559.33,590.667 3520.83,564.167 3474.5,550.5C3428.17,536.833 3393.67,527.667 3371,523C3365,521.667 3359.83,520.5 3355.5,519.5C3351.17,518.5 3348,518 3346,518C3344.67,518 3343.17,517.833 3341.5,517.5L3339,517C3339,515.667 3340,515.167 3342,515.5C3344,515.833 3346,515.667 3348,515L3351,514C3358.33,507.333 3374.67,492.667 3400,470C3426,446.667 3453.67,422 3483,396C3512.33,370 3539.67,346 3565,324C3590.33,301.333 3606,287.333 3612,282C3618,276.667 3625.33,271.667 3634,267C3642.67,262.333 3655.33,260 3672,260C3688,260 3699.67,259.833 3707,259.5L3718,259L3718,222L3459,222L3459,259L3484,260C3500.67,260.667 3512.33,264.667 3519,272C3522.33,276 3524.67,281.167 3526,287.5C3527.33,293.833 3524.33,300 3517,306C3513.67,308.667 3500.67,320.333 3478,341C3454.67,362.333 3428.83,386 3400.5,412C3372.17,438 3344.33,463.333 3317,488C3289.67,513.333 3270.33,531 3259,541L3255,545C3254.33,545.667 3253.83,546.833 3253.5,548.5L3253,551C3252.33,551 3251.83,550.833 3251.5,550.5L3250,549L3250,337L3252,314C3253.33,298.667 3261.33,285.667 3276,275C3286.67,267.667 3296.17,263.167 3304.5,261.5C3312.83,259.833 3324.33,258.667 3339,258L3339,221L2986,221L2986,259L3050,259C3058,259 3068.33,263.167 3081,271.5C3093.67,279.833 3100.33,292.667 3101,310L3101,898L3098.5,915.5C3096.83,927.167 3092.33,935.333 3085,940C3072.33,947.333 3055.5,948.833 3034.5,944.5C3013.5,940.167 3000,933.667 2994,925C2977.33,901.667 2966.33,864.5 2961,813.5C2955.67,762.5 2940,715 2914,671C2897.33,642.333 2877,621.667 2853,609C2829,596.333 2807,588 2787,584C2785,584 2783.5,583.833 2782.5,583.5L2781,583L2771,582C2771,580.667 2772.17,579.833 2774.5,579.5C2776.83,579.167 2779,579 2781,579C2781.67,579 2782.67,578.833 2784,578.5C2785.33,578.167 2786.67,578 2788,578C2797.33,573.333 2812.17,564.5 2832.5,551.5C2852.83,538.5 2870,518.667 2884,492C2891.33,476.667 2897.17,461.167 2901.5,445.5C2905.83,429.833 2907,408 2905,380C2902.33,352.667 2890.17,324.833 2868.5,296.5C2846.83,268.167 2821.33,249 2792,239C2769.33,231 2749.67,226.167 2733,224.5C2716.33,222.833 2704,222 2696,222L2264,222L2264,259L2349,259L2363.5,263.5C2373.17,266.5 2380.67,272.667 2386,282C2394.67,294.667 2399,306 2399,316L2399,889L2396.5,909C2394.83,922.333 2387.67,931 2375,935C2365,939 2356.33,939.667 2349,937C2341.67,934.333 2336,929.667 2332,923C2317.33,897 2295,850.333 2265,783C2235,715 2203.83,642.333 2171.5,565C2139.17,487.667 2108.67,414 2080,344C2051.33,273.333 2030.67,223 2018,193L1998,193L1954,295C1924,362.333 1890.5,438.333 1853.5,523C1816.5,607.667 1781.67,688 1749,764C1715.67,840 1695.33,886 1688,902C1684,909.333 1676.67,918.667 1666,930C1655.33,941.333 1643.67,947 1631,947L1541,947L1541,987L1895,987L1895,947L1798,947C1796,947 1791.17,945 1783.5,941C1775.83,937 1772,930 1772,920C1779.33,900.667 1792,866.333 1810,817C1828.67,767 1848.17,714.333 1868.5,659C1888.83,603.667 1908,551.667 1926,503C1944,453.667 1956.33,420.333 1963,403C1963,401.667 1964,399.333 1966,396L1969,391C1970.33,391 1970.83,392 1970.5,394C1970.17,396 1969.67,398.333 1969,401C1968.33,402.333 1968.17,404.5 1968.5,407.5C1968.83,410.5 1969,412.667 1969,414L2045,625L2047.5,631.5C2049.17,635.833 2050.67,638.333 2052,639C2054,641 2055.5,642.333 2056.5,643C2057.5,643.667 2057.67,644.333 2057,645C2056.33,645.667 2054.67,645.5 2052,644.5C2049.33,643.5 2047.67,643 2047,643C2045.67,643 2043.17,642.667 2039.5,642C2035.83,641.333 2033,641 2031,641L1922,641L1880,679L2066,679L2078,713C2086.67,735.667 2096,760.833 2106,788.5C2116,816.167 2125.33,842 2134,866C2142,889.333 2146.33,902 2147,904C2147.67,907.333 2148.17,912.167 2148.5,918.5C2148.83,924.833 2147.33,930 2144,934C2141.33,938.667 2138.17,942 2134.5,944C2130.83,946 2126,947 2120,947L2035,947L2035,987L2689,987L2689,947L2600,947C2596.67,947 2593,946.333 2589,945C2585,943.667 2579.67,941 2573,937L2563.5,927.5C2559.83,923.833 2557,919 2555,913C2552.33,905.667 2550.33,897.833 2549,889.5C2547.67,881.167 2546.67,867.667 2546,849L2546,269C2546,268.333 2545.67,267.333 2545,266C2544.33,265.333 2543.67,264.833 2543,264.5C2542.33,264.167 2542,263.667 2542,263C2540.67,262.333 2538.33,261.833 2535,261.5C2531.67,261.167 2530,260.667 2530,260C2530,259.333 2530.67,258.833 2532,258.5C2533.33,258.167 2535,258 2537,258L2654,258C2684,258 2708.17,270.5 2726.5,295.5C2744.83,320.5 2755.67,341.333 2759,358C2764.33,380.667 2766,407.833 2764,439.5C2762,471.167 2755.33,496 2744,514C2734,529.333 2720.33,542.333 2703,553C2685.67,563.667 2666.33,569 2645,569L2583,569L2558,599L2625,597L2675.5,615C2709.17,627 2741.67,662.667 2773,722C2788.33,750 2798.67,779.333 2804,810C2809.33,841.333 2814.17,869.833 2818.5,895.5C2822.83,921.167 2828.67,942.667 2836,960C2842.67,976.667 2855,985 2873,985L3384,985L3384,944L3302,944C3296,944 3290.33,943 3285,941C3282.33,940.333 3278.83,938.5 3274.5,935.5C3270.17,932.5 3266.67,929.333 3264,926C3260,922 3256.5,915.5 3253.5,906.5C3250.5,897.5 3249,883 3249,863L3249,611L3319,621.5C3365.67,628.5 3406.67,652.333 3442,693C3460,715 3474.67,739.333 3486,766C3497.33,792.667 3506.5,818.167 3513.5,842.5C3520.5,866.833 3525.67,888 3529,906C3533,924 3536,935.333 3538,940C3549.33,960 3564.17,972.5 3582.5,977.5C3600.83,982.5 3615.67,985 3627,985L4071,985L4071,944L4030,944L4014.5,941C4004.17,939 3995.33,932.333 3988,921C3986,917.667 3983.83,913.667 3981.5,909C3979.17,904.333 3978,898.333 3978,891L3978,314C3978,304.667 3983.33,293.167 3994,279.5C4004.67,265.833 4017.67,259 4033,259L4071,259L4071,222L3740,222L3743,259ZM4886,222L4098,222L4098,259L4121,259.5C4136.33,259.833 4147,261.333 4153,264C4158.33,266.667 4164.5,271.167 4171.5,277.5C4178.5,283.833 4183.33,291.667 4186,301C4188.67,309 4189.67,329 4189,361C4188.33,393 4188.33,433 4189,481L4189,874L4187,893.5C4185.67,906.5 4181,917 4173,925C4165.67,933 4159.17,938.5 4153.5,941.5C4147.83,944.5 4141.33,946 4134,946L4099,946L4099,986L4724,986L4724,792L4649,792L4649,828C4649,839.333 4648.67,850.667 4648,862C4647.33,873.333 4645.33,882 4642,888C4638,895.333 4633.83,902.167 4629.5,908.5C4625.17,914.833 4616.33,922.333 4603,931C4589.67,939 4570.83,943.333 4546.5,944C4522.17,944.667 4497.67,944.667 4473,944C4453.67,944 4436,943.833 4420,943.5C4404,943.167 4392.67,942.667 4386,942C4371.33,940.667 4361,935.833 4355,927.5C4349,919.167 4345,909.667 4343,899C4341.67,893.667 4340.67,875.667 4340,845C4339.33,814.333 4338.83,781.667 4338.5,747C4338.17,712.333 4338,681 4338,653L4338,611L4563,611C4567,611 4570,612.333 4572,615C4573.33,616.333 4574.5,617.667 4575.5,619C4576.5,620.333 4577.33,621.667 4578,623C4578.67,626.333 4578.83,629.833 4578.5,633.5C4578.17,637.167 4578,639.667 4578,641L4578,707L4612,708L4612,491L4578,491L4578,544L4578.5,552C4578.83,557.333 4578.33,562 4577,566C4575,569.333 4572.17,571.667 4568.5,573C4564.83,574.333 4562.67,575 4562,575L4337,575L4337,280L4337.5,275C4337.83,271.667 4339.33,268.667 4342,266C4344.67,263.333 4347.5,261.5 4350.5,260.5L4355,259L4583,259C4587.67,259 4595,260.167 4605,262.5C4615,264.833 4624,269.667 4632,277C4640,285 4644.67,292.833 4646,300.5C4647.33,308.167 4648,315.667 4648,323L4648,447L4720,447L4720,259L4938,259C4938.67,259.667 4937.5,260.333 4934.5,261C4931.5,261.667 4929.67,263 4929,265L4929,837L4928.5,866.5C4928.17,886.167 4925.33,901.333 4920,912C4915.33,920 4910.17,927.167 4904.5,933.5C4898.83,939.833 4889.67,944 4877,946L4791,946L4791,986L5204,986L5204,946L5162,946C5152.67,946 5142.83,945.667 5132.5,945C5122.17,944.333 5113,940.667 5105,934C5099,929.333 5093,923.333 5087,916C5081,908.667 5078,899.667 5078,889L5078,265C5076.67,263 5075,261.833 5073,261.5C5071,261.167 5070,260.667 5070,260L5183,260C5189.67,260 5198.67,261.167 5210,263.5C5221.33,265.833 5232,271 5242,279C5246.67,283 5250.17,286.167 5252.5,288.5C5254.83,290.833 5257.33,294.667 5260,300C5264.67,309.333 5267.67,322.667 5269,340C5270.33,357.333 5271,375 5271,393L5271,448L5334,448L5334,223L4886,222Z" style="fill-rule:nonzero;"/>
    </g>
</svg>
