<svg xmlns="http://www.w3.org/2000/svg" viewBox="0 0 128 56">
  <title>Radio ZET</title>
  <g>
    <path d="M126.74034 12.5270924c-18.633808 3.4725304-47.1698539 9.114854-76.3511676 17.5449634 1.9379562-2.4777129 11.9930778-9.4163138 25.6197809-12.9304744 1.074489-.2777737 1.508017-1.6271654 2.2135766-3.747433.418455-1.2596716.8354745-2.7167275 1.3257056-4.4328954.370365-1.29484184-.5763625-1.47571775-1.1146837-1.38671532-5.5963868.9259124-31.9834548 7.08574202-39.1646592 25.85664222-4.4465328 1.3974817-8.9361313 2.874635-13.4472627 4.4372019 5.6688807-5.8440145 11.4425547-14.2461313 12.1122262-15.9249756.4285037-1.0737713.5196594-1.7348296.4055353-2.380815-.2375791-1.3565694-1.4663869-3.5895256-2.4970925-4.6798054-1.0307055-1.0902798-1.7455961-1.3070438-2.9464111-1.3802554-5.8791849-.3538565-21.5809367 5.7614719-23.44855224 6.6881021-.95246958.4737226-.44931873 1.3601582-.25624088 1.9042214.17441606.4959733 1.01922142 2.125292 2.49135032 3.8335645 1.4276278 1.6594647 2.0126034 1.4154258 5.4707786-.0495256 5.1578345-2.1870194 9.2117518-3.4337712 10.6386618-3.6447931-8.5614599 12.0749026-21.32541358 22.007287-26.72369822 26.2844281-1.03931873.8232725-1.258236 1.568309-.9223236 2.5250851.27203163.7723114 1.91068126 3.3024209 2.72103405 3.9656326.80748175.6596229 1.85972019.5110462 3.47540145-.1055109 2.19276154-.8383455 13.19963502-6.2409368 32.67968352-12.5385766 7.1654136 15.0830413 26.0612043 10.0816788 31.2979926 6.3184549 1.5388808-1.1067883 1.9810219-2.8961678 2.329854-3.946253.3560097-1.0709002 1.1577494-3.6569951 1.6264477-5.2037713.4356812-1.4419829-.1155596-1.9853284-1.0744891-1.3601581-10.252506 6.6715936-21.4811678 6.7204014-24.9529804 1.3400608 0-.0007177.0007178-.0007177.0007178-.0007177 12.609635-3.723747 25.2989415-6.7864355 37.9157541-9.4974209-3.3591241 7.5472627-4.2032117 15.1002675-4.2297689 18.5878709-.0272749 3.5687105 2.932056 2.5746107 4.7688078 1.8790998 1.8460827-.698382 2.6535645-2.0097324 2.763382-2.6018857 3.2170073-15.8510461 6.4131995-19.8906081 6.4131995-19.8906081 8.8794283-1.8066059 24.7656443-4.8176156 28.3989533-5.4750852.473005-.0854136.714891-.1320681 1.264696-1.1900486.630195-1.2115815 2.170511-5.5066667 2.413832-7.4510827.173699-1.3960462-.189489-1.550365-1.218041-1.3465207Z"/>
    <path d="m89.1475785 3.58521896-.2863868 1.1520073c-.322275-.17154501-.7809246-.26413626-1.1670803-.26413626-1.0371655 0-1.7664112.79384428-1.7664112 2.04562043v3.78547447h-1.1670803V3.50626519h1.1527251v.89504866c.4722871-.66536496 1.18-1.03860097 1.9881995-1.03860097.4866423 0 .8806934.0653163 1.246034.22250608Zm7.7769465 6.71968364h-1.1728224v-.9086861c-.5368857.6366545-1.3314477 1.0515207-2.3973236 1.0515207-1.9099635 0-3.398601-1.48863748-3.398601-3.54215329 0-2.0535158 1.4886375-3.54215327 3.398601-3.54215327 1.0658759 0 1.8604379.41486618 2.3973236 1.05941606v-.91658151h1.1728224v6.79863741Zm-5.7729562-3.39931869c0 1.35298053.9438564 2.4475669 2.3391849 2.4475669 1.3737956 0 2.3320073-1.05223844 2.3320073-2.4475669 0-1.38815084-.9582117-2.43967152-2.3320073-2.43967152-1.4168613 0-2.3391849 1.08740875-2.3391849 2.43967152ZM104.395705 4.4228467V0h1.172822v10.3041849h-1.172822v-.90868616c-.536886.63737226-1.331448 1.05223846-2.397324 1.05223846-1.909963 0-3.3986006-1.48863748-3.3986006-3.54215329 0-2.05423357 1.4886376-3.54287103 3.3986006-3.54287103 1.065876 0 1.860438.4163017 2.397324 1.06013382Zm-4.6008516 2.48273721c0 1.35298053.9445746 2.4475669 2.3399026 2.4475669 1.373796 0 2.332007-1.05223844 2.332007-2.4475669 0-1.38886861-.958211-2.44038928-2.332007-2.44038928-1.416143 0-2.3399026 1.08812651-2.3399026 2.44038928Zm9.6603526-5.78874693c0 .46510949-.372518.81537712-.837628.81537712-.465109 0-.822554-.35026763-.822554-.81537712 0-.4722871.357445-.83762773.822554-.83762773.46511 0 .837628.36534063.837628.83762773Zm-.243321 9.18806562h-1.165645V3.50698295h1.165645v6.79791965Zm9.15146-3.39931869c0 2.01762773-1.538881 3.54215329-3.599574 3.54215329-2.059976 0-3.590961-1.52452556-3.590961-3.54215329 0-2.01834549 1.530985-3.54215327 3.590961-3.54215327 2.060693 0 3.599574 1.52380778 3.599574 3.54215327Zm-5.99618 0c0 1.42332116 1.030705 2.4475669 2.396606 2.4475669 1.360158 0 2.396605-1.02424574 2.396605-2.4475669 0-1.42403892-1.036447-2.43967152-2.396605-2.43967152-1.365901 0-2.396606 1.0156326-2.396606 2.43967152Z"/>
  </g>
</svg>
