<?xml version="1.0" encoding="UTF-8" standalone="no"?>
<!DOCTYPE svg PUBLIC "-//W3C//DTD SVG 1.1//EN" "http://www.w3.org/Graphics/SVG/1.1/DTD/svg11.dtd">
<svg width="100%" height="100%" viewBox="0 0 6449 932" version="1.1" xmlns="http://www.w3.org/2000/svg" xmlns:xlink="http://www.w3.org/1999/xlink" xml:space="preserve" xmlns:serif="http://www.serif.com/" style="fill-rule:evenodd;clip-rule:evenodd;stroke-linejoin:round;stroke-miterlimit:2;">
    <g transform="matrix(1,0,0,1,-115.538,-41)">
        <path d="M2811,732L2801,742L2775,753C2765,755 2755.67,757.167 2747,759.5C2738.33,761.833 2729,763 2719,763C2698.33,763 2678,760.167 2658,754.5C2638,748.833 2619,739.667 2601,727C2585.67,714.333 2573,699.167 2563,681.5C2553,663.833 2547,645 2545,625C2539.67,604.333 2536.83,583.667 2536.5,563C2536.17,542.333 2537.33,522 2540,502C2542,486.667 2545.67,470.667 2551,454C2556.33,437.333 2562.67,422.667 2570,410C2578,396.667 2588.83,386.167 2602.5,378.5C2616.17,370.833 2629.33,366 2642,364C2654.67,361.333 2667.17,360 2679.5,360C2691.83,360 2703.33,361.333 2714,364C2724,366 2733.83,370.5 2743.5,377.5C2753.17,384.5 2762,391.667 2770,399C2775.33,401.667 2779.5,405.333 2782.5,410C2785.5,414.667 2788,419.667 2790,425L2790,348C2790,345.333 2789.17,343.833 2787.5,343.5L2785,343L2770,338C2746.67,330 2723.5,325 2700.5,323C2677.5,321 2654.67,322.667 2632,328C2614,330.667 2597.33,335.833 2582,343.5C2566.67,351.167 2552.67,361.333 2540,374C2526.67,384 2514.33,396.333 2503,411C2491.67,425.667 2483.33,440.667 2478,456C2470.67,463.333 2465.17,472 2461.5,482C2457.83,492 2454.67,502 2452,512C2450,524.667 2448.67,538.333 2448,553C2447.33,567.667 2447,581.333 2447,594C2449.67,614.667 2453.83,635 2459.5,655C2465.17,675 2473,694 2483,712C2493.67,730 2506.67,746.333 2522,761C2537.33,775.667 2555,788.333 2575,799C2593,806.333 2611.17,812 2629.5,816C2647.83,820 2667.33,819.333 2688,814C2696,811.333 2703.83,808.5 2711.5,805.5C2719.17,802.5 2726.67,798.667 2734,794C2742,788.667 2749.5,783.5 2756.5,778.5C2763.5,773.5 2769.67,768.333 2775,763C2777.67,763 2779.17,762.167 2779.5,760.5L2780,758L2811,727L2811,732ZM3512,343C3494,335.667 3475.33,330.667 3456,328C3436.67,325.333 3418,325.333 3400,328L3297,333L3215,333C3217.67,335.667 3220.33,338.167 3223,340.5C3225.67,342.833 3228.33,345.333 3231,348C3235.67,358.667 3240,369 3244,379C3248,389 3248.67,399.333 3246,410L3246,568C3246,594 3245.83,620.667 3245.5,648C3245.17,675.333 3243.67,701.667 3241,727L3241,788C3243.67,798.667 3248.67,804 3256,804L3374,804C3371.33,804 3368.83,803.833 3366.5,803.5C3364.17,803.167 3361.67,801.667 3359,799C3356.33,796.333 3353.83,794.5 3351.5,793.5C3349.17,792.5 3348,790.667 3348,788C3348,786 3347.17,783.667 3345.5,781C3343.83,778.333 3343,775.667 3343,773L3343,384C3343,381.333 3343.33,377.833 3344,373.5C3344.67,369.167 3346,366 3348,364C3350.67,361.333 3353.5,359.667 3356.5,359C3359.5,358.333 3363.67,358 3369,358L3425,358C3427.67,358 3432.5,360.167 3439.5,364.5C3446.5,368.833 3453.67,373.667 3461,379C3466.33,386.333 3471.33,394.167 3476,402.5C3480.67,410.833 3484.33,420 3487,430C3489.67,440 3491.17,450.167 3491.5,460.5C3491.83,470.833 3492,481.333 3492,492C3489.33,502 3486.5,511.833 3483.5,521.5C3480.5,531.167 3476.33,540 3471,548C3466.33,553.333 3461.33,558.333 3456,563C3450.67,567.667 3445.67,571 3441,573C3435.67,575.667 3429.33,578.333 3422,581L3400,589L3379,589C3376.33,589 3374.67,590 3374,592C3373.33,594 3371.67,596.333 3369,599C3363.67,604.333 3359.33,609.5 3356,614.5C3352.67,619.5 3348.33,624.667 3343,630C3353.67,630 3363.17,629.667 3371.5,629C3379.83,628.333 3389.33,627 3400,625C3420,622.333 3439.83,617.167 3459.5,609.5C3479.17,601.833 3496.67,591.667 3512,579C3527.33,561 3539.83,540.833 3549.5,518.5C3559.17,496.167 3564,473.667 3564,451C3564,440.333 3563.5,430.167 3562.5,420.5C3561.5,410.833 3558.33,402 3553,394C3548.33,381.333 3542.33,371 3535,363C3527.67,355 3520,348.333 3512,343ZM3200,328L3185,323L3200,328ZM3103,768C3090.33,773.333 3076.67,777 3062,779C3047.33,781 3033.67,780.667 3021,778C3008.33,778 2994.67,777.167 2980,775.5C2965.33,773.833 2951.67,773 2939,773C2933.67,770.333 2932.33,766.833 2935,762.5C2937.67,758.167 2939,755 2939,753L2954,727C2959.33,719.667 2963.67,713 2967,707C2970.33,701 2974.67,694 2980,686C2987.33,673.333 2994.83,660.333 3002.5,647C3010.17,633.667 3018,619.333 3026,604L3123,430L3159,369C3161.67,366.333 3164.67,361.833 3168,355.5C3171.33,349.167 3171.67,343.333 3169,338C3166.33,332.667 3164.5,329.667 3163.5,329C3162.5,328.333 3159.33,328 3154,328L2867,328C2862.33,328 2857.5,328.333 2852.5,329C2847.5,329.667 2844,332.667 2842,338C2839.33,343.333 2837.67,347.667 2837,351C2836.33,354.333 2836,358.667 2836,364L2836,435C2836,432.333 2836.33,430 2837,428C2837.67,426 2839.33,425 2842,425C2844,422.333 2845.5,419.667 2846.5,417C2847.5,414.333 2849.33,412 2852,410C2854.67,404.667 2858.33,399.667 2863,395C2867.67,390.333 2872.33,386.667 2877,384C2892.33,374 2909,366.333 2927,361C2945,355.667 2964.33,353 2985,353L3036,353C3038.67,353 3041.33,353.333 3044,354C3046.67,354.667 3049.33,356 3052,358C3054,360.667 3054.5,363.5 3053.5,366.5C3052.5,369.5 3052,373.667 3052,379L2985,497C2959.67,543 2934.17,588.833 2908.5,634.5C2882.83,680.167 2857,724.667 2831,768C2829,773.333 2826.67,778.5 2824,783.5C2821.33,788.5 2818.67,793.667 2816,799L2816,809L3144,809C3146.67,809 3148.33,808.167 3149,806.5C3149.67,804.833 3151.33,804 3154,804C3154,801.333 3154.83,799.5 3156.5,798.5C3158.17,797.5 3159,796 3159,794C3161.67,786 3164,777.333 3166,768C3168,758.667 3169,750 3169,742L3169,722L3174,707C3172,711.667 3168.83,717.5 3164.5,724.5C3160.17,731.5 3156.67,737.333 3154,742C3144,744.667 3134.83,748.333 3126.5,753C3118.17,757.667 3110.33,762.667 3103,768ZM3174,691L3174,671L3169,701C3171.67,699 3173.17,697.5 3173.5,696.5C3173.83,695.5 3174,693.667 3174,691ZM3917,343C3899,335.667 3880.83,330.5 3862.5,327.5C3844.17,324.5 3824.67,323 3804,323C3786,323 3767.5,325.333 3748.5,330C3729.5,334.667 3712.33,340.667 3697,348C3679,358.667 3662.5,370.5 3647.5,383.5C3632.5,396.5 3620,412 3610,430C3599.33,448 3590.67,466.167 3584,484.5C3577.33,502.833 3574,522.333 3574,543C3571.33,563 3571,583.333 3573,604C3575,624.667 3578.67,645.333 3584,666C3592,686 3601.33,705 3612,723C3622.67,741 3635.67,757.667 3651,773C3666.33,788.333 3684,800.333 3704,809C3724,817.667 3745.33,824.333 3768,829C3791.33,831.667 3813.5,831.833 3834.5,829.5C3855.5,827.167 3876,822 3896,814C3936,798.667 3967.67,774 3991,740C4015,706 4030.5,668.5 4037.5,627.5C4044.5,586.5 4043,545 4033,503C4023.67,461 4005.33,424.667 3978,394C3968,384 3957.83,375 3947.5,367C3937.17,359 3927,351 3917,343ZM3948,666C3948,678.667 3945.33,692.167 3940,706.5C3934.67,720.833 3927,734.667 3917,748C3906.33,760.667 3895.5,771 3884.5,779C3873.5,787 3860.33,793.667 3845,799L3830,799C3822,799 3814,798.667 3806,798C3798,797.333 3789,796 3779,794C3771,791.333 3763.33,787.667 3756,783C3748.67,778.333 3742.67,773.333 3738,768C3727.33,758 3717.33,746.5 3708,733.5C3698.67,720.5 3691.33,706.333 3686,691C3673.33,660.333 3665.33,627.667 3662,593C3658.67,558.333 3658.33,524.667 3661,492C3663.67,468.667 3669.67,447.833 3679,429.5C3688.33,411.167 3699.33,394.333 3712,379C3720,373.667 3727.83,368.667 3735.5,364C3743.17,359.333 3750.67,355.667 3758,353C3766,350.333 3774.83,348.833 3784.5,348.5C3794.17,348.167 3804,348 3814,348C3844.67,353.333 3869.5,369.167 3888.5,395.5C3907.5,421.833 3922,450.333 3932,481C3942.67,509.667 3949.17,540 3951.5,572C3953.83,604 3952.67,635.333 3948,666ZM5120,343C5102,335.667 5084,330.5 5066,327.5C5048,324.5 5030,323 5012,323C4994.67,323 4976.33,325.333 4957,330C4937.67,334.667 4920.33,340.667 4905,348C4884.33,358.667 4866.33,370.5 4851,383.5C4835.67,396.5 4823,412 4813,430C4802.33,448 4793.67,466.167 4787,484.5C4780.33,502.833 4777,522.333 4777,543C4774.33,563 4774.33,584 4777,606C4779.67,628 4784.67,648 4792,666C4800,686 4809.33,705 4820,723C4830.67,741 4843.67,757.667 4859,773C4874.33,788.333 4892,800.333 4912,809C4932,817.667 4953.67,824.333 4977,829C4999.67,831.667 5021.5,831.833 5042.5,829.5C5063.5,827.167 5084.33,822 5105,814C5144.33,798.667 5176,774 5200,740C5223.33,706 5238.5,668.5 5245.5,627.5C5252.5,586.5 5251,545 5241,503C5231.67,461 5213.67,424.667 5187,394C5176.33,384 5165.67,374.333 5155,365C5144.33,355.667 5132.67,348.333 5120,343ZM5151,666C5151,678.667 5148.33,692.167 5143,706.5C5137.67,720.833 5130,734.667 5120,748C5110,760.667 5099.33,771 5088,779C5076.67,787 5063.33,793.667 5048,799L5033,799C5025,799 5017,798.667 5009,798C5001,797.333 4992,796 4982,794C4974,791.333 4966.33,787.667 4959,783C4951.67,778.333 4945.67,773.333 4941,768C4930.33,758 4920.33,746.5 4911,733.5C4901.67,720.5 4894.67,706.333 4890,691C4876.67,660.333 4868.33,627.667 4865,593C4861.67,558.333 4861.33,524.667 4864,492C4866.67,471.333 4872.67,452.167 4882,434.5C4891.33,416.833 4902.33,401.667 4915,389C4925.67,381.667 4935,375.333 4943,370C4951,364.667 4958.67,360.667 4966,358C4974,356 4982.83,354.667 4992.5,354C5002.17,353.333 5012.33,353 5023,353C5053.67,358.333 5078.33,374.167 5097,400.5C5115.67,426.833 5130,455.333 5140,486C5148,514.667 5153,544.167 5155,574.5C5157,604.833 5155.67,635.333 5151,666ZM5478,778L5427,778C5419.67,778 5412.5,776.833 5405.5,774.5C5398.5,772.167 5393.67,768.333 5391,763C5389,757.667 5387.67,751.667 5387,745C5386.33,738.333 5386,732.333 5386,727L5386,369C5388.67,363.667 5390,358.5 5390,353.5C5390,348.5 5388.67,343.333 5386,338C5386,335.333 5384.17,333.833 5380.5,333.5C5376.83,333.167 5373.67,333 5371,333L5248,333L5233,328L5253,333C5258.33,335.667 5262.5,338.167 5265.5,340.5C5268.5,342.833 5271.33,345.333 5274,348C5278.67,353.333 5283.17,360.5 5287.5,369.5C5291.83,378.5 5294,386.667 5294,394L5294,517C5294,560.333 5293.83,604.667 5293.5,650C5293.17,695.333 5291.67,739.667 5289,783L5289,794L5294,799L5535,799C5539.67,799 5543.5,796.833 5546.5,792.5C5549.5,788.167 5552.33,783.333 5555,778L5563,740C5565.67,727.333 5568.33,714.333 5571,701C5565.67,709 5560.17,716.833 5554.5,724.5C5548.83,732.167 5542.33,740 5535,748C5529.67,755.333 5521.5,761.5 5510.5,766.5C5499.5,771.5 5488.67,775.333 5478,778ZM5576,701C5576,699 5576.83,697.5 5578.5,696.5C5580.17,695.5 5581,693.667 5581,691L5581,681C5578.33,686.333 5576.83,690.5 5576.5,693.5C5576.17,696.5 5576,699 5576,701ZM6502,788C6494.67,769.333 6481.33,736 6462,688C6442.67,640 6422.67,589.833 6402,537.5C6381.33,485.167 6362.33,436.333 6345,391C6327.67,345.667 6317,316 6313,302L6312.5,299.5C6312.17,297.833 6310.67,297 6308,297L6303,297L6267,287L6257,312L6246,328L6047,773C6039,791 6034.17,809 6032.5,827C6030.83,845 6039,857.667 6057,865L6164,865C6156.67,865 6150.17,863.167 6144.5,859.5C6138.83,855.833 6133.67,852.667 6129,850C6123.67,844.667 6119.5,839.5 6116.5,834.5C6113.5,829.5 6110.67,824.333 6108,819C6108,814.333 6108.17,809.333 6108.5,804C6108.83,798.667 6110.33,793.333 6113,788C6118.33,770.667 6124.33,753.333 6131,736C6137.67,718.667 6154,678 6180,614L6344,614L6426,845C6428,849.667 6431.5,854.167 6436.5,858.5C6441.5,862.833 6451.67,865 6467,865L6564,865C6553.33,862.333 6543,855.333 6533,844C6523,832.667 6512.67,814 6502,788ZM6282,573L6231,573L6175,614C6185,588.667 6197.67,557.833 6213,521.5C6228.33,485.167 6246.33,442.667 6267,394L6318,558C6320.67,566 6316.67,570.5 6306,571.5C6295.33,572.5 6287.33,573 6282,573ZM1674,840C1666.67,829.333 1659.5,817.833 1652.5,805.5C1645.5,793.167 1640.67,780.667 1638,768C1636,755.333 1632.5,740.5 1627.5,723.5C1622.5,706.5 1617.67,689 1613,671C1607.67,655.667 1601.17,641.5 1593.5,628.5C1585.83,615.5 1577,604 1567,594C1556.33,584 1544.67,575.167 1532,567.5C1519.33,559.833 1505.33,553.333 1490,548C1505.33,548 1520.17,545.333 1534.5,540C1548.83,534.667 1561.33,527 1572,517C1584.67,507 1595,496.333 1603,485C1611,473.667 1617.67,460.333 1623,445C1625.67,432.333 1626.83,418.5 1626.5,403.5C1626.17,388.5 1623.33,373.333 1618,358C1605.33,327.333 1580.83,307.833 1544.5,299.5C1508.17,291.167 1474.67,287 1444,287L1434,287C1436,284.333 1437.33,281.667 1438,279C1438.67,276.333 1439,273.667 1439,271C1439,269 1438.67,265.833 1438,261.5C1437.33,257.167 1436,253.667 1434,251C1434,243 1437.5,237 1444.5,233C1451.5,229 1456.33,223 1459,215L1459,205C1459,202.333 1458.83,200.5 1458.5,199.5C1458.17,198.5 1456.67,197 1454,195C1451.33,189.667 1451.17,187 1453.5,187C1455.83,187 1459.33,184.333 1464,179C1469.33,176.333 1473.5,172.667 1476.5,168C1479.5,163.333 1482.33,158.667 1485,154C1487.67,148.667 1489,143.5 1489,138.5C1489,133.5 1487.67,128.333 1485,123C1485,120.333 1484.17,118.5 1482.5,117.5C1480.83,116.5 1480,115 1480,113C1482.67,107.667 1483,101.5 1481,94.5C1479,87.5 1477,81.667 1475,77C1472.33,74.333 1469.67,72 1467,70C1464.33,68 1461.67,67 1459,67C1456.33,69 1455.83,69.5 1457.5,68.5C1459.17,67.5 1461.33,67 1464,67L1464,77C1461.33,81.667 1458.67,86.667 1456,92C1453.33,97.333 1449.33,102.667 1444,108L1439,102C1436.33,102 1434.5,101.833 1433.5,101.5C1432.5,101.167 1430.67,99.667 1428,97C1428,102.333 1427,106.5 1425,109.5C1423,112.5 1420.67,115.333 1418,118C1415.33,120.667 1412.5,123.167 1409.5,125.5C1406.5,127.833 1402.67,130.333 1398,133C1377.33,141 1356.83,147 1336.5,151C1316.17,155 1295.67,161 1275,169C1275,166.333 1274.83,162.833 1274.5,158.5C1274.17,154.167 1272.67,150.667 1270,148C1267.33,146 1264.67,143.833 1262,141.5C1259.33,139.167 1256.67,138 1254,138C1256.67,140.667 1259.17,142.5 1261.5,143.5C1263.83,144.5 1265,146 1265,148L1265,169C1262.33,171.667 1259.67,174.167 1257,176.5C1254.33,178.833 1251.67,181.333 1249,184C1229,197.333 1207.67,209 1185,219C1162.33,229 1139.33,238 1116,246C1103.33,253.333 1091.83,261.167 1081.5,269.5C1071.17,277.833 1062.33,287 1055,297C1039.67,304.333 1024.5,313.667 1009.5,325C994.5,336.333 985.667,351 983,369C983,373.667 982.333,377.833 981,381.5C979.667,385.167 980.333,389.333 983,394C983,399.333 984,403.5 986,406.5C988,409.5 990.333,412.333 993,415C998.333,419.667 1003.17,421.167 1007.5,419.5C1011.83,417.833 1014,419.667 1014,425C1006,427.667 998.167,432.667 990.5,440C982.833,447.333 975.333,451 968,451L965.5,450C963.833,449.333 963,447.667 963,445L957,440C955,412 950.167,385.167 942.5,359.5C934.833,333.833 924.333,309.667 911,287L911,282L906,276L901,271C903.667,271 907.167,269.833 911.5,267.5C915.833,265.167 919.333,261.333 922,256L922,241C922,238.333 920.833,235.833 918.5,233.5C916.167,231.167 913.667,230 911,230C911,232.667 911.667,235.333 913,238C914.333,240.667 913.667,243.333 911,246C903.667,250.667 898,253.5 894,254.5C890,255.5 885.667,256 881,256C878.333,253.333 876.5,251.667 875.5,251C874.5,250.333 872.667,248.667 870,246L868.5,242.5C867.5,240.167 868,238 870,236C872.667,233.333 874.333,232.667 875,234L876,236L876,225C876,222.333 879.5,218.667 886.5,214C893.5,209.333 898.333,204.667 901,200C906.333,186.667 903,178.667 891,176C879,173.333 870.333,169.333 865,164C862.333,164 860.667,165.667 860,169C859.333,172.333 857.667,174 855,174C852.333,174 850.833,172.167 850.5,168.5C850.167,164.833 850,161.667 850,159L855,159L855,154L845,154L845,143L835,143L835,154L824,154L824,164L835,164L829,169L819,169C816.333,169 814.833,168 814.5,166C814.167,164 814,161.667 814,159C806.667,161.667 798.5,162 789.5,160C780.5,158 773.333,161 768,169C762.667,176.333 761.5,182.833 764.5,188.5C767.5,194.167 770.333,199.667 773,205C775.667,209.667 775.5,211.833 772.5,211.5C769.5,211.167 768,212.333 768,215C765.333,217.667 764.667,219.333 766,220C767.333,220.667 768,222.333 768,225L753,225C750.333,225 747.667,226.167 745,228.5C742.333,230.833 739.667,233.333 737,236L737,251L722,251C709.333,251 700.167,253.167 694.5,257.5C688.833,261.833 686,266.333 686,271L686,287C686,289.667 687,292.167 689,294.5C691,296.833 693.333,299.333 696,302L696,292C709.333,292 719.833,296.5 727.5,305.5C735.167,314.5 745.333,320.333 758,323L753,323C750.333,325 746.833,326 742.5,326C738.167,326 734.667,325 732,323C729.333,323 726,321.833 722,319.5C718,317.167 714.667,314.667 712,312L712,317C722,330.333 735.167,336.333 751.5,335C767.833,333.667 783.667,333 799,333C801.667,335.667 804,337.333 806,338C808,338.667 809,340.333 809,343C811.667,345.667 813.167,348.333 813.5,351C813.833,353.667 814,356 814,358C814,366 813.833,373.667 813.5,381C813.167,388.333 811.667,394.333 809,399C806.333,407 802.667,413.833 798,419.5C793.333,425.167 788.333,430.333 783,435C773,440.333 762.833,446.167 752.5,452.5C742.167,458.833 732,463.333 722,466C709.333,458 695.667,451.667 681,447C666.333,442.333 652.667,440 640,440C640,435.333 642.167,433 646.5,433C650.833,433 655.333,430.333 660,425C662.667,419.667 664.333,415.5 665,412.5C665.667,409.5 666,406.667 666,404C668,384 663.667,366 653,350C642.333,334 624.333,319.667 599,307C578.333,289 555.667,272.667 531,258C506.333,243.333 481.333,230.667 456,220C438,212.667 418.5,203.667 397.5,193C376.5,182.333 363.333,169.333 358,154L358,138C358,135.333 359.167,133 361.5,131C363.833,129 366.333,128 369,128C366.333,128 363.667,129.333 361,132C358.333,134.667 355.667,138.333 353,143C350.333,145.667 348.167,149.167 346.5,153.5C344.833,157.833 345.333,161.333 348,164C322.667,156 298.167,148.5 274.5,141.5C250.833,134.5 227.667,128.333 205,123C199.667,117.667 194.667,111.667 190,105C185.333,98.333 181.667,92.333 179,87C176.333,87 174.667,87.167 174,87.5C173.333,87.833 171.667,89.333 169,92C166.333,94.667 165.5,95.333 166.5,94C167.5,92.667 166.667,92 164,92C161.333,92 158.667,91 156,89C153.333,87 150.667,84.667 148,82C146,79.333 143.833,75.833 141.5,71.5C139.167,67.167 138,63.667 138,61L138,41C135.333,43.667 133,45.333 131,46C129,46.667 128,48.333 128,51C125.333,59 123.167,66.833 121.5,74.5C119.833,82.167 120.333,89.667 123,97C123,99.667 122.833,100.333 122.5,99C122.167,97.667 120.667,97 118,97C115.333,105 114.833,112.667 116.5,120C118.167,127.333 120.333,133.333 123,138C125.667,143.333 129.5,148.333 134.5,153C139.5,157.667 146,161.333 154,164C151.333,164 149.667,165 149,167C148.333,169 148,171.333 148,174C146,186.667 148.5,196.5 155.5,203.5C162.5,210.5 168.667,217.667 174,225C168.667,240.333 170.833,254.167 180.5,266.5C190.167,278.833 200,289 210,297C210,317.667 217,333.667 231,345C245,356.333 258.333,366 271,374C271,376.667 271.333,379.5 272,382.5C272.667,385.5 274,389.333 276,394C278.667,396.667 280.5,399.333 281.5,402C282.5,404.667 284.333,407.333 287,410L287,425C287,427.667 288,430.167 290,432.5C292,434.833 294.333,437.333 297,440C299.667,440 302.167,440.333 304.5,441C306.833,441.667 309.333,443 312,445C309.333,445 307.833,446 307.5,448L307,451L307,461C307,471 312.167,476.833 322.5,478.5C332.833,480.167 343,481 353,481C355.667,481 358.167,481.333 360.5,482C362.833,482.667 364,484 364,486C361.333,486 357.833,486.333 353.5,487C349.167,487.667 345.667,489.333 343,492C340.333,492 338.167,493.167 336.5,495.5C334.833,497.833 335.333,501.667 338,507C343.333,519.667 352.333,525.333 365,524C377.667,522.667 389,522 399,522C401.667,522 403.167,522.833 403.5,524.5L404,527C399.333,529.667 393.167,531.667 385.5,533C377.833,534.333 374,537.667 374,543L374,563C376.667,568.333 381.333,570.333 388,569C394.667,567.667 402,565.667 410,563C417.333,560.333 422.667,559 426,559C429.333,559 432.333,560.333 435,563C430.333,565.667 425.333,570.167 420,576.5C414.667,582.833 414.667,588.667 420,594C425.333,604 433.833,608 445.5,606C457.167,604 465.667,601.667 471,599L473.5,599.5C475.167,599.833 476,601.333 476,604C470.667,604 467.5,605.167 466.5,607.5C465.5,609.833 463.667,612 461,614L461,625C468.333,632.333 475.833,633.833 483.5,629.5C491.167,625.167 499,622 507,620L512,625L512,630C512,632.667 511.167,634.333 509.5,635C507.833,635.667 507,637.333 507,640C507,642.667 507.167,644.333 507.5,645C507.833,645.667 509.333,647.333 512,650C517.333,658 524.167,660.667 532.5,658C540.833,655.333 547.667,652.667 553,650C555.667,652.667 558.5,655.333 561.5,658C564.5,660.667 568.333,663.333 573,666C547.667,668 525.667,675 507,687C488.333,699 466,703.667 440,701L445,707C437.667,707 429.333,707.333 420,708C410.667,708.667 402,706.333 394,701C394,703.667 394.833,705.5 396.5,706.5C398.167,707.5 399,709.333 399,712L394,712C384,712 374,709.667 364,705C354,700.333 345.333,694 338,686C335.333,680.667 336,676.5 340,673.5C344,670.5 348.333,668 353,666C345.667,668 340.5,671.5 337.5,676.5C334.5,681.5 333,686.333 333,691C335.667,706.333 344.833,716.667 360.5,722C376.167,727.333 389,732.333 399,737L394,737C396.667,742.333 401.5,745.667 408.5,747C415.5,748.333 422.667,750.333 430,753C435.333,755 439.5,755.667 442.5,755C445.5,754.333 448.333,755.333 451,758C448.333,760.667 444.833,763 440.5,765C436.167,767 432.667,768 430,768C432.667,770.667 435.333,771.333 438,770C440.667,768.667 443,768 445,768C447.667,768 445.667,768.833 439,770.5C432.333,772.167 427.667,773 425,773C430.333,775.667 436.333,776.333 443,775C449.667,773.667 455.667,773 461,773C465.667,770.333 470.667,767.5 476,764.5C481.333,761.5 486.667,757.667 492,753L512,753C514.667,757.667 518.5,761.5 523.5,764.5C528.5,767.5 535,770.333 543,773C543,778.333 541.667,782.5 539,785.5C536.333,788.5 532.333,791.333 527,794C525,796 523.5,797 522.5,797C521.5,797 519.667,796 517,794L522,794C524.667,794 527.333,793.667 530,793C532.667,792.333 535.333,790.667 538,788C548,783.333 554.667,776 558,766C561.333,756 568.333,750 579,748C583.667,755.333 589.667,761.833 597,767.5C604.333,773.167 612,778.333 620,783C627.333,788.333 635,792.333 643,795C651,797.667 660.333,799 671,799C668.333,806.333 662.667,812.333 654,817C645.333,821.667 637.333,824 630,824C622,826.667 614.333,827 607,825C599.667,823 593.667,819.333 589,814L589,809L589,814C589,816.667 589.167,818.333 589.5,819C589.833,819.667 591.333,821.333 594,824C599.333,832 606.667,836.667 616,838C625.333,839.333 635,840 645,840C645,842.667 644.167,845.167 642.5,847.5C640.833,849.833 640,852.333 640,855C648,852.333 655.5,848.667 662.5,844C669.5,839.333 675.667,834.333 681,829C683.667,829 686.167,830 688.5,832C690.833,834 693.333,835 696,835L696,819C698.667,819 699.333,819.833 698,821.5L696,824C698.667,824 700.5,823 701.5,821C702.5,819 704.333,816.667 707,814C719.667,816.667 732.333,819.667 745,823C757.667,826.333 770.333,832 783,840C785.667,842.667 788.167,844.333 790.5,845C792.833,845.667 794,847.333 794,850C794,852.667 794.833,855.167 796.5,857.5C798.167,859.833 799,862.333 799,865C786.333,867.667 771.833,864.333 755.5,855C739.167,845.667 724.667,847.333 712,860C709.333,862.667 708,867.167 708,873.5C708,879.833 709.333,885.667 712,891C712,885.667 712.333,880.667 713,876C713.667,871.333 716.667,867.667 722,865C727.333,862.333 729,863.5 727,868.5C725,873.5 726.667,876 732,876L753,876C763,891.333 774.833,893.833 788.5,883.5C802.167,873.167 814,875.667 824,891L824,906C824,908.667 825.167,911 827.5,913C829.833,915 832.333,916 835,916C839.667,916 842.5,918 843.5,922C844.5,926 845,929.333 845,932C845,934.667 846,936.333 848,937C850,937.667 852.333,939.333 855,942C857.667,942 859.333,942.833 860,944.5C860.667,946.167 862.333,947 865,947L865,957L862,960.5C860,962.833 857.667,965.333 855,968L840,968C842.667,970.667 845.167,972.167 847.5,972.5C849.833,972.833 852.333,973 855,973C857.667,973 860.333,972.833 863,972.5C865.667,972.167 868,970.667 870,968C875.333,962.667 877,957.167 875,951.5C873,945.833 873.333,939.333 876,932C878,926.667 874.5,921.5 865.5,916.5C856.5,911.5 849.667,906.333 845,901C839.667,895.667 836.667,892.5 836,891.5C835.333,890.5 835,888.667 835,886C839.667,878 844.667,876.833 850,882.5C855.333,888.167 860.333,891 865,891C867.667,883 869.167,878.167 869.5,876.5C869.833,874.833 870,872.667 870,870C870,868 873,869.333 879,874C885,878.667 890.667,881 896,881L898.5,880C900.167,879.333 901,878 901,876L901,870C903.667,870 906,871.167 908,873.5C910,875.833 911,878.333 911,881L911,896C913.667,896 915.167,895 915.5,893C915.833,891 916,888.667 916,886C918.667,878 918.167,872.167 914.5,868.5L901,855C895.667,852.333 889.667,851.667 883,853C876.333,854.333 870.333,855 865,855C860.333,855 855.333,854.833 850,854.5C844.667,854.167 839.667,852.667 835,850L840,845C840,837 843.167,830 849.5,824C855.833,818 857.667,811.333 855,804L876,804L881,799L881,794C883,796 885.167,797.5 887.5,798.5C889.833,799.5 891,801.333 891,804C891,806.667 891.833,809.167 893.5,811.5C895.167,813.833 896,816.333 896,819L896,799C896,796.333 895.167,794.5 893.5,793.5C891.833,792.5 891,790.667 891,788C891,786 889.833,784.667 887.5,784C885.167,783.333 883,783 881,783C878.333,783 875.667,782.167 873,780.5C870.333,778.833 867.667,778 865,778C862.333,778 859.833,778.333 857.5,779C855.167,779.667 852.667,781 850,783C840,788.333 835.5,795.5 836.5,804.5C837.5,813.5 837,821.667 835,829C832.333,837 830.5,840 829.5,838C828.5,836 826.667,835 824,835C811.333,821.667 796.667,810 780,800C763.333,790 747.333,781 732,773L732,763L726.5,759.5C722.833,757.167 719.667,755 717,753C714.333,750.333 712.833,747.667 712.5,745C712.167,742.333 712,739.667 712,737L712,732L742,732C744.667,734.667 747.167,736.5 749.5,737.5C751.833,738.5 753,740 753,742C760.333,755.333 771.667,762.5 787,763.5C802.333,764.5 816.333,767.667 829,773C827,775.667 824.667,778 822,780C819.333,782 816.667,783 814,783C811.333,785.667 807.833,787.167 803.5,787.5C799.167,787.833 796,788 794,788C791.333,788 788.667,787.833 786,787.5C783.333,787.167 780.667,785.667 778,783C775.333,781 773,779.5 771,778.5C769,777.5 768,775.667 768,773L768,778C770.667,780.667 773.333,783 776,785C778.667,787 781,788 783,788C785.667,788 788.333,789 791,791C793.667,793 796.333,794 799,794C801.667,794 802.333,794.833 801,796.5L799,799L824,788L835,788C837,780.667 841.5,775.333 848.5,772C855.5,768.667 862.667,765.667 870,763C878,765.667 885,768.5 891,771.5C897,774.5 903.667,778.333 911,783L911,778C913.667,778 916.333,778.333 919,779C921.667,779.667 924.333,781 927,783L922,794C919.333,798.667 916.833,803 914.5,807C912.167,811 911,816.667 911,824C913.667,829.333 916.333,833.5 919,836.5C921.667,839.5 924.333,842.333 927,845C924.333,842.333 922.833,839.667 922.5,837C922.167,834.333 922,831.667 922,829L922,819C922,816.333 922.167,814.833 922.5,814.5C922.833,814.167 924.333,814 927,814L942,814C944.667,814 946.333,813 947,811C947.667,809 949.333,806.667 952,804C954.667,798.667 957.5,798 960.5,802C963.5,806 967.667,806.667 973,804C977.667,801.333 981.5,798.667 984.5,796C987.5,793.333 990.333,790.667 993,788C998.333,796 1004.33,798 1011,794C1017.67,790 1023.67,793.333 1029,804C1034.33,806.667 1039.33,806.167 1044,802.5C1048.67,798.833 1052.33,801 1055,809L1065,809L1070,814L1070,819C1067.33,821.667 1065.67,824 1065,826C1064.33,828 1062.67,829 1060,829C1062.67,829 1065,828.833 1067,828.5C1069,828.167 1070,826.667 1070,824C1072.67,824 1074.33,823 1075,821C1075.67,819 1077.33,816.667 1080,814L1080,799C1080,796.333 1079.83,793.667 1079.5,791C1079.17,788.333 1077.67,785.667 1075,783C1075,781 1073.17,779.5 1069.5,778.5C1065.83,777.5 1062.67,775.667 1060,773C1049.33,775.667 1039.17,776.167 1029.5,774.5C1019.83,772.833 1011.33,770.667 1004,768C1006,765.333 1007.33,761.833 1008,757.5C1008.67,753.167 1009,750 1009,748L1014,748C1016.67,745.333 1019,743.5 1021,742.5C1023,741.5 1024,739.667 1024,737L1024,722L1044,722L1047,721.5C1049,721.167 1050,719.667 1050,717L1050,712C1052,712 1053.5,711.167 1054.5,709.5C1055.5,707.833 1057.33,707 1060,707C1062.67,707 1064.33,707.167 1065,707.5C1065.67,707.833 1067.33,709.333 1070,712C1072.67,714.667 1075,717.167 1077,719.5C1079,721.833 1080,724.333 1080,727L1080,717C1077.33,706.333 1072.67,700.167 1066,698.5C1059.33,696.833 1052,696 1044,696C1031.33,696 1020.17,702 1010.5,714C1000.83,726 993.333,737.333 988,748C980.667,742.667 980.333,738.333 987,735C993.667,731.667 995.667,727.333 993,722C993,719.333 992.167,717.833 990.5,717.5L988,717C990.667,717 994,715.667 998,713C1002,710.333 1004,706.333 1004,701C1004,699 1004.5,696.667 1005.5,694C1006.5,691.333 1006,688.667 1004,686C1006,683.333 1008.33,681.833 1011,681.5C1013.67,681.167 1016.33,681 1019,681L1029,681C1031.67,681 1033.5,681.167 1034.5,681.5C1035.5,681.833 1037,683.333 1039,686C1037,683.333 1034.67,681 1032,679C1029.33,677 1026.67,676 1024,676L1004,676C1001.33,676 997.833,677 993.5,679C989.167,681 985.667,683.333 983,686C970.333,696 965.5,709 968.5,725C971.5,741 973,755.333 973,768C962.333,765.333 951.333,761.833 940,757.5C928.667,753.167 919,750 911,748C909,745.333 906.833,742.833 904.5,740.5L901,737C893.667,732.333 887.833,726.667 883.5,720C879.167,713.333 873,709 865,707C857.667,704.333 855.167,702.667 857.5,702C859.833,701.333 862.333,701 865,701C867.667,701 871.167,698.5 875.5,693.5C879.833,688.5 883.333,686 886,686L891,691L906,691C908.667,691 911.333,690 914,688C916.667,686 919.333,683.667 922,681C924,678.333 925.667,677.833 927,679.5C928.333,681.167 931.667,683.333 937,686L957,686C962.333,683.333 965.5,680.833 966.5,678.5C967.5,676.167 968,673.667 968,671C970.667,673.667 974.333,675.167 979,675.5C983.667,675.833 988.333,676 993,676C998.333,676 1002.67,674.833 1006,672.5C1009.33,670.167 1013.67,668 1019,666L1044,666C1046.67,666 1050.17,664.833 1054.5,662.5C1058.83,660.167 1062.33,657.667 1065,655C1067.67,655 1071.17,655.833 1075.5,657.5C1079.83,659.167 1083,660 1085,660C1087.67,660 1090.17,659.833 1092.5,659.5C1094.83,659.167 1096,657.667 1096,655C1098.67,655 1100.33,654 1101,652C1101.67,650 1103.33,647.667 1106,645C1108.67,639.667 1108.33,634.667 1105,630C1101.67,625.333 1098.67,622 1096,620C1096,614.667 1096.17,613.333 1096.5,616C1096.83,618.667 1098.33,620 1101,620C1103.67,622 1106.17,624.167 1108.5,626.5C1110.83,628.833 1113.33,630 1116,630C1118.67,630 1121.5,630.667 1124.5,632C1127.5,633.333 1131.67,632.667 1137,630C1139,630 1140.5,629.667 1141.5,629C1142.5,628.333 1144.33,627 1147,625L1152,620C1154.67,617.333 1155.17,614.667 1153.5,612C1151.83,609.333 1149.67,606.667 1147,604C1144.33,601.333 1144.5,599.833 1147.5,599.5L1152,599C1154.67,599 1157.33,599.833 1160,601.5C1162.67,603.167 1165,604 1167,604C1169.67,604 1172.33,603.833 1175,603.5C1177.67,603.167 1180.33,601.667 1183,599L1188,604L1190.5,604.5C1192.17,604.833 1193,606.333 1193,609L1203,609L1208,604L1209,601.5C1209.67,599.833 1211,599 1213,599L1213,589C1211,583.667 1208.5,579.333 1205.5,576C1202.5,572.667 1198.33,568.333 1193,563L1198,558C1200.67,560.667 1204.17,562.333 1208.5,563C1212.83,563.667 1216.33,565.333 1219,568C1226.33,570.667 1232.5,572 1237.5,572C1242.5,572 1246.33,570.667 1249,568C1251.67,565.333 1252.33,565.833 1251,569.5C1249.67,573.167 1249,576.333 1249,579C1249,591.667 1248.67,610.333 1248,635C1248,660.333 1247.5,686.333 1246.5,713C1245.5,739.667 1244.33,765 1243,789C1241.67,812.333 1240.33,829.333 1239,840C1239,855.333 1245.83,864.167 1259.5,866.5L1280,870L1403,870C1400.33,870 1396.83,869.833 1392.5,869.5C1388.17,869.167 1384.67,867.667 1382,865C1377.33,862.333 1371.83,858.667 1365.5,854C1359.17,849.333 1354.67,844.667 1352,840C1346.67,832 1343.5,823.167 1342.5,813.5C1341.5,803.833 1341,793.667 1341,783L1341,410C1343.67,407.333 1345.33,404.667 1346,402C1346.67,399.333 1347,396.667 1347,394C1347,391.333 1346.67,388.833 1346,386.5C1345.33,384.167 1343.67,381.667 1341,379C1351.67,376.333 1361.67,371.667 1371,365C1380.33,358.333 1387.67,351 1393,343C1395,340.333 1396.33,337.833 1397,335.5C1397.67,333.167 1398,330.667 1398,328L1398,312L1444,312C1451.33,312 1458,313.333 1464,316C1470,318.667 1477,322.667 1485,328C1492.33,332.667 1498,337 1502,341C1506,345 1510.67,350.667 1516,358C1520.67,363.333 1524.33,369.667 1527,377C1529.67,384.333 1531,391.667 1531,399C1533.67,407 1535.17,414.833 1535.5,422.5C1535.83,430.167 1536,437.667 1536,445C1536,455.667 1533.5,466.167 1528.5,476.5C1523.5,486.833 1515.67,497 1505,507C1497.67,514.333 1488.83,520.333 1478.5,525C1468.17,529.667 1456.67,532 1444,532L1372,532C1366.67,537.333 1362.67,543.5 1360,550.5C1357.33,557.5 1354.67,563.333 1352,568L1449,568C1459,568 1467.83,570.333 1475.5,575C1483.17,579.667 1489.67,586 1495,594C1503,599.333 1508.67,606.333 1512,615C1515.33,623.667 1518.33,632 1521,640L1567,824C1571.67,847.333 1580.5,860.833 1593.5,864.5L1613,870L1725,870C1720.33,870 1715.67,869 1711,867C1706.33,865 1702.67,862.667 1700,860C1692,857.333 1686.33,854.5 1683,851.5C1679.67,848.5 1676.67,844.667 1674,840ZM778,200L778,189C778,187 778.833,185.667 780.5,185L783,184C788.333,184 793.333,184.333 798,185C802.667,185.667 806.333,187 809,189L809,205C811.667,205 807.833,205.333 797.5,206C787.167,206.667 780.667,204.667 778,200ZM845,215C845,209.667 846,205.5 848,202.5C850,199.5 852.333,197 855,195L870,195C872.667,195 875.167,195.833 877.5,197.5L881,200C881,202.667 879.833,205.167 877.5,207.5L870,215C865.333,217.667 860.667,219 856,219C851.333,219 847.667,217.667 845,215ZM1244,543C1238.67,540.333 1233.67,537.667 1229,535C1224.33,532.333 1221,529.667 1219,527L1219.5,524.5C1219.83,522.833 1221.33,522 1224,522C1226.67,522 1230,522.833 1234,524.5C1238,526.167 1241.33,527 1244,527L1244,543ZM589,794C586.333,796 584,798.333 582,801C580,803.667 579,806.333 579,809L579,804C581,801.333 582.5,799.5 583.5,798.5C584.5,797.5 586.333,796 589,794ZM2227,532L2222,543C2219.33,547.667 2216.83,553.5 2214.5,560.5C2212.17,567.5 2209.67,573.667 2207,579L2278,579C2291.33,576.333 2305,570.833 2319,562.5C2333,554.167 2340,542.333 2340,527L2237,527C2237,529.667 2236,531.167 2234,531.5C2232,531.833 2229.67,532 2227,532ZM2406,748C2398.67,755.333 2390.33,761.333 2381,766C2371.67,770.667 2363,773 2355,773L2289,773L2222,768C2219.33,768 2217,767.833 2215,767.5C2213,767.167 2212,765.667 2212,763C2212,760.333 2211.17,758.5 2209.5,757.5C2207.83,756.5 2207,755 2207,753L2207,369C2207,358.333 2208.5,353 2211.5,353L2253,353C2263,353 2273.17,353.333 2283.5,354C2293.83,354.667 2304,356 2314,358C2324.67,360.667 2333.83,364.333 2341.5,369C2349.17,373.667 2355.33,378.667 2360,384L2396,420C2398.67,422.667 2401,425.167 2403,427.5C2405,429.833 2406,432.333 2406,435L2409,438.5C2411,440.833 2412,443 2412,445L2417,461L2406,410C2406,404.667 2405.17,399.5 2403.5,394.5C2401.83,389.5 2401,384.333 2401,379C2401,373.667 2400.83,368.667 2400.5,364C2400.17,359.333 2398.67,355.667 2396,353C2396,350.333 2395.83,347.833 2395.5,345.5C2395.17,343.167 2393.67,340.667 2391,338C2391,335.333 2390,333.833 2388,333.5C2386,333.167 2383.67,333 2381,333L2063,333L2043,328L2058,333C2060.67,333 2064.17,334 2068.5,336C2072.83,338 2076.33,340.333 2079,343C2083.67,345.667 2088.33,349.333 2093,354C2097.67,358.667 2101.33,363.667 2104,369C2106.67,376.333 2108.17,384 2108.5,392C2108.83,400 2109,409.333 2109,420L2109,701L2104,778C2104,783.333 2104.33,787.5 2105,790.5C2105.67,793.5 2107,796.333 2109,799C2109,801.667 2110.17,803.167 2112.5,803.5C2114.83,803.833 2117.33,804 2120,804L2417,804C2419,801.333 2420.5,798.5 2421.5,795.5C2422.5,792.5 2424.33,788.333 2427,783L2432,758C2432,750 2433,742.333 2435,735C2437,727.667 2439.33,721.667 2442,717L2442,701L2441.5,704C2441.17,706 2439.67,707 2437,707C2431.67,714.333 2426.5,721.667 2421.5,729C2416.5,736.333 2411.33,742.667 2406,748ZM2442,676L2442,707C2442,704.333 2442.83,702.5 2444.5,701.5C2446.17,700.5 2447,698.667 2447,696C2445,693.333 2443.67,691.833 2443,691.5L2442,691L2447,676L2442,676ZM1976,768C1963.33,773.333 1949.83,777 1935.5,779C1921.17,781 1907.33,780.667 1894,778C1881.33,778 1867.83,777.167 1853.5,775.5C1839.17,773.833 1825.33,773 1812,773C1807.33,770.333 1806.17,766.833 1808.5,762.5C1810.83,758.167 1812,755 1812,753C1812,750.333 1814,746 1818,740C1822,734 1825.33,729.667 1828,727L1853,686L1900,604C1917.33,576 1934.17,547 1950.5,517C1966.83,487 1984,458 2002,430L2038,369C2040.67,366.333 2043.67,361.833 2047,355.5C2050.33,349.167 2050.67,343.333 2048,338C2048,332.667 2046.67,329.667 2044,329C2041.33,328.333 2037.67,328 2033,328L1746,328C1740.67,328 1735.5,328.333 1730.5,329C1725.5,329.667 1720.33,332.667 1715,338C1712.33,343.333 1710.83,347.667 1710.5,351C1710.17,354.333 1710,358.667 1710,364L1710,440C1710,437.333 1710.17,435 1710.5,433C1710.83,431 1712.33,430 1715,430C1717.67,422.667 1720,417.5 1722,414.5L1725,410C1727.67,404.667 1731.33,399.667 1736,395C1740.67,390.333 1745.67,386.667 1751,384C1766.33,374 1783,366.333 1801,361C1819,355.667 1838.33,353 1859,353L1910,353C1912.67,353 1915.17,353.333 1917.5,354C1919.83,354.667 1922.33,356 1925,358C1927.67,360.667 1928.33,363.5 1927,366.5C1925.67,369.5 1925,373.667 1925,379L1853,497L1695,768C1692.33,773.333 1689.67,778.5 1687,783.5C1684.33,788.5 1681.67,793.667 1679,799L1679,809L2012,809C2014.67,809 2017,807 2019,803C2021,799 2022,796 2022,794C2022,791.333 2023.83,784 2027.5,772C2031.17,760 2033,750 2033,742L2043,701C2040.33,709 2036.67,716 2032,722C2027.33,728 2022.33,734.667 2017,742C2012.33,744.667 2006.33,748.333 1999,753C1991.67,757.667 1984,762.667 1976,768ZM2048,691L2048,671L2048,691ZM4367,553C4347,540.333 4325.67,531.167 4303,525.5C4280.33,519.833 4257.33,517 4234,517C4224,517 4215,515.667 4207,513C4199,510.333 4191,506.667 4183,502C4175.67,496.667 4169.17,490.333 4163.5,483C4157.83,475.667 4152.33,468.333 4147,461C4144.33,453 4143,444.333 4143,435C4143,425.667 4144.33,417.333 4147,410C4149.67,402 4153.5,394.167 4158.5,386.5C4163.5,378.833 4170,371.333 4178,364C4185.33,358.667 4194,354.667 4204,352C4214,349.333 4224,348 4234,348C4244.67,348 4254.83,350.167 4264.5,354.5C4274.17,358.833 4283,363.667 4291,369C4298.33,373.667 4304.5,379.667 4309.5,387C4314.5,394.333 4318.33,402 4321,410C4323.67,414.667 4326.17,419.833 4328.5,425.5C4330.83,431.167 4332,437.667 4332,445L4332,471L4337,461C4339,450.333 4342.5,437.333 4347.5,422C4352.5,406.667 4357.33,394 4362,384C4362,381.333 4363.33,377 4366,371C4368.67,365 4367.33,360.667 4362,358C4357.33,356 4352.5,353.667 4347.5,351C4342.5,348.333 4339,345.667 4337,343C4316.33,333 4295.5,326.5 4274.5,323.5C4253.5,320.5 4231.67,320.333 4209,323C4198.33,323 4187.33,324.167 4176,326.5C4164.67,328.833 4155,332.667 4147,338C4137,343.333 4128,349.5 4120,356.5C4112,363.5 4104,371 4096,379C4090.67,386.333 4086,394.833 4082,404.5C4078,414.167 4076,422.667 4076,430C4073.33,440 4072,449.333 4072,458C4072,466.667 4073.33,476 4076,486C4078,496.667 4081.67,506.667 4087,516C4092.33,525.333 4098.67,532.667 4106,538C4114,545.333 4122.67,551.5 4132,556.5C4141.33,561.5 4149.67,565.333 4157,568C4167.67,570.667 4178.17,573.167 4188.5,575.5C4198.83,577.833 4209,579 4219,579C4229,579 4239.17,580.167 4249.5,582.5C4259.83,584.833 4270,588.667 4280,594C4298,604 4309.17,620 4313.5,642C4317.83,664 4318.67,683.667 4316,701C4316,711.667 4313.67,721 4309,729C4304.33,737 4298.33,745 4291,753C4285.67,760.333 4278.5,766.667 4269.5,772C4260.5,777.333 4252,781 4244,783C4234,785.667 4224.17,787 4214.5,787C4204.83,787 4196,785.667 4188,783C4178,781 4168.83,777.333 4160.5,772C4152.17,766.667 4144.33,760.333 4137,753C4124.33,742.333 4115,729.5 4109,714.5C4103,699.5 4098.67,683.333 4096,666L4096,660L4101,645L4096,671C4093.33,681 4089.83,691.167 4085.5,701.5C4081.17,711.833 4078,722 4076,732C4073.33,737.333 4071.5,742.5 4070.5,747.5C4069.5,752.5 4067.67,757.667 4065,763C4065,768.333 4066.33,772.5 4069,775.5C4071.67,778.5 4075.67,781 4081,783C4111.67,801 4144.5,812.333 4179.5,817C4214.5,821.667 4249.67,819 4285,809C4303,806.333 4319.67,801.167 4335,793.5C4350.33,785.833 4364.67,775.667 4378,763C4385.33,755 4391.5,747 4396.5,739C4401.5,731 4405.33,722 4408,712C4410.67,701.333 4413.17,691 4415.5,681C4417.83,671 4419,660.667 4419,650C4419,640 4418.5,630.667 4417.5,622C4416.5,613.333 4413.33,604 4408,594C4400.67,588.667 4394,582.333 4388,575C4382,567.667 4375,560.333 4367,553ZM4716,343C4698,335.667 4679.17,330.667 4659.5,328C4639.83,325.333 4621,325.333 4603,328L4500,333L4413,333C4415.67,335.667 4418.33,338.167 4421,340.5C4423.67,342.833 4426.33,345.333 4429,348C4433.67,358.667 4438,369 4442,379C4446,389 4446.67,399.333 4444,410L4444,568C4444,594 4443.83,620.667 4443.5,648C4443.17,675.333 4441.67,701.667 4439,727L4439,788C4441.67,798.667 4446.67,804 4454,804L4567,804C4564.33,804 4561.83,803.833 4559.5,803.5C4557.17,803.167 4554.67,801.667 4552,799C4549.33,796.333 4546.83,794.5 4544.5,793.5C4542.17,792.5 4541,790.667 4541,788C4541,786 4540.17,783.667 4538.5,781C4536.83,778.333 4536,775.667 4536,773L4536,384C4536,381.333 4536.33,377.833 4537,373.5C4537.67,369.167 4539,366 4541,364C4543.67,361.333 4546.33,358.833 4549,356.5C4551.67,354.167 4554.33,353 4557,353L4613,353C4621,355.667 4629.5,359.333 4638.5,364C4647.5,368.667 4654.33,373.667 4659,379C4667,386.333 4672.67,393.833 4676,401.5C4679.33,409.167 4682.33,417 4685,425C4687.67,435 4689.17,445.167 4689.5,455.5C4689.83,465.833 4690,476 4690,486C4687.33,496.667 4684.5,506.833 4681.5,516.5C4678.5,526.167 4674.33,535 4669,543C4661.67,553 4652,561.667 4640,569C4628,576.333 4615.67,581.333 4603,584L4588,589C4585.33,589 4583.5,590 4582.5,592C4581.5,594 4579.67,596.333 4577,599C4572.33,604.333 4568.17,609.5 4564.5,614.5C4560.83,619.5 4556.67,624.667 4552,630C4562,630 4571.33,629.667 4580,629C4588.67,628.333 4598,627 4608,625C4628.67,622.333 4648.83,617.167 4668.5,609.5C4688.17,601.833 4705.67,591.667 4721,579C4736.33,561 4748.67,540.833 4758,518.5C4767.33,496.167 4772,473.667 4772,451C4772,440.333 4771.5,429.833 4770.5,419.5C4769.5,409.167 4766.67,399 4762,389C4754,379 4746.17,370.167 4738.5,362.5C4730.83,354.833 4723.33,348.333 4716,343ZM4403,328L4388,323L4403,328ZM5699,722L5699,379C5701,373.667 5702,367.667 5702,361C5702,354.333 5701,348.333 5699,343C5696.33,337.667 5693.5,334.667 5690.5,334C5687.5,333.333 5683.33,333 5678,333L5571,333C5568.33,333 5566.5,332.167 5565.5,330.5C5564.5,328.833 5562.67,328 5560,328L5555,328L5560,333C5568,335.667 5575.67,340.167 5583,346.5C5590.33,352.833 5596.33,358.667 5601,364C5606.33,374 5610,385.167 5612,397.5C5614,409.833 5614,422.333 5612,435L5612,594C5612,619.333 5611.67,645.667 5611,673C5610.33,700.333 5608.67,727 5606,753C5606,760.333 5605.5,769.5 5604.5,780.5C5603.5,791.5 5604,801 5606,809C5606,811.667 5607.17,813.167 5609.5,813.5C5611.83,813.833 5614.33,814 5617,814L5740,814C5719.33,808.667 5707.33,796.5 5704,777.5C5700.67,758.5 5699,740 5699,722ZM5960,778C5954.67,768 5951,758.667 5949,750C5947,741.333 5947,732 5949,722L5949,579C5949,545.667 5949.33,513.333 5950,482C5950.67,450.667 5952.33,419.667 5955,389L5868,410C5865.33,410 5863.67,411.833 5863,415.5C5862.33,419.167 5862,422.333 5862,425L5862,763C5862,770.333 5862.33,777 5863,783C5863.67,789 5865.33,796 5868,804L5873,809L5990,809C5982.67,806.333 5976.5,801.833 5971.5,795.5C5966.5,789.167 5962.67,783.333 5960,778ZM5888,374L6072,374C6077.33,374 6081.33,371 6084,365C6086.67,359 6088,353.333 6088,348L6108,312L6105,314.5C6103,316.167 6100.67,317 6098,317L6083,323C6075,325 6068,326.333 6062,327C6056,327.667 6049.33,328 6042,328L5765,328C5762.33,328 5759.83,328.167 5757.5,328.5C5755.17,328.833 5752.67,330.333 5750,333L5750,425C5750,422.333 5750.17,418.833 5750.5,414.5C5750.83,410.167 5752.33,406.667 5755,404C5760.33,394 5767,387.167 5775,383.5C5783,379.833 5793.33,376.667 5806,374C5818.67,371.333 5832.33,370 5847,370C5861.67,370 5875.33,371.333 5888,374Z" style="fill-rule:nonzero;"/>
    </g>
</svg>
