<svg xmlns="http://www.w3.org/2000/svg" viewBox="0 0 140 27">
  <path d="M114.29 14.09h-6.2A.88.88 0 0 0 107 15a.89.89 0 0 0 1.07.9h5.1v7a13.22 13.22 0 0 1-6 1.26c-5.89 0-9.51-4.26-9.51-10.41 0-5.86 3.43-10.94 9.1-10.94a9.46 9.46 0 0 1 6.14 2.5 1.24 1.24 0 0 0 .82.43.93.93 0 0 0 .79-.86A1.14 1.14 0 0 0 114 4a11.06 11.06 0 0 0-7.34-3C100 1 95.94 6.74 95.94 13.66c0 7.31 4.31 12.3 11.27 12.3 2.26 0 5.26-.4 7.08-1.5a1.16 1.16 0 0 0 .6-1.23v-8.47a.57.57 0 0 0-.6-.67zM87.05 1.3s-6.87 9.46-8.42 11.62a2.22 2.22 0 0 0-.63 1.7v10.32a1 1 0 1 0 1.92 0V15a1.46 1.46 0 0 1 .26-1l8.43-11.57a1 1 0 0 0-1.56-1.13zm-20.18.09a.92.92 0 0 0-.59-.27H50.15a1.58 1.58 0 0 0-1 .25.74.74 0 0 0-.28.62.74.74 0 0 0 .27.63 1.62 1.62 0 0 0 1 .23h14.25L48.91 24.22a1.43 1.43 0 0 0-.36.79.71.71 0 0 0 .31.57 1.18 1.18 0 0 0 .69.23h16.21a1.61 1.61 0 0 0 1-.24.82.82 0 0 0 0-1.25 1.59 1.59 0 0 0-1-.24H51.22L66.84 2.74h.06-.06a1.31 1.31 0 0 0 .32-.74.85.85 0 0 0-.29-.61zm71.53-.3a1 1 0 0 0-1.34.21s-6.87 9.46-8.42 11.62a2.22 2.22 0 0 0-.62 1.71v10.31a1 1 0 1 0 1.92 0V15a1.46 1.46 0 0 1 .26-.94l8.42-11.62a1 1 0 0 0-.22-1.36zM13.24 12.8l-3.93-.59C6.09 11.72 4 9.93 4 7.82c0-3.65 2.94-5 6.24-5h.09c3 0 6.61 1.61 6.61 4.95a.9.9 0 1 0 1.78 0c0-3.71-3-6.4-8.38-6.69C5.92 1 2.26 3.28 2.26 7.79c0 3.6 3.59 5.7 6.82 6.2l3.92.6c2.21.36 4.75 1.71 4.75 4.38 0 3.62-4 5.11-7.28 5.11C6.61 24.08 3 22 3 18.41a.86.86 0 0 0-.89-1 .86.86 0 0 0-.89 1.06c0 3.89 3.36 7.41 9.26 7.41 6.69 0 9-4.22 9-6.89.02-3.55-3.14-5.69-6.24-6.19zM39.09 1.3s-6.87 9.46-8.42 11.62a2.22 2.22 0 0 0-.67 1.7v10.32a1 1 0 1 0 1.92 0V15a1.46 1.46 0 0 1 .3-1l8.42-11.57a1 1 0 0 0-1.55-1.13z"/>
</svg>