<svg xmlns="http://www.w3.org/2000/svg" xml:space="preserve" style="fill-rule:evenodd;clip-rule:evenodd;stroke-linejoin:round;stroke-miterlimit:2" viewBox="0 0 3024 3024"><path d="M19852.4 248.868V2774.75c0 137.36-111.5 248.87-248.9 248.87h-2525.8c-137.4 0-248.9-111.51-248.9-248.87V248.868C16828.8 111.514 16940.3 0 17077.7 0h2525.8c137.4 0 248.9 111.514 248.9 248.868Z" style="fill:#ea516a" transform="translate(-16828.8)"/><path d="M16798.6 70.831h2409.48v2409.48H16798.6z" style="fill:none" transform="translate(-21080.32 -88.8846) scale(1.25488)"/><path d="M9470.82 1119.08v-44h18.07c2.71 0 5.13.24 7.26.73 2.14.49 3.96 1.21 5.47 2.17 1.51.95 2.67 2.15 3.47 3.6.8 1.44 1.2 3.12 1.2 5.03 0 1.78-.37 3.36-1.1 4.74-.74 1.37-1.9 2.5-3.5 3.36-1.6.87-3.71 1.41-6.34 1.64v.73c4.45.22 7.68 1.25 9.7 3.1 2.03 1.84 3.04 4.3 3.04 7.37 0 2.57-.68 4.71-2.04 6.39-1.35 1.69-3.32 2.97-5.9 3.84-2.57.86-5.77 1.3-9.6 1.3h-19.73Zm10.6-8.6h8.67c2.4 0 4.23-.41 5.5-1.23 1.26-.83 1.9-2.02 1.9-3.57 0-1.74-.73-3.04-2.17-3.9-1.44-.87-3.63-1.3-6.57-1.3h-7.33v10Zm0-17.07h6.13c2.71 0 4.76-.42 6.14-1.27 1.37-.84 2.06-2.11 2.06-3.79 0-1.6-.62-2.79-1.86-3.57-1.25-.78-3.12-1.17-5.6-1.17h-6.87v9.8Z" style="fill:#f7efec" transform="translate(-324539.16624 -36182.99804) scale(34.35924)"/></svg>
