<svg xmlns="http://www.w3.org/2000/svg" fill="none" stroke-width="1.5" viewBox="0 0 24 24">
  <path stroke-linecap="round" stroke-linejoin="round" d="M7.5 22c3.0376 0 5.5-2.4624 5.5-5.5S10.5376 11 7.5 11C4.46243 11 2 13.4624 2 16.5c0 1.0018.26783 1.941.7358 2.75l-.4608 2.475 2.475-.4608c.80898.468 1.74821.7358 2.75.7358Z"/>
  <path stroke-linecap="round" stroke-linejoin="round" d="M15.2824 17.8978c.9763-.1573 1.8934-.4913 2.7176-.9681l3.6.6703-.6703-3.6C21.6104 12.8233 22 11.4571 22 10c0-4.41828-3.5817-8-8-8-4.02738 0-7.35968 2.97598-7.91779 6.84884"/>
</svg>
