<svg xmlns="http://www.w3.org/2000/svg" viewBox="0 0 86.0710678 9.06933472"><path fill-rule="evenodd" d="M50.7781746.29116012c.0756571.07565713.136657.16042109.1829997.2507633L57.035 6.619 63.1098935.54192342c.0463427-.09034221.1073426-.17510617.1829997-.2507633C63.4731352.11091814 63.705064.01386477 63.9409686 0h.1891306c.2359047.01386477.4678334.11091814.6480754.29116012.0756571.07565713.136657.16042109.1829997.2507633L71.035 6.619 77.1098935.54192342c.0463427-.09034221.1073426-.17510617.1829997-.2507633C77.4731352.11091814 77.705064.01386477 77.9409686 0h.1891306c.2359047.01386477.4678334.11091814.6480754.29116012.0756571.07565713.136657.16042109.1829997.2507633l6.8170003 6.82030451c.3905243.3905243.3905243 1.02368928 0 1.41421357-.3905243.39052429-1.0236893.39052429-1.4142136 0L78.035 2.4482669l-6.0730437 6.07588354c-.0464377.0909144-.1076983.1762076-.1837817.25229106-.180242.18024198-.4121707.27729535-.6480754.29116012h-.1891306c-.2359046-.01386477-.4678334-.11091814-.6480754-.29116012-.0760834-.07608346-.137344-.16137666-.1837817-.25229106L64.035 2.4482669l-6.0730437 6.07588354-.0187342.03493612a.9925618.9925618 0 0 1-.0193442.03290725l.0380784-.06784337c-.0241402.04726106-.0522861.09300307-.0844377.13672192-.0071166.009676-.0143973.01921223-.0218725.02864479-.0021407.0027006-.0042274.00530628-.006329.00790389l-.0711425.07902046c-.1502017.15020165-.3362969.24263343-.5306753.27729535l-.1174001.01386477h-.1891306c-.2359046-.01386477-.4678334-.11091814-.6480754-.29116012-.0760834-.07608346-.137344-.16137666-.1837817-.25229106L50.035 2.4482669l-6.0730437 6.07588354c-.0464377.0909144-.1076983.1762076-.1837817.25229106-.1502017.15020165-.3362969.24263343-.5306753.27729535l-.1174001.01386477h-.1891306c-.2359046-.01386477-.4678334-.11091814-.6480754-.29116012-.0760834-.07608346-.137344-.16137666-.1837817-.25229106L36.035 2.4482669l-6.0730437 6.07588354c-.0464377.0909144-.1076983.1762076-.1837817.25229106-.180242.18024198-.4121707.27729535-.6480754.29116012h-.1891306c-.2359046-.01386477-.4678334-.11091814-.6480754-.29116012-.0277765-.0277765-.0535773-.0567805-.0774026-.08683739l.0774026.08683739c-.0365196-.03651962-.0696241-.07516111-.0993135-.11552763-.016662-.02265652-.0322216-.04581289-.0467094-.06944084-.0063555-.01035057-.0128036-.02132192-.0190246-.03238647-.006667-.01187304-.0128208-.02335901-.0187342-.03493612L22.035 2.4482669l-6.0730437 6.07588354c-.0464377.0909144-.1076983.1762076-.1837817.25229106-.180242.18024198-.4121707.27729535-.6480754.29116012h-.1891306c-.2359046-.01386477-.4678334-.11091814-.6480754-.29116012-.0760834-.07608346-.137344-.16137666-.1837817-.25229106L8.035 2.4482669 1.70710678 8.7764415c-.39052429.39052429-1.02368927.39052429-1.41421356 0-.3905243-.39052429-.3905243-1.02368927 0-1.41421357L7.1098935.54192343c.04634268-.09034222.10734259-.17510618.18299972-.2507633C7.4731352.11091813 7.70506395.01386476 7.94096861 0h.18913059c.23590466.01386477.46783341.11091814.64807539.29116012.07565713.07565713.13665704.16042109.18299972.2507633L15.035 6.619 21.1098935.54192342c.0463427-.09034221.1073426-.17510617.1829997-.2507633C21.4731352.11091814 21.705064.01386477 21.9409686 0h.1891306c.2359047.01386477.4678334.11091814.6480754.29116012.0756571.07565713.136657.16042109.1829997.2507633L29.035 6.619 35.1098935.54192342c.0463427-.09034221.1073426-.17510617.1829997-.2507633C35.4731352.11091814 35.705064.01386477 35.9409686 0h.1891306c.2359047.01386477.4678334.11091814.6480754.29116012.0756571.07565713.136657.16042109.1829997.2507633L43.035 6.619 49.1098935.54192342c.0463427-.09034221.1073426-.17510617.1829997-.2507633C49.4731352.11091814 49.705064.01386477 49.9409686 0h.1891306c.2359047.01386477.4678334.11091814.6480754.29116012Z"/></svg>
