<svg xmlns="http://www.w3.org/2000/svg" viewBox="0 0 16 15.8903447">
  <g transform="translate(-351 -23)">
    <g transform="translate(24 15)">
      <g transform="translate(327 8)">
        <path id="Path" d="M4.83605916 0c.28559379 0 .5412836.17701247.64181764.44432637l1.07506656 2.85853671c.04404511.11711326.05520682.24404566.03227615.36704839l-.53163466 2.8488807.02146358.05006243c.62800815 1.42475968 1.6429292 2.42481702 3.3604925 3.33319264l.07218092.03613942L12.31652 9.39496948c.09409-.0182322.1905971-.01647338.2833466.00474205l.0912682.02768117 2.8673268 1.0926245c.2658555.101307.4415384.3562587.4415384.6407622v2.6475757c0 1.3190275-1.1674141 2.3147184-2.4550682 2.0344812-3.59529358-.78228-6.99021536-2.2645144-9.42606609-4.7003651C1.78133573 8.80492187.52596498 5.62950191.02304375 2.29991718-.16393404 1.06202207.81126741 0 2.0654081 0h2.77065106Zm-.4748003 1.3714149H2.0654081c-.43547049 0-.74476292.33682824-.686331.72367943.463205 3.06664389 1.61697786 5.98507524 3.7095274 8.07764207 2.21333743 2.2133375 5.3860399 3.5985502 8.7479352 4.3300463.4141331.0901294.7920454-.2321931.7920454-.6944276v-2.1750996l-2.2427205-.8548486-2.85039875.5523833c-.11893809.0230471-.24130325.0140772-.35478898-.0252145l-.08325711-.0351277C6.83539763 10.1350864 5.4904712 8.81149386 4.70573179 6.84964532c-.04826747-.12066867-.0612485-.25256969-.03743041-.38033265l.53317767-2.86432003-.84022019-2.23357774Z"/>
      </g>
    </g>
  </g>
</svg>
