<svg xmlns="http://www.w3.org/2000/svg" fill="none" stroke-width="1.5" viewBox="0 0 24 24"><path stroke-linecap="round" stroke-linejoin="round" d="m14 12-3.5 2v-4l3.5 2Z"/><path  d="M2 12.7075v-1.4151c0-2.89535 0-4.34301.90549-5.27448.9055-.93147 2.33107-.97179 5.1822-1.05243C9.43873 4.92728 10.8188 4.8999 12 4.8999s2.5613.02738 3.9123.06559c2.8511.08064 4.2767.12096 5.1822 1.05243S22 8.39705 22 11.2924v1.4151c0 2.8953 0 4.343-.9055 5.2744-.9055.9315-2.331.9718-5.1821 1.0525-1.3511.0382-2.7312.0656-3.9124.0656s-2.56133-.0274-3.9124-.0656c-2.85109-.0807-4.27663-.121-5.18212-1.0525C2 17.0505 2 15.6028 2 12.7075Z"/></svg>
